<svg width="54" height="37" viewBox="0 0 54 37" fill="none" xmlns="http://www.w3.org/2000/svg">
<path d="M54 0.00390625H0V36.0043H54V0.00390625Z" fill="#F0F0F0"/>
<path d="M54 4.50342H0V9.00303H54V4.50342Z" fill="#D80027"/>
<path d="M54 13.5039H0V18.0035H54V13.5039Z" fill="#D80027"/>
<path d="M54 22.5024H0V27.0021H54V22.5024Z" fill="#D80027"/>
<path d="M54 31.5032H0V36.0028H54V31.5032Z" fill="#D80027"/>
<path d="M27 0.00390625H0V19.3887H27V0.00390625Z" fill="#2E52B2"/>
<path d="M10.5279 7.94556L10.0931 9.28332H8.68652L9.82464 10.1097L9.38979 11.4473L10.5279 10.621L11.6653 11.4473L11.2305 10.1097L12.3686 9.28332H10.962L10.5279 7.94556Z" fill="#F0F0F0"/>
<path d="M10.962 14.1106L10.5279 12.7729L10.0931 14.1106H8.68652L9.82464 14.9371L9.38979 16.2747L10.5279 15.4483L11.6653 16.2747L11.2305 14.9371L12.3686 14.1106H10.962Z" fill="#F0F0F0"/>
<path d="M5.01778 14.1106L4.58357 12.7729L4.14872 14.1106H2.74219L3.8803 14.9371L3.44545 16.2747L4.58357 15.4483L5.72105 16.2747L5.2863 14.9371L6.42421 14.1106H5.01778Z" fill="#F0F0F0"/>
<path d="M4.58357 7.94556L4.14872 9.28332H2.74219L3.8803 10.1097L3.44545 11.4473L4.58357 10.621L5.72105 11.4473L5.2863 10.1097L6.42421 9.28332H5.01778L4.58357 7.94556Z" fill="#F0F0F0"/>
<path d="M10.5279 3.11768L10.0931 4.45555H8.68652L9.82464 5.282L9.38979 6.61966L10.5279 5.79321L11.6653 6.61966L11.2305 5.282L12.3686 4.45555H10.962L10.5279 3.11768Z" fill="#F0F0F0"/>
<path d="M4.58357 3.11816L4.14872 4.45604H2.74219L3.8803 5.28249L3.44545 6.62015L4.58357 5.79369L5.72105 6.62015L5.2863 5.28249L6.42421 4.45604H5.01778L4.58357 3.11816Z" fill="#F0F0F0"/>
<path d="M16.4731 7.94556L16.0384 9.28332H14.6318L15.7698 10.1097L15.3352 11.4473L16.4731 10.621L17.6107 11.4473L17.1758 10.1097L18.314 9.28332H16.9074L16.4731 7.94556Z" fill="#F0F0F0"/>
<path d="M16.9074 14.1106L16.4731 12.7729L16.0384 14.1106H14.6318L15.7698 14.9371L15.3352 16.2747L16.4731 15.4483L17.6107 16.2747L17.1758 14.9371L18.314 14.1106H16.9074Z" fill="#F0F0F0"/>
<path d="M22.8517 14.1106L22.4174 12.7729L21.9826 14.1106H20.5762L21.7141 14.9371L21.2793 16.2747L22.4174 15.4483L23.5549 16.2747L23.1201 14.9371L24.2582 14.1106H22.8517Z" fill="#F0F0F0"/>
<path d="M22.4174 7.94556L21.9826 9.28332H20.5762L21.7141 10.1097L21.2793 11.4473L22.4174 10.621L23.5549 11.4473L23.1201 10.1097L24.2582 9.28332H22.8517L22.4174 7.94556Z" fill="#F0F0F0"/>
<path d="M16.4731 3.11768L16.0384 4.45555H14.6318L15.7698 5.282L15.3352 6.61966L16.4731 5.79321L17.6107 6.61966L17.1758 5.282L18.314 4.45555H16.9074L16.4731 3.11768Z" fill="#F0F0F0"/>
<path d="M22.4174 3.11768L21.9826 4.45555H20.5762L21.7141 5.282L21.2793 6.61966L22.4174 5.79321L23.5549 6.61966L23.1201 5.282L24.2582 4.45555H22.8517L22.4174 3.11768Z" fill="#F0F0F0"/>
</svg>
