<svg width="49" height="36" viewBox="0 0 49 36" fill="none" xmlns="http://www.w3.org/2000/svg">
<path d="M28.1291 19.1926L27.4935 20.3014H28.7647L28.1291 19.1926ZM24.5004 22.7809L25.136 21.672H23.8647L24.5004 22.7809Z" fill="#EDECEC"/>
<path d="M48.7502 8.47756V27.1664H0.250229V8.47756H48.7502ZM48.3018 0.253826L48.75 0.2538L48.7502 3.25378L48.4499 3.25377L46.8948 3.25364C45.5549 3.2535 43.6409 3.25321 41.344 3.25264C36.7502 3.25149 30.6253 3.2492 24.5003 3.24461C18.3753 3.24002 12.2504 3.23313 7.65685 3.22281C5.36002 3.21764 3.44625 3.21162 2.10679 3.2046C1.43698 3.20108 0.911216 3.19732 0.553105 3.1933C0.43239 3.19194 0.331124 3.19056 0.250016 3.18915L0.250115 1.68955L0.250193 0.528877L0.250212 0.253805L0.69846 0.253839L2.31592 0.25393C3.54143 0.253979 4.90252 0.253979 5.44468 0.253784C5.44471 0.253784 5.44474 0.253784 5.44477 0.253784H43.5557C43.5557 0.253784 43.5558 0.253784 43.5558 0.253784C44.098 0.253934 45.459 0.253934 46.6845 0.253897L48.3018 0.253826Z" fill="white" stroke="#2A4472" stroke-width="0.5"/>
<path d="M28.7646 15.3425H27.4933L28.1289 16.4513L28.7646 15.3425ZM21.5071 15.3425H20.2358L20.8715 16.4513L21.5071 15.3425ZM25.9212 20.3014L27.3436 17.822L25.9212 15.3425H23.0792L21.6568 17.822L23.0792 20.3014H25.9212ZM20.8715 19.1926L20.2358 20.3014H21.5071L20.8715 19.1926ZM24.5002 12.863L23.8646 13.9719H25.1358L24.5002 12.863Z" fill="#EDECEC"/>
<path d="M0.000838988 3.43036C0 4.0036 0.000291806 4.7814 0 5.4863V8.22756H49V5.4863C49 4.7585 49 4.0036 49 3.43036H0.000838988Z" fill="#2A4472"/>
<path d="M0.249127 35.3902L0.249169 35.2864L0.249453 34.4108C0.249615 33.802 0.249731 33.0695 0.249599 32.4637H48.75V32.4648V32.4729V32.481V32.4892V32.4973V32.5055V32.5137V32.5219V32.5301V32.5383V32.5466V32.5549V32.5631V32.5714V32.5797V32.588V32.5964V32.6047V32.6131V32.6214V32.6298V32.6382V32.6466V32.655V32.6635V32.6719V32.6803V32.6888V32.6973V32.7058V32.7143V32.7228V32.7313V32.7398V32.7484V32.7569V32.7655V32.7741V32.7826V32.7912V32.7998V32.8085V32.8171V32.8257V32.8344V32.843V32.8517V32.8603V32.869V32.8777V32.8864V32.8951V32.9038V32.9125V32.9213V32.93V32.9387V32.9475V32.9562V32.965V32.9738V32.9826V32.9914V33.0001V33.0089V33.0178V33.0266V33.0354V33.0442V33.053V33.0619V33.0707V33.0796V33.0884V33.0973V33.1062V33.115V33.1239V33.1328V33.1417V33.1506V33.1595V33.1684V33.1773V33.1862V33.1951V33.204V33.2129V33.2218V33.2308V33.2397V33.2486V33.2576V33.2665V33.2754V33.2844V33.2933V33.3023V33.3112V33.3202V33.3291V33.3381V33.347V33.356V33.365V33.3739V33.3829V33.3918V33.4008V33.4098V33.4187V33.4277V33.4367V33.4456V33.4546V33.4636V33.4725V33.4815V33.4905V33.4994V33.5084V33.5174V33.5263V33.5353V33.5442V33.5532V33.5621V33.5711V33.5801V33.589V33.598V33.6069V33.6158V33.6248V33.6337V33.6427V33.6516V33.6605V33.6695V33.6784V33.6873V33.6962V33.7051V33.714V33.7229V33.7318V33.7407V33.7496V33.7585V33.7674V33.7763V33.7852V33.794V33.8029V33.8118V33.8206V33.8295V33.8383V33.8471V33.856V33.8648V33.8736V33.8824V33.8912V33.9V33.9088V33.9176V33.9264V33.9351V33.9439V33.9527V33.9614V33.9701V33.9789V33.9876V33.9963V34.005V34.0137V34.0224V34.0311V34.0398V34.0484V34.0571V34.0657V34.0744V34.083V34.0916V34.1002V34.1088V34.1174V34.126V34.1346V34.1431V34.1517V34.1602V34.1687V34.1773V34.1858V34.1943V34.2027V34.2112V34.2197V34.2281V34.2366V34.245V34.2534V34.2618V34.2702V34.2786V34.2869V34.2953V34.3036V34.3119V34.3202V34.3285V34.3368V34.3451V34.3533V34.3616V34.3698V34.378V34.3862V34.3944V34.4026V34.4107V34.4189V34.427V34.4351V34.4432V34.4513V34.4594V34.4674V34.4754V34.4835V34.4915V34.4995V34.5074V34.5154V34.5233V34.5312V34.5391V34.547V34.5549V34.5628V34.5706V34.5784V34.5862V34.594V34.6018V34.6095V34.6172V34.6249V34.6326V34.6403V34.648V34.6556V34.6632V34.6708V34.6784V34.686V34.6935V34.701V34.7085V34.716V34.7235V34.7309V34.7383V34.7457V34.7531V34.7605V34.7678V34.7751V34.7824V34.7897V34.797V34.8042V34.8114V34.8186V34.8258V34.8329V34.84V34.8471V34.8542V34.8613V34.8683V34.8753V34.8823V34.8893V34.8962V34.9031V34.91V34.9169V34.9238V34.9306V34.9374V34.9442V34.9509V34.9576V34.9643V34.971V34.9777V34.9843V34.9909V34.9975V35.004V35.0106V35.0171V35.0235V35.03V35.0364V35.0428V35.0492V35.0555V35.0619V35.0682V35.0744V35.0807V35.0869V35.0931V35.0992V35.1054V35.1115V35.1175V35.1236V35.1296V35.1356V35.1416V35.1475V35.1534V35.1593V35.1651V35.1709V35.1767V35.1825V35.1882V35.1939V35.1996V35.2053V35.2109V35.2165V35.222V35.2275V35.233V35.2385V35.2439V35.2493V35.2547V35.26V35.2653V35.2706V35.2759V35.2811V35.2863V35.2914V35.2965V35.3016V35.3067V35.3117V35.3167V35.3216V35.3266V35.3315V35.3363V35.3411V35.3459V35.3507V35.3554V35.3601V35.3648V35.3694V35.374V35.3785V35.3831V35.3875V35.3902L48.3018 35.3902L46.6843 35.3901C45.4587 35.3901 44.0976 35.3901 43.5554 35.3903C43.5553 35.3903 43.5553 35.3903 43.5553 35.3903H5.44433L0.249127 35.3902ZM0.249127 35.3902L0.697375 35.3902L2.3151 35.3901C3.54081 35.3901 4.90209 35.3901 5.44424 35.3903L0.249127 35.3902Z" fill="white" stroke="#2A4472" stroke-width="0.5"/>
<path d="M0 32.5036C0 32.5036 0.000486922 31.1526 0.000195116 30.4476V27.4098H49.0002V30.4476C49.0002 31.1755 49 32.0837 49 32.2936L0 32.5036ZM22.2925 21.9621L24.5002 25.8122L26.7079 21.9621H31.122L28.9156 18.112L31.1234 14.2619H26.7093L24.5002 10.4118L22.2925 14.2619H17.8784L20.0848 18.112L17.877 21.9621H22.2925ZM24.5002 23.0709L23.8646 21.9621H25.1358L24.5002 23.0709ZM28.7646 15.6325L28.1289 16.7414L27.4933 15.6339H28.7646V15.6325ZM28.1289 19.4826L28.7646 20.5901H27.4933L28.1289 19.4826ZM24.5002 13.153L25.1358 14.2619H23.8646L24.5002 13.153ZM23.0792 15.6325H25.9226L27.3436 18.112L25.9226 20.5915H23.0792L21.6568 18.112L23.0792 15.6325ZM21.5071 15.6325L20.8715 16.7414L20.2358 15.6339H21.5071V15.6325ZM20.8715 19.4826L21.5071 20.5901H20.2358L20.8715 19.4826Z" fill="#2A4472"/>
</svg>
