<svg width="50" height="36" viewBox="0 0 50 36" fill="none" xmlns="http://www.w3.org/2000/svg">
<path d="M4.92334e-05 30.4614C4.92334e-05 31.9303 0 35.9999 0 35.9999C0 35.9999 4.04136 35.9999 5.50005 35.9999H44C45.4587 35.9999 49.5 36.0001 49.5 36.0001C49.5 36.0001 49.5 31.9303 49.5 30.4614V24.923H4.92334e-05V30.4614Z" fill="#FFCD05"/>
<path d="M0 12.4614H49.5V24.923H0V12.4614Z" fill="#ED1F24"/>
<path d="M44 -0.00012207H5.5C4.04131 -0.00012207 0 -0.00012207 0 -0.00012207C0 -0.00012207 0 4.06945 0 5.53834V12.4614H49.5V5.53834C49.5 4.06945 49.5 0.000398099 49.5 0.000398099C49.5 0.000398099 45.4587 -0.00012207 44 -0.00012207Z" fill="#141414"/>
</svg>
