<svg width="231" height="60" viewBox="0 0 231 60" fill="none" xmlns="http://www.w3.org/2000/svg">
<path d="M18.5 0H231L212.5 60H0L18.5 0Z" fill="#E84E2C"/>
<path d="M99.9884 35H97.5724V25.592H94.4684V23.576H103.092V25.592H99.9884V35ZM108.729 26.104C109.711 26.104 110.505 26.488 111.113 27.256C111.721 28.0133 112.025 29.1333 112.025 30.616C112.025 32.0987 111.711 33.2293 111.081 34.008C110.452 34.776 109.647 35.16 108.665 35.16C108.036 35.16 107.535 35.048 107.161 34.824C106.788 34.5893 106.484 34.328 106.249 34.04H106.121C106.207 34.488 106.249 34.9147 106.249 35.32V38.84H103.865V26.264H105.801L106.137 27.4H106.249C106.484 27.048 106.799 26.744 107.193 26.488C107.588 26.232 108.1 26.104 108.729 26.104ZM107.961 28.008C107.343 28.008 106.905 28.2 106.649 28.584C106.404 28.968 106.271 29.5547 106.249 30.344V30.6C106.249 31.4427 106.372 32.0933 106.617 32.552C106.873 33 107.332 33.224 107.993 33.224C108.537 33.224 108.937 33 109.193 32.552C109.46 32.0933 109.593 31.4373 109.593 30.584C109.593 28.8667 109.049 28.008 107.961 28.008ZM117.574 26.088C118.748 26.088 119.644 26.344 120.262 26.856C120.892 27.3573 121.206 28.1307 121.206 29.176V35H119.542L119.078 33.816H119.014C118.641 34.2853 118.246 34.6267 117.83 34.84C117.414 35.0533 116.844 35.16 116.118 35.16C115.34 35.16 114.694 34.936 114.182 34.488C113.67 34.0293 113.414 33.3307 113.414 32.392C113.414 31.464 113.74 30.7813 114.39 30.344C115.041 29.896 116.017 29.6507 117.318 29.608L118.838 29.56V29.176C118.838 28.7173 118.716 28.3813 118.47 28.168C118.236 27.9547 117.905 27.848 117.478 27.848C117.052 27.848 116.636 27.912 116.23 28.04C115.825 28.1573 115.42 28.3067 115.014 28.488L114.23 26.872C114.7 26.6267 115.217 26.4347 115.782 26.296C116.358 26.1573 116.956 26.088 117.574 26.088ZM118.838 30.952L117.91 30.984C117.142 31.0053 116.609 31.144 116.31 31.4C116.012 31.656 115.862 31.992 115.862 32.408C115.862 32.7707 115.969 33.032 116.182 33.192C116.396 33.3413 116.673 33.416 117.014 33.416C117.526 33.416 117.958 33.2667 118.31 32.968C118.662 32.6587 118.838 32.2267 118.838 31.672V30.952ZM131.39 28.552C131.39 29.0213 131.241 29.4213 130.942 29.752C130.654 30.0827 130.222 30.296 129.646 30.392V30.456C130.254 30.5307 130.74 30.7387 131.102 31.08C131.476 31.4213 131.662 31.8587 131.662 32.392C131.662 32.8933 131.529 33.3413 131.262 33.736C131.006 34.1307 130.596 34.44 130.03 34.664C129.465 34.888 128.724 35 127.806 35H123.646V26.264H127.806C128.489 26.264 129.097 26.3387 129.63 26.488C130.174 26.6267 130.601 26.8613 130.91 27.192C131.23 27.5227 131.39 27.976 131.39 28.552ZM128.974 28.744C128.974 28.2107 128.553 27.944 127.71 27.944H126.03V29.672H127.438C127.94 29.672 128.318 29.6027 128.574 29.464C128.841 29.3147 128.974 29.0747 128.974 28.744ZM129.198 32.264C129.198 31.9227 129.065 31.6773 128.798 31.528C128.532 31.368 128.132 31.288 127.598 31.288H126.03V33.352H127.646C128.094 33.352 128.462 33.272 128.75 33.112C129.049 32.9413 129.198 32.6587 129.198 32.264ZM144.717 26.264V35H142.493V30.712C142.493 30.2853 142.498 29.8693 142.509 29.464C142.53 29.0587 142.557 28.6853 142.589 28.344H142.541L140.125 35H138.333L135.885 28.328H135.821C135.864 28.68 135.89 29.0587 135.901 29.464C135.922 29.8587 135.933 30.296 135.933 30.776V35H133.709V26.264H137.085L139.261 32.184L141.469 26.264H144.717ZM155.145 26.264V35H152.761V28.056H149.593V35H147.209V26.264H155.145ZM156.398 26.264H159.006L160.654 31.176C160.74 31.4107 160.804 31.656 160.846 31.912C160.889 32.1573 160.921 32.4187 160.942 32.696H160.99C161.022 32.4187 161.065 32.1573 161.118 31.912C161.182 31.656 161.252 31.4107 161.326 31.176L162.942 26.264H165.502L161.806 36.12C161.476 37.0267 160.99 37.704 160.35 38.152C159.721 38.6107 158.99 38.84 158.158 38.84C157.892 38.84 157.657 38.824 157.454 38.792C157.262 38.7707 157.092 38.744 156.942 38.712V36.824C157.06 36.8453 157.198 36.8667 157.358 36.888C157.529 36.9093 157.705 36.92 157.886 36.92C158.388 36.92 158.782 36.7653 159.07 36.456C159.369 36.1573 159.588 35.7947 159.726 35.368L159.87 34.936L156.398 26.264ZM169.14 26.264V29.624H172.468V26.264H174.852V35H172.468V31.4H169.14V35H166.756V26.264H169.14ZM183.078 26.264H185.702L182.246 30.456L186.006 35H183.302L179.734 30.568V35H177.35V26.264H179.734V30.504L183.078 26.264ZM194.488 28.056H191.624V35H189.24V28.056H186.376V26.264H194.488V28.056Z" fill="white" fill-opacity="0.9"/>
<path d="M69.1241 14.223L67.5541 16.2803L67.0127 15.793L66.4171 15.3599L65.226 14.602L63.9266 13.9523L63.3311 13.6274L62.6814 13.3567L61.9776 13.1402L60.6782 12.707L59.9744 12.5446L59.3247 12.3822L58.6209 12.2739L57.917 12.2198L57.2132 12.1115H55.1559L53.0444 12.2739L52.3947 12.4363L51.6909 12.5446L51.0412 12.7612L50.3373 12.9236L49.6877 13.1402L47.7386 13.9523L47.1431 14.2771L46.4934 14.6561L47.5762 12.707L48.28 12.328L48.9297 11.9491L49.5794 11.6784L50.2832 11.3535L50.9329 11.0828L52.3406 10.6497L53.7482 10.3248L55.1559 10.1083L56.5635 10H57.9712L59.3788 10.1083L60.7865 10.3248L61.4362 10.4873L62.14 10.6497L62.8438 10.8662L64.1432 11.2994L64.7929 11.5701L66.742 12.5446L67.3375 12.9236L69.1241 14.223ZM71.1273 41.7805L70.9108 41.0767L71.2898 40.5353L71.7229 39.9398L72.1019 39.3442L72.4267 38.6945L72.8057 37.9907L73.1305 37.2327L73.4013 36.4748L73.672 35.6627L73.8885 34.7964L74.0509 33.9843L74.2134 33.118L74.3216 32.2518L74.3758 31.3855V29.5989L74.3216 28.7327L74.1592 27.8664L74.0509 27.0002L73.6178 25.2677L73.3471 24.4014L73.0223 23.5893L72.2643 21.9651L71.8312 21.153L71.3439 20.395L70.8025 19.637L70.2611 18.9332L68.9617 17.5255L68.312 16.8759L67.5541 16.2803L69.1241 14.223L69.828 14.8185L71.1815 16.172L71.777 16.8759L72.3726 17.6338L72.914 18.3918L73.4013 19.1498L73.8344 19.9619L74.5923 21.5861L74.9172 22.4523L75.4586 24.1848L75.7834 25.9173L76 27.7581V29.5448L75.9459 30.4652L75.8376 31.3855L75.6752 32.3059L75.242 34.1467L74.5923 35.9875L74.1592 36.9079L73.7261 37.8824L73.1847 38.8569L71.8853 40.806L71.1273 41.7805ZM44.057 45.0831L45.573 43.0799L46.3309 43.6213L47.1431 44.1627L47.901 44.7041L48.7131 45.1373L49.5252 45.5162L50.3915 45.8952L51.2577 46.2201L52.124 46.4908L53.8565 46.9239L55.589 47.1405L56.5094 47.1946L57.3756 47.2487L58.296 47.1946L59.1623 47.1405L60.0285 47.0322L61.761 46.7073L62.6273 46.4366L63.4394 46.1659L65.0636 45.5162L65.8757 45.1373L66.6337 44.7041L68.7452 43.2423L69.3407 42.7009L70.4235 41.6181L70.9108 41.0767L71.1273 41.7805L70.3152 42.7009L69.5573 43.513L68.7452 44.271L67.9872 44.9748L67.1751 45.5704L65.5509 46.6532L64.7388 47.0863L63.8725 47.5194L63.0604 47.8984L62.1941 48.2233L61.3279 48.494L60.4075 48.7647L58.675 49.0895L57.7546 49.1978L56.8884 49.3061H55.0476L54.1813 49.2519L53.2609 49.1437L52.3947 48.9812L51.4743 48.8188L49.7418 48.2774L48.8756 47.9526L48.0634 47.5736L47.1972 47.1946L45.573 46.2201L44.815 45.6787L44.057 45.0831Z" fill="white" fill-opacity="0.9"/>
<path fill-rule="evenodd" clip-rule="evenodd" d="M40.971 39.1818L46.4392 41.3474L45.0857 42.2678L45.8978 43.4589L44.1653 45.1373L42.9201 43.7837L41.729 44.5959L40.971 39.1818Z" fill="white" fill-opacity="0.9"/>
<path d="M46.3851 41.4016L40.9169 39.2359L41.0252 39.1276L46.4392 41.2933L46.3851 41.4016ZM46.4392 41.2933H46.4934L46.3851 41.4016L46.4392 41.2933ZM45.0857 42.2137L46.4392 41.2933L46.3851 41.4016L45.0316 42.3219L45.0857 42.2137ZM45.0316 42.3219V42.2678L45.0857 42.2137L45.0316 42.3219ZM45.8437 43.513L45.0316 42.3219L45.0857 42.2137L45.952 43.4048L45.8978 43.513H45.8437ZM44.1653 45.1373L45.8978 43.4048V43.513L44.1653 45.1914V45.1373ZM42.9742 43.7296L44.2195 45.0831L44.1653 45.1914L42.9201 43.8379L42.9742 43.7296ZM41.729 44.5417L42.9742 43.7296L42.9201 43.8379L41.6749 44.5959L41.729 44.5417ZM41.0252 39.1276L41.729 44.5417L41.6749 44.5959L40.9169 39.2359L41.0252 39.1276ZM40.9169 39.2359V39.0735L41.0252 39.1276L40.9169 39.2359Z" fill="white" fill-opacity="0.9"/>
<path d="M40.6804 28.8494V31.1495H32C32.094 30.28 32.376 29.4575 32.846 28.682C33.316 27.9006 34.2443 26.8666 35.6308 25.58C36.7471 24.5401 37.4315 23.8351 37.6841 23.4649C38.0249 22.9538 38.1953 22.4485 38.1953 21.9492C38.1953 21.3969 38.0455 20.9739 37.7458 20.6801C37.4521 20.3805 37.0438 20.2307 36.5209 20.2307C36.0039 20.2307 35.5926 20.3864 35.2871 20.6978C34.9816 21.0091 34.8054 21.5262 34.7584 22.2488L32.2908 22.002C32.4377 20.639 32.8989 19.6608 33.6744 19.0674C34.4499 18.474 35.4193 18.1774 36.5826 18.1774C37.8575 18.1774 38.8592 18.521 39.5877 19.2084C40.3162 19.8958 40.6804 20.7506 40.6804 21.7729C40.6804 22.3545 40.5747 22.9097 40.3632 23.4385C40.1576 23.9614 39.8286 24.5107 39.3762 25.0865C39.0765 25.4683 38.536 26.0177 37.7546 26.7344C36.9733 27.4512 36.4768 27.9271 36.2653 28.1621C36.0597 28.3971 35.8922 28.6262 35.763 28.8494H40.6804Z" fill="white" fill-opacity="0.9"/>
<path d="M47.2194 31.1495V28.5498H41.9318V26.3819L47.5367 18.1774H49.6164V26.3731H51.2203V28.5498H49.6164V31.1495H47.2194ZM47.2194 26.3731V21.958L44.2496 26.3731H47.2194Z" fill="white" fill-opacity="0.9"/>
<path d="M61.3908 29.5856V27.2855H69.8597V29.0833C69.1606 29.7707 68.4497 30.7577 67.727 32.0444C67.0044 33.331 66.4521 34.6999 66.0703 36.151C65.6943 37.5963 65.5092 38.8888 65.5151 40.0286H63.1269C63.168 38.2426 63.5352 36.4213 64.2284 34.5648C64.9276 32.7082 65.8588 31.0485 67.022 29.5856H61.3908Z" fill="white" fill-opacity="0.9"/>
<path d="M56.347 30.8441C57.244 30.8441 57.9712 30.1412 57.9712 29.2741C57.9712 28.4069 57.244 27.704 56.347 27.704C55.4499 27.704 54.7227 28.4069 54.7227 29.2741C54.7227 30.1412 55.4499 30.8441 56.347 30.8441Z" fill="white" fill-opacity="0.9"/>
<path d="M56.0731 32.2357L53.9492 30.909L49.9692 37.2808L52.0931 38.6074L56.0731 32.2357Z" fill="white" fill-opacity="0.9"/>
<path d="M65.0729 17.1889L62.9219 15.9067L56.7882 26.1969L58.9392 27.4791L65.0729 17.1889Z" fill="white" fill-opacity="0.9"/>
</svg>
