<svg width="100" height="30" viewBox="0 0 100 30" fill="none" xmlns="http://www.w3.org/2000/svg">
<path d="M22.3246 10.7111V7.07722H18.7282V10.7111H15.1318V14.311H18.7282V17.9109H22.3246V14.311H25.9549V10.7111H22.3246Z" fill="#E84E2C"/>
<path d="M40.0011 8.91112L41.0868 5.27726H30.7387C29.212 3.10374 26.9727 1.40567 24.2246 0.556641L23.2406 3.78297C28.0584 5.2433 30.7387 10.3715 29.2798 15.194C27.787 20.0165 22.6639 22.7334 17.8461 21.2391L16.8622 24.4654C22.1549 26.0955 27.7191 24.0239 30.7727 19.7108H36.7101L37.7618 16.1109H32.503C32.7066 15.4996 32.8423 14.9223 32.9101 14.311H38.3725L39.4243 10.7111H32.9101C32.8083 10.0998 32.6726 9.48847 32.503 8.91112H40.0011Z" fill="#E84E2C"/>
<path d="M60.0068 15.5664C59.6324 19.3361 58.3731 20.1852 54.595 19.6418L54.6631 17.4343C56.3989 17.6041 56.7393 17.0607 56.9095 15.4645L57.9986 5.3101C60.9939 5.3101 64.772 5.3101 67.6991 5.3101V19.7097H64.6358V8.06097H60.6875L60.0068 15.5664Z" fill="white"/>
<path d="M75.2213 15.1929C75.1532 15.8381 74.8809 16.7551 74.2682 17.1626H79.6801V7.95909H76.0041L75.2213 15.1929ZM70.5242 17.0947C71.7495 17.0947 72.0218 16.4494 72.192 15.091L73.3152 5.3101C76.2423 5.3101 79.7481 5.3101 82.7093 5.3101V17.0947H84.241V21.7474H81.484V19.7097C78.3867 19.7097 76.0381 19.7097 72.9408 19.7097V21.7474H70.0477V17.0947H70.5242Z" fill="white"/>
<path d="M86.8618 19.7097V5.3101H89.9592V16.9249H95.1328V5.3101H98.2641V17.0947H100V21.5776H97.243V19.7097H86.8618Z" fill="white"/>
<path d="M54.6971 27.351C54.663 26.8076 55.1055 26.5699 55.6161 26.5699C56.2287 26.5699 56.6031 26.9435 56.6031 27.4189C56.6031 27.6567 56.467 27.8604 56.2628 27.9963C56.6031 28.1321 56.7733 28.3699 56.7733 28.7434C56.7733 29.2868 56.3649 29.6604 55.6161 29.6604C55.0034 29.6604 54.5609 29.3208 54.5609 28.6755H55.1396C55.1396 28.9472 55.3438 29.117 55.6161 29.117C55.9564 29.117 56.1266 28.9472 56.1266 28.7095C56.1266 28.4717 55.9224 28.268 55.6161 28.268H55.4119V27.7585H55.6161C55.8543 27.7585 56.0245 27.6227 56.0245 27.4189C56.0245 27.2152 55.8203 27.0793 55.6161 27.0793C55.4459 27.0793 55.2417 27.1812 55.2417 27.351H54.6971Z" fill="white"/>
<path d="M57.9986 28.5736H58.8155L58.4071 27.5887L57.9986 28.5736ZM57.7944 29.117L57.5562 29.5925H56.9095V29.4906L58.2709 26.6039H58.5432L59.9047 29.4906V29.5925H59.258L59.0198 29.117H57.7944Z" fill="white"/>
<path d="M60.8577 28.3699V29.0491H61.5725C61.7767 29.0491 61.9129 28.9132 61.9129 28.7095C61.9129 28.6076 61.8788 28.5057 61.7767 28.4378C61.7087 28.3699 61.6406 28.3699 61.5385 28.3699H60.8577ZM60.8577 27.1812V27.8604H61.4364C61.6406 27.8604 61.7767 27.7246 61.8108 27.5548C61.8108 27.3171 61.6746 27.1812 61.4364 27.1812H60.8577ZM62.1171 28.0642C62.3894 28.1661 62.5255 28.4038 62.5255 28.7095C62.5255 29.2529 62.1852 29.5925 61.6066 29.5925H60.2451V26.6378H61.4704C62.015 26.6378 62.4234 26.9774 62.4234 27.5208C62.4234 27.7246 62.3213 27.9623 62.1171 28.0642Z" fill="white"/>
<path d="M64.3635 29.0491C64.84 29.0491 65.2485 28.7774 65.2485 28.1321C65.2485 27.4869 64.84 27.1812 64.3976 27.1812C63.921 27.1812 63.5126 27.4869 63.5126 28.1321C63.5126 28.7774 63.921 29.0491 64.3635 29.0491ZM64.3635 29.6264C63.5807 29.6264 62.8659 29.117 62.8659 28.1321C62.8659 27.1133 63.5807 26.6039 64.3976 26.6039C65.1464 26.6039 65.8952 27.1133 65.8952 28.1321C65.8952 29.0151 65.2485 29.6264 64.3635 29.6264Z" fill="white"/>
<path d="M67.1205 28.6755C67.1205 28.8114 67.0524 28.9812 66.9163 29.083H68.0395V27.1812H67.2907L67.1205 28.6755ZM66.1675 29.0491C66.4057 29.0491 66.4738 28.9132 66.5078 28.6415L66.7461 26.6378C67.3247 26.6378 68.0395 26.6378 68.6522 26.6378V29.0491H68.9585V30H68.4139V29.5925C67.7672 29.5925 67.2907 29.5925 66.644 29.5925V30H66.0654V29.0491H66.1675Z" fill="white"/>
<path d="M70.32 28.5736H71.1368L70.7284 27.5887L70.32 28.5736ZM70.1157 29.117L69.8775 29.5925H69.2308V29.4906L70.5582 26.6039H70.8645L72.226 29.4906V29.5925H71.5453L71.3411 29.117H70.1157Z" fill="white"/>
<path d="M74.8128 28.1321L75.2212 29.0151L74.8809 29.151L74.2342 28.1321L74.8809 27.1133L75.2212 27.2491L74.8128 28.1321ZM73.9619 28.1321L74.3703 29.0151L74.064 29.151L73.4173 28.1321L74.064 27.1133L74.3703 27.2491L73.9619 28.1321Z" fill="white"/>
<path d="M77.0592 26.6039C77.6719 26.6039 78.2846 26.9435 78.4207 27.6567H77.808C77.7059 27.317 77.4336 27.1812 77.0592 27.1812C76.5487 27.1812 76.2083 27.5548 76.2083 28.1321C76.2083 28.6415 76.5487 29.0491 77.0592 29.0491C77.4336 29.0491 77.74 28.8793 77.8421 28.5057H78.4547C78.3186 29.2868 77.6719 29.6264 77.0592 29.6264C76.3104 29.6264 75.5616 29.083 75.5616 28.1321C75.5616 27.1472 76.3104 26.6039 77.0592 26.6039Z" fill="white"/>
<path d="M79.5099 28.3699V29.0491H80.1906C80.4289 29.0491 80.531 28.9132 80.565 28.7095C80.565 28.6076 80.531 28.5057 80.4289 28.4378C80.3608 28.3699 80.2587 28.3699 80.1566 28.3699H79.5099ZM79.5099 27.1812V27.8604H80.0885C80.2927 27.8604 80.4289 27.7246 80.4289 27.5548C80.4289 27.3171 80.2927 27.1812 80.0885 27.1812H79.5099ZM80.7692 28.0642C81.0415 28.1661 81.1777 28.4038 81.1777 28.7095C81.1777 29.2529 80.8373 29.5925 80.2587 29.5925H78.8632V26.6378H80.1226C80.6671 26.6378 81.0415 26.9774 81.0415 27.5208C81.0415 27.7246 80.9394 27.9623 80.7692 28.0642Z" fill="white"/>
<path d="M83.4581 27.1812H82.3009V27.7925H83.3901V28.3359H82.3009V29.0151H83.4922V29.5925H81.6542V26.6378H83.4581V27.1812Z" fill="white"/>
<path d="M83.7985 27.1812V26.6378H85.9769V27.1812H85.194V29.5925H84.5814V27.1812H83.7985Z" fill="white"/>
<path d="M86.998 28.7434C86.9299 29.5245 86.6916 29.6943 85.9088 29.5925V29.117C86.2832 29.151 86.3513 29.0491 86.3853 28.7095L86.5895 26.6378C87.2022 26.6378 87.985 26.6378 88.5977 26.6378V29.5925H87.951V27.2152H87.1682L86.998 28.7434Z" fill="white"/>
<path d="M90.0272 28.5736H90.8441L90.4357 27.5887L90.0272 28.5736ZM89.789 29.117L89.5848 29.5925H88.904V29.4906L90.2655 26.6039H90.5718L91.9333 29.4906V29.5925H91.2526L91.0483 29.117H89.789Z" fill="white"/>
<path d="M94.0096 29.5925V28.3359H92.8863V29.5925H92.2396V26.6378H92.8863V27.7586H94.0096V26.6378H94.6562V29.5925H94.0096Z" fill="white"/>
<path d="M96.0518 28.5736H96.8686L96.4602 27.5887L96.0518 28.5736ZM95.8475 29.117L95.6433 29.5925H94.9626V29.4906L96.324 26.6039H96.6304L97.9578 29.4906V29.5925H97.3111L97.0729 29.117H95.8475Z" fill="white"/>
<path d="M98.9789 27.2491L99.3193 27.1133L99.966 28.1321L99.3193 29.151L98.9789 29.0151L99.3873 28.1321L98.9789 27.2491ZM98.162 27.2491L98.4684 27.1133L99.1151 28.1321L98.4684 29.151L98.162 29.0151L98.5705 28.1321L98.162 27.2491Z" fill="white"/>
<path d="M10.3472 5.27614H4.39074L3.30157 8.91H8.6113C8.40708 9.48735 8.27093 10.0987 8.20286 10.71H2.72294L1.63376 14.3099H8.20286C8.27093 14.9212 8.40708 15.5325 8.6113 16.1098H1.08918L0 19.7097H10.3472C11.9129 21.9172 14.1593 23.6153 16.9163 24.4643L17.9033 21.238C13.0701 19.7437 10.3472 14.6155 11.8448 9.82696C13.3424 5.00445 18.482 2.28754 23.3152 3.78184L24.3023 0.555516C18.9925 -1.07463 13.4105 0.997014 10.3472 5.27614Z" fill="white"/>
</svg>
