<svg width="44" height="40" viewBox="0 0 44 40" fill="none" xmlns="http://www.w3.org/2000/svg">
<path d="M37.1241 4.22297L35.5541 6.28031L35.0127 5.79305L34.4171 5.35992L33.226 4.60195L31.9266 3.95226L31.3311 3.62742L30.6814 3.35672L29.9776 3.14016L28.6782 2.70703L27.9744 2.54461L27.3247 2.38219L26.6209 2.27391L25.917 2.21977L25.2132 2.11148H23.1559L21.0444 2.27391L20.3947 2.43633L19.6909 2.54461L19.0412 2.76117L18.3373 2.92359L17.6877 3.14016L15.7386 3.95226L15.1431 4.27711L14.4934 4.65609L15.5762 2.70703L16.28 2.32805L16.9297 1.94906L17.5794 1.67836L18.2832 1.35352L18.9329 1.08281L20.3406 0.649687L21.7482 0.324844L23.1559 0.108281L24.5635 0H25.9712L27.3788 0.108281L28.7865 0.324844L29.4362 0.487266L30.14 0.649687L30.8438 0.86625L32.1432 1.29937L32.7929 1.57008L34.742 2.54461L35.3375 2.92359L37.1241 4.22297ZM39.1273 31.7805L38.9108 31.0767L39.2898 30.5353L39.7229 29.9398L40.1019 29.3442L40.4267 28.6945L40.8057 27.9907L41.1305 27.2327L41.4013 26.4748L41.672 25.6627L41.8885 24.7964L42.0509 23.9843L42.2134 23.118L42.3216 22.2518L42.3758 21.3855V19.5989L42.3216 18.7327L42.1592 17.8664L42.0509 17.0002L41.6178 15.2677L41.3471 14.4014L41.0223 13.5893L40.2643 11.9651L39.8312 11.153L39.3439 10.395L38.8025 9.63703L38.2611 8.9332L36.9617 7.52555L36.312 6.87586L35.5541 6.28031L37.1241 4.22297L37.828 4.81851L39.1815 6.17203L39.777 6.87586L40.3726 7.63383L40.914 8.3918L41.4013 9.14976L41.8344 9.96187L42.5923 11.5861L42.9172 12.4523L43.4586 14.1848L43.7834 15.9173L44 17.7581V19.5448L43.9459 20.4652L43.8376 21.3855L43.6752 22.3059L43.242 24.1467L42.5923 25.9875L42.1592 26.9079L41.7261 27.8824L41.1847 28.8569L39.8853 30.806L39.1273 31.7805ZM12.057 35.0831L13.573 33.0799L14.3309 33.6213L15.1431 34.1627L15.901 34.7041L16.7131 35.1373L17.5252 35.5162L18.3915 35.8952L19.2577 36.2201L20.124 36.4908L21.8565 36.9239L23.589 37.1405L24.5094 37.1946L25.3756 37.2487L26.296 37.1946L27.1623 37.1405L28.0285 37.0322L29.761 36.7073L30.6273 36.4366L31.4394 36.1659L33.0636 35.5162L33.8757 35.1373L34.6337 34.7041L36.7452 33.2423L37.3407 32.7009L38.4235 31.6181L38.9108 31.0767L39.1273 31.7805L38.3152 32.7009L37.5573 33.513L36.7452 34.271L35.9872 34.9748L35.1751 35.5704L33.5509 36.6532L32.7388 37.0863L31.8725 37.5194L31.0604 37.8984L30.1941 38.2233L29.3279 38.494L28.4075 38.7647L26.675 39.0895L25.7546 39.1978L24.8884 39.3061H23.0476L22.1813 39.2519L21.2609 39.1437L20.3947 38.9812L19.4743 38.8188L17.7418 38.2774L16.8756 37.9526L16.0634 37.5736L15.1972 37.1946L13.573 36.2201L12.815 35.6787L12.057 35.0831Z" fill="white" fill-opacity="0.9"/>
<path fill-rule="evenodd" clip-rule="evenodd" d="M8.97102 29.1818L14.4392 31.3474L13.0857 32.2678L13.8978 33.4589L12.1653 35.1373L10.9201 33.7837L9.72899 34.5959L8.97102 29.1818Z" fill="white" fill-opacity="0.9"/>
<path d="M14.3851 31.4016L8.91688 29.2359L9.02516 29.1276L14.4392 31.2933L14.3851 31.4016ZM14.4392 31.2933H14.4934L14.3851 31.4016L14.4392 31.2933ZM13.0857 32.2137L14.4392 31.2933L14.3851 31.4016L13.0316 32.3219L13.0857 32.2137ZM13.0316 32.3219V32.2678L13.0857 32.2137L13.0316 32.3219ZM13.8437 33.513L13.0316 32.3219L13.0857 32.2137L13.952 33.4048L13.8978 33.513H13.8437ZM12.1653 35.1373L13.8978 33.4048V33.513L12.1653 35.1914V35.1373ZM10.9742 33.7296L12.2195 35.0831L12.1653 35.1914L10.9201 33.8379L10.9742 33.7296ZM9.72899 34.5417L10.9742 33.7296L10.9201 33.8379L9.67485 34.5959L9.72899 34.5417ZM9.02516 29.1276L9.72899 34.5417L9.67485 34.5959L8.91688 29.2359L9.02516 29.1276ZM8.91688 29.2359V29.0735L9.02516 29.1276L8.91688 29.2359Z" fill="white" fill-opacity="0.9"/>
<path d="M8.68044 18.8494V21.1495H0C0.0940014 20.28 0.376005 19.4575 0.846012 18.682C1.31602 17.9006 2.24428 16.8666 3.6308 15.58C4.74707 14.5401 5.43152 13.8351 5.68414 13.4649C6.0249 12.9538 6.19528 12.4485 6.19528 11.9492C6.19528 11.3969 6.04546 10.9739 5.74583 10.6801C5.45208 10.3805 5.04376 10.2307 4.52088 10.2307C4.00387 10.2307 3.59261 10.3864 3.28711 10.6978C2.98161 11.0091 2.80535 11.5262 2.75835 12.2488L0.290817 12.002C0.437694 10.639 0.898888 9.66081 1.6744 9.06743C2.44991 8.47405 3.4193 8.17735 4.58257 8.17735C5.85746 8.17735 6.85916 8.52105 7.58767 9.20843C8.31618 9.89582 8.68044 10.7506 8.68044 11.7729C8.68044 12.3545 8.57469 12.9097 8.36318 13.4385C8.15756 13.9614 7.82855 14.5107 7.37617 15.0865C7.07654 15.4683 6.53603 16.0177 5.75465 16.7344C4.97326 17.4512 4.47681 17.9271 4.26531 18.1621C4.05968 18.3971 3.89224 18.6262 3.76299 18.8494H8.68044Z" fill="white" fill-opacity="0.9"/>
<path d="M15.2194 21.1495V18.5498H9.93183V16.3819L15.5367 8.17735H17.6164V16.3731H19.2203V18.5498H17.6164V21.1495H15.2194ZM15.2194 16.3731V11.958L12.2496 16.3731H15.2194Z" fill="white" fill-opacity="0.9"/>
<path d="M29.3908 19.5856V17.2855H37.8597V19.0833C37.1606 19.7707 36.4497 20.7577 35.727 22.0444C35.0044 23.331 34.4521 24.6999 34.0703 26.151C33.6943 27.5963 33.5092 28.8888 33.5151 30.0286H31.1269C31.168 28.2426 31.5352 26.4213 32.2284 24.5648C32.9276 22.7082 33.8588 21.0485 35.022 19.5856H29.3908Z" fill="white" fill-opacity="0.9"/>
<path d="M24.347 20.8441C25.244 20.8441 25.9712 20.1412 25.9712 19.2741C25.9712 18.4069 25.244 17.704 24.347 17.704C23.4499 17.704 22.7227 18.4069 22.7227 19.2741C22.7227 20.1412 23.4499 20.8441 24.347 20.8441Z" fill="white" fill-opacity="0.9"/>
<path d="M24.0731 22.2357L21.9492 20.909L17.9692 27.2808L20.0931 28.6074L24.0731 22.2357Z" fill="white" fill-opacity="0.9"/>
<path d="M33.0729 7.18892L30.9219 5.90674L24.7882 16.1969L26.9392 17.4791L33.0729 7.18892Z" fill="white" fill-opacity="0.9"/>
</svg>
