<svg width="31" height="30" viewBox="0 0 31 30" fill="none" xmlns="http://www.w3.org/2000/svg">
<g clip-path="url(#clip0)">
<path d="M20.2705 7.98155H11.3291C9.90196 7.98155 8.74084 9.14267 8.74084 10.5698V19.5112C8.74084 20.9384 9.90196 22.0998 11.3291 22.0998H20.2705C21.6977 22.0998 22.8591 20.9387 22.8591 19.5112V10.5698C22.8591 9.14267 21.698 7.98155 20.2705 7.98155ZM15.7998 19.6884C13.2373 19.6884 11.1523 17.6034 11.1523 15.0405C11.1523 12.478 13.2373 10.393 15.7998 10.393C18.3627 10.393 20.4477 12.478 20.4477 15.0405C20.4477 17.6031 18.3624 19.6884 15.7998 19.6884ZM20.5971 11.354C19.9904 11.354 19.4971 10.8606 19.4971 10.2543C19.4971 9.64803 19.9904 9.1547 20.5971 9.1547C21.2034 9.1547 21.6967 9.64803 21.6967 10.2543C21.6967 10.8606 21.2034 11.354 20.5971 11.354Z" fill="white"/>
<path d="M15.7998 12.3571C14.3205 12.3571 13.1159 13.561 13.1159 15.0403C13.1159 16.5202 14.3205 17.7245 15.7998 17.7245C17.2798 17.7245 18.4834 16.5202 18.4834 15.0403C18.4834 13.5613 17.2795 12.3571 15.7998 12.3571Z" fill="white"/>
<path d="M15.7998 0C7.51586 0 0.799805 6.71606 0.799805 15C0.799805 23.2839 7.51586 30 15.7998 30C24.0837 30 30.7998 23.2839 30.7998 15C30.7998 6.71606 24.0837 0 15.7998 0ZM24.8227 19.5111C24.8227 22.0215 22.7809 24.0634 20.2705 24.0634H11.3291C8.81903 24.0634 6.77688 22.0215 6.77688 19.5111V10.5698C6.77688 8.05967 8.81903 6.01751 11.3291 6.01751H20.2705C22.7809 6.01751 24.8227 8.05967 24.8227 10.5698V19.5111Z" fill="white"/>
</g>
<defs>
<clipPath id="clip0">
<rect x="0.799805" width="30" height="30" fill="white"/>
</clipPath>
</defs>
</svg>
