<svg width="195" height="59" viewBox="0 0 195 59" fill="none" xmlns="http://www.w3.org/2000/svg">
<path d="M117.013 30.2214C116.283 37.5401 113.827 39.1884 106.46 38.1335L106.593 33.8477C109.978 34.1774 110.642 33.1225 110.973 30.0236L113.097 10.3093C118.938 10.3093 126.305 10.3093 132.013 10.3093V38.2653H126.04V15.6499H118.341L117.013 30.2214Z" fill="#2A4472"/>
<path d="M146.681 29.4961C146.549 30.7488 146.018 32.5291 144.823 33.3203H155.376V15.4521H148.208L146.681 29.4961ZM137.522 33.1884C139.912 33.1884 140.442 31.9357 140.774 29.2983L142.965 10.3093C148.673 10.3093 155.509 10.3093 161.283 10.3093V33.1884H164.27V42.2214H158.894V38.2653C152.854 38.2653 148.274 38.2653 142.235 38.2653V42.2214H136.593V33.1884H137.522Z" fill="#2A4472"/>
<path d="M169.381 38.2653V10.3093H175.42V32.8587H185.509V10.3093H191.615V33.1884H195V41.8917H189.624V38.2653H169.381Z" fill="#2A4472"/>
<path d="M106.659 53.1005C106.593 52.0455 107.456 51.584 108.451 51.584C109.646 51.584 110.376 52.3093 110.376 53.2324C110.376 53.6939 110.111 54.0895 109.712 54.3532C110.376 54.617 110.708 55.0785 110.708 55.8038C110.708 56.8587 109.912 57.584 108.451 57.584C107.257 57.584 106.394 56.9247 106.394 55.6719H107.522C107.522 56.1994 107.92 56.5291 108.451 56.5291C109.115 56.5291 109.447 56.1994 109.447 55.7379C109.447 55.2763 109.049 54.8807 108.451 54.8807H108.053V53.8917H108.451C108.916 53.8917 109.248 53.628 109.248 53.2324C109.248 52.8368 108.85 52.573 108.451 52.573C108.119 52.573 107.721 52.7708 107.721 53.1005H106.659Z" fill="#2A4472"/>
<path d="M113.097 55.4741H114.69L113.894 53.562L113.097 55.4741ZM112.699 56.5291L112.235 57.4521H110.973V57.2543L113.628 51.6499H114.159L116.814 57.2543V57.4521H115.553L115.089 56.5291H112.699Z" fill="#2A4472"/>
<path d="M118.673 55.0785V56.3972H120.066C120.465 56.3972 120.73 56.1335 120.73 55.7379C120.73 55.5401 120.664 55.3423 120.465 55.2104C120.332 55.0785 120.199 55.0785 120 55.0785H118.673ZM118.673 52.7708V54.0895H119.801C120.199 54.0895 120.465 53.8258 120.531 53.4961C120.531 53.0346 120.266 52.7708 119.801 52.7708H118.673ZM121.128 54.4851C121.659 54.6829 121.925 55.1445 121.925 55.7379C121.925 56.7928 121.261 57.4521 120.133 57.4521H117.478V51.7159H119.867C120.929 51.7159 121.726 52.3752 121.726 53.4302C121.726 53.8258 121.527 54.2873 121.128 54.4851Z" fill="#2A4472"/>
<path d="M125.509 56.3972C126.438 56.3972 127.235 55.8697 127.235 54.617C127.235 53.3642 126.438 52.7708 125.575 52.7708C124.646 52.7708 123.85 53.3642 123.85 54.617C123.85 55.8697 124.646 56.3972 125.509 56.3972ZM125.509 57.5181C123.982 57.5181 122.588 56.5291 122.588 54.617C122.588 52.6389 123.982 51.6499 125.575 51.6499C127.035 51.6499 128.496 52.6389 128.496 54.617C128.496 56.3312 127.235 57.5181 125.509 57.5181Z" fill="#2A4472"/>
<path d="M130.885 55.6719C130.885 55.9357 130.752 56.2653 130.487 56.4631H132.677V52.7708H131.217L130.885 55.6719ZM129.027 56.3972C129.491 56.3972 129.624 56.1335 129.69 55.606L130.155 51.7159C131.283 51.7159 132.677 51.7159 133.872 51.7159V56.3972H134.469V58.2434H133.407V57.4521C132.146 57.4521 131.217 57.4521 129.956 57.4521V58.2434H128.827V56.3972H129.027Z" fill="#2A4472"/>
<path d="M137.124 55.4741H138.717L137.92 53.562L137.124 55.4741ZM136.726 56.5291L136.261 57.4521H135V57.2543L137.589 51.6499H138.186L140.841 57.2543V57.4521H139.513L139.115 56.5291H136.726Z" fill="#2A4472"/>
<path d="M145.885 54.617L146.681 56.3313L146.018 56.595L144.757 54.617L146.018 52.639L146.681 52.9027L145.885 54.617ZM144.226 54.617L145.022 56.3313L144.425 56.595L143.164 54.617L144.425 52.639L145.022 52.9027L144.226 54.617Z" fill="#2A4472"/>
<path d="M150.266 51.6499C151.46 51.6499 152.655 52.3093 152.92 53.6939H151.726C151.527 53.0345 150.996 52.7708 150.266 52.7708C149.27 52.7708 148.606 53.4961 148.606 54.617C148.606 55.606 149.27 56.3972 150.266 56.3972C150.996 56.3972 151.593 56.0675 151.792 55.3422H152.987C152.721 56.8587 151.46 57.5181 150.266 57.5181C148.805 57.5181 147.345 56.4631 147.345 54.617C147.345 52.7049 148.805 51.6499 150.266 51.6499Z" fill="#2A4472"/>
<path d="M155.044 55.0785V56.3972H156.372C156.836 56.3972 157.035 56.1335 157.102 55.7379C157.102 55.5401 157.035 55.3423 156.836 55.2104C156.704 55.0785 156.504 55.0785 156.305 55.0785H155.044ZM155.044 52.7708V54.0895H156.173C156.571 54.0895 156.836 53.8258 156.836 53.4961C156.836 53.0346 156.571 52.7708 156.173 52.7708H155.044ZM157.5 54.4851C158.031 54.6829 158.296 55.1445 158.296 55.7379C158.296 56.7928 157.633 57.4521 156.504 57.4521H153.783V51.7159H156.239C157.301 51.7159 158.031 52.3752 158.031 53.4302C158.031 53.8258 157.832 54.2873 157.5 54.4851Z" fill="#2A4472"/>
<path d="M162.743 52.7708H160.487V53.9576H162.611V55.0126H160.487V56.3313H162.81V57.4521H159.226V51.7159H162.743V52.7708Z" fill="#2A4472"/>
<path d="M163.407 52.7708V51.7159H167.655V52.7708H166.128V57.4521H164.934V52.7708H163.407Z" fill="#2A4472"/>
<path d="M169.646 55.8038C169.513 57.3203 169.049 57.6499 167.522 57.4521V56.5291C168.252 56.595 168.385 56.3972 168.451 55.7379L168.85 51.7159C170.044 51.7159 171.571 51.7159 172.765 51.7159V57.4521H171.504V52.8368H169.978L169.646 55.8038Z" fill="#2A4472"/>
<path d="M175.553 55.4741H177.146L176.35 53.562L175.553 55.4741ZM175.089 56.5291L174.69 57.4521H173.363V57.2543L176.018 51.6499H176.615L179.27 57.2543V57.4521H177.942L177.544 56.5291H175.089Z" fill="#2A4472"/>
<path d="M183.319 57.4521V55.0126H181.128V57.4521H179.867V51.7159H181.128V53.8917H183.319V51.7159H184.58V57.4521H183.319Z" fill="#2A4472"/>
<path d="M187.301 55.4741H188.894L188.097 53.562L187.301 55.4741ZM186.903 56.5291L186.504 57.4521H185.177V57.2543L187.832 51.6499H188.429L191.018 57.2543V57.4521H189.757L189.292 56.5291H186.903Z" fill="#2A4472"/>
<path d="M193.009 52.9027L193.673 52.639L194.934 54.617L193.673 56.595L193.009 56.3313L193.805 54.617L193.009 52.9027ZM191.416 52.9027L192.013 52.639L193.274 54.617L192.013 56.595L191.416 56.3313L192.212 54.617L191.416 52.9027Z" fill="#2A4472"/>
<path d="M20.177 10.2433H8.56195L6.43805 17.2983H16.792C16.3938 18.4192 16.1283 19.606 15.9956 20.7928H5.30974L3.18584 27.7818H15.9956C16.1283 28.9686 16.3938 30.1554 16.792 31.2763H2.12389L0 38.2653H20.177C23.2301 42.551 27.6106 45.8477 32.9867 47.4961L34.9115 41.2324C25.4867 38.3313 20.177 28.3752 23.0973 19.0785C26.0177 9.71587 36.0398 4.44114 45.4646 7.34224L47.3894 1.0785C37.0354 -2.08633 26.1504 1.93565 20.177 10.2433Z" fill="#2A4472"/>
<path d="M43.5332 20.7929V13.738H36.5202V20.7929H29.5073V27.7819H36.5202V34.7709H43.5332V27.7819H50.6123V20.7929H43.5332Z" fill="#E84E2C"/>
<path d="M78.0024 17.2984L80.1195 10.2434H59.9408C56.9636 6.02367 52.5971 2.72696 47.2381 1.07861L45.3195 7.34235C54.7142 10.1775 59.9408 20.1336 57.0959 29.4962C54.1849 38.8588 44.1948 44.1335 34.8001 41.2324L32.8815 47.4962C43.2024 50.661 54.0526 46.639 60.0069 38.2654H71.5849L73.6358 31.2764H63.3811C63.778 30.0896 64.0427 28.9687 64.175 27.7819H74.8267L76.8777 20.7929H64.175C63.9765 19.6061 63.7119 18.4193 63.3811 17.2984H78.0024Z" fill="#E84E2C"/>
</svg>
