<svg width="12" height="12" viewBox="0 0 12 12" fill="none" xmlns="http://www.w3.org/2000/svg">
<path opacity="0.5" d="M5.27353 9.22842C6.32243 9.22842 7.32838 8.81174 8.07007 8.07006C8.81175 7.32837 9.22843 6.32243 9.22843 5.27352C9.22843 4.22462 8.81175 3.21868 8.07007 2.47699C7.32838 1.7353 6.32243 1.31863 5.27353 1.31863C4.22463 1.31863 3.21868 1.7353 2.47699 2.47699C1.73531 3.21868 1.31863 4.22462 1.31863 5.27352C1.31863 6.32243 1.73531 7.32837 2.47699 8.07006C3.21868 8.81174 4.22463 9.22842 5.27353 9.22842ZM9.43936 8.50731L11.7991 10.8671C11.862 10.9279 11.9122 11.0007 11.9467 11.0811C11.9812 11.1616 11.9993 11.2481 12 11.3356C12.0007 11.4231 11.9839 11.5099 11.9507 11.5909C11.9175 11.6719 11.8685 11.7454 11.8066 11.8073C11.7447 11.8691 11.6711 11.918 11.59 11.9511C11.509 11.9842 11.4222 12.0008 11.3347 12C11.2471 11.9991 11.1607 11.9809 11.0803 11.9463C10.9999 11.9117 10.9272 11.8614 10.8664 11.7984L8.50666 9.43869C7.44705 10.2612 6.11381 10.649 4.77835 10.5231C3.44288 10.3972 2.20559 9.76715 1.31834 8.76112C0.431084 7.75509 -0.0394251 6.44875 0.00258981 5.10803C0.0446047 3.7673 0.595985 2.49298 1.54449 1.54448C2.49299 0.595984 3.76731 0.0446047 5.10803 0.00258981C6.44876 -0.0394251 7.7551 0.431083 8.76113 1.31833C9.76716 2.20558 10.3972 3.44288 10.5231 4.77834C10.649 6.1138 10.2612 7.44704 9.4387 8.50665L9.43936 8.50731Z" fill="white"/>
</svg>
