<svg width="29" height="30" viewBox="0 0 29 30" fill="none" xmlns="http://www.w3.org/2000/svg">
<g clip-path="url(#clip0)">
<path d="M14.4 30C22.3529 30 28.8 23.2843 28.8 15C28.8 6.71573 22.3529 0 14.4 0C6.4471 0 0 6.71573 0 15C0 23.2843 6.4471 30 14.4 30Z" fill="white"/>
<path fill-rule="evenodd" clip-rule="evenodd" d="M13.8561 21.579H14.9863C14.9863 21.579 15.3277 21.5399 15.502 21.3442C15.6624 21.1645 15.6573 20.8271 15.6573 20.8271C15.6573 20.8271 15.6352 19.2473 16.3391 19.0147C17.0329 18.7855 17.9239 20.5415 18.8683 21.2167C19.5824 21.7276 20.1251 21.6156 20.1251 21.6156L22.6502 21.579C22.6502 21.579 23.9711 21.4942 23.3448 20.4123C23.2934 20.3238 22.98 19.612 21.4673 18.1494C19.884 16.6186 20.0961 16.8662 22.0033 14.2183C23.1648 12.6056 23.6292 11.6211 23.4841 11.1994C23.3458 10.7978 22.4915 10.904 22.4915 10.904L19.6484 10.9224C19.6484 10.9224 19.4376 10.8925 19.2813 10.9898C19.1286 11.0853 19.0303 11.3077 19.0303 11.3077C19.0303 11.3077 18.5803 12.5556 17.9801 13.6169C16.7141 15.8563 16.2079 15.9745 16.001 15.8354C15.5197 15.5114 15.6398 14.5335 15.6398 13.8388C15.6398 11.6687 15.9558 10.7639 15.0246 10.5296C14.7155 10.4518 14.4881 10.4005 13.6977 10.3922C12.6833 10.3812 11.8246 10.3954 11.3384 10.6435C11.015 10.8085 10.7655 11.1762 10.9175 11.1973C11.1054 11.2235 11.531 11.3168 11.7566 11.6369C12.0479 12.0497 12.0377 12.9771 12.0377 12.9771C12.0377 12.9771 12.205 15.5317 11.6467 15.8491C11.2635 16.0667 10.7378 15.6223 9.60909 13.5907C9.03076 12.55 8.59412 11.3997 8.59412 11.3997C8.59412 11.3997 8.50992 11.1847 8.35976 11.0698C8.17751 10.9305 7.92287 10.8861 7.92287 10.8861L5.22117 10.9045C5.22117 10.9045 4.81559 10.9163 4.66671 11.1C4.53425 11.2634 4.65618 11.6013 4.65618 11.6013C4.65618 11.6013 6.77134 16.7561 9.16629 19.3538C11.3623 21.7354 13.8561 21.579 13.8561 21.579Z" fill="#2A4472"/>
</g>
<defs>
<clipPath id="clip0">
<rect width="28.8" height="30" fill="white"/>
</clipPath>
</defs>
</svg>
