<?xml version="1.0" encoding="UTF-8" standalone="no"?>
<!DOCTYPE svg PUBLIC "-//W3C//DTD SVG 1.1//EN" "http://www.w3.org/Graphics/SVG/1.1/DTD/svg11.dtd">
<svg version="1.1" xmlns="http://www.w3.org/2000/svg" xmlns:xlink="http://www.w3.org/1999/xlink" preserveAspectRatio="xMinYMin meet" viewBox="-1 -1.0000017221863429 84.1195 52.573873438975774" width="80.12" height="48.57"><defs><path d="M8.56 10.24L6.44 17.3C12.65 17.3 16.1 17.3 16.79 17.3C16.39 18.42 16.13 19.61 16 20.79C15.28 20.79 11.72 20.79 5.31 20.79L3.19 27.78C10.87 27.78 15.14 27.78 16 27.78C16.13 28.97 16.39 30.16 16.79 31.28C15.81 31.28 10.92 31.28 2.12 31.28L0 38.27C12.11 38.27 18.83 38.27 20.18 38.27C23.23 42.55 27.61 45.85 32.99 47.5C33.18 46.87 34.72 41.86 34.91 41.23C25.49 38.33 20.18 28.38 23.1 19.08C26.02 9.72 36.04 4.44 45.46 7.34C45.66 6.72 47.2 1.7 47.39 1.08C37.04 -2.09 26.15 1.94 20.18 10.24C18.63 10.24 14.76 10.24 8.56 10.24Z" id="j1VO4f6Wyh"></path><path d="M43.53 13.74L36.52 13.74L36.52 20.79L29.51 20.79L29.51 27.78L36.52 27.78L36.52 34.77L43.53 34.77L43.53 27.78L50.61 27.78L50.61 20.79L43.53 20.79L43.53 13.74Z" id="boXGfA5ME"></path><path d="M80.12 10.24C68.01 10.24 61.29 10.24 59.94 10.24C56.96 6.02 52.6 2.73 47.24 1.08C47.05 1.7 45.51 6.72 45.32 7.34C54.71 10.18 59.94 20.13 57.1 29.5C54.18 38.86 44.19 44.13 34.8 41.23C34.61 41.86 33.07 46.87 32.88 47.5C43.2 50.66 54.05 46.64 60.01 38.27C60.78 38.27 64.64 38.27 71.58 38.27L73.64 31.28C67.48 31.28 64.06 31.28 63.38 31.28C63.78 30.09 64.04 28.97 64.18 27.78C64.89 27.78 68.44 27.78 74.83 27.78L76.88 20.79C69.26 20.79 65.02 20.79 64.18 20.79C63.98 19.61 63.71 18.42 63.38 17.3C64.36 17.3 69.23 17.3 78 17.3L80.12 10.24Z" id="a3nEK6bR"></path></defs><g><g><use xlink:href="#j1VO4f6Wyh" opacity="1" fill="#ffffff" fill-opacity="1"></use><g><use xlink:href="#j1VO4f6Wyh" opacity="1" fill-opacity="0" stroke="#000000" stroke-width="1" stroke-opacity="0"></use></g></g><g><use xlink:href="#boXGfA5ME" opacity="1" fill="#ffffff" fill-opacity="1"></use><g><use xlink:href="#boXGfA5ME" opacity="1" fill-opacity="0" stroke="#000000" stroke-width="1" stroke-opacity="0"></use></g></g><g><use xlink:href="#a3nEK6bR" opacity="1" fill="#ffffff" fill-opacity="1"></use><g><use xlink:href="#a3nEK6bR" opacity="1" fill-opacity="0" stroke="#000000" stroke-width="1" stroke-opacity="0"></use></g></g></g></svg>