<svg width="36" height="30" viewBox="0 0 36 30" fill="none" xmlns="http://www.w3.org/2000/svg">
<path d="M21.1 25.6299H18.4207C18.0394 25.6299 17.7302 25.939 17.7302 26.3204C17.7302 26.7018 18.0394 27.0109 18.4207 27.0109H21.1C21.5135 27.0109 21.8499 27.3473 21.8499 27.7608C21.8499 28.1743 21.5136 28.5106 21.1 28.5106H13.8876C12.8034 28.5106 11.7839 28.0326 11.0906 27.1992L9.3658 25.126C8.44033 24.0135 7.09341 23.362 5.65223 23.3207V19.2419H8.19456C9.44832 19.2419 10.6355 19.7214 11.5374 20.592L15.26 24.1853C15.5232 24.4394 15.5355 24.8647 15.2873 25.1335C15.0345 25.4074 14.6052 25.4253 14.3305 25.1734L11.4078 22.4944C11.1268 22.2367 10.69 22.2556 10.4324 22.5368C10.1746 22.8179 10.1936 23.2547 10.4748 23.5123L13.3974 26.1914C13.7915 26.5527 14.2903 26.7311 14.7879 26.7311C15.3433 26.7311 15.8972 26.5087 16.3021 26.0701C17.0552 25.2542 17.018 23.963 16.2191 23.1918L12.4965 19.5985C11.3357 18.4781 9.80796 17.861 8.19456 17.861H5.51812C5.25834 17.2461 4.64907 16.8135 3.9407 16.8135H0.690482C0.30916 16.8135 0 17.1226 0 17.504V22.5531C0 22.9344 0.30916 23.2435 0.690482 23.2435C1.0718 23.2435 1.38096 22.9344 1.38096 22.5531V18.1944H3.94077C4.12307 18.1944 4.27133 18.3427 4.27133 18.5249V24.0592C4.27133 24.2415 4.12307 24.3898 3.94077 24.3898H3.22363C2.84231 24.3898 2.53315 24.6989 2.53315 25.0803C2.53315 25.4616 2.84231 25.7707 3.22363 25.7707H3.9407C4.65859 25.7707 5.27422 25.3263 5.528 24.6983C6.60443 24.7044 7.61533 25.1811 8.30422 26.0092L10.029 28.0824C10.9856 29.2322 12.3919 29.8916 13.8876 29.8916H21.1C22.2749 29.8916 23.2308 28.9358 23.2308 27.7608C23.2308 26.5858 22.2749 25.6299 21.1 25.6299Z" fill="#E84E2C"/>
<path d="M34.6634 6.37834C34.2821 6.37834 33.9729 6.68743 33.9729 7.06882V11.6972H31.4131C31.2308 11.6972 31.0825 11.5489 31.0825 11.3667V5.83239C31.0825 5.65016 31.2308 5.50183 31.4131 5.50183H32.0796C32.4609 5.50183 32.77 5.19273 32.77 4.81134C32.77 4.43002 32.4609 4.12086 32.0796 4.12086H31.4131C30.6952 4.12086 30.0796 4.5653 29.8258 5.19336C28.7494 5.18721 27.7385 4.71052 27.0496 3.88241L25.3248 1.80931C24.3683 0.659476 22.9619 0 21.4661 0H14.2539C13.079 0 12.123 0.955861 12.123 2.13076C12.123 3.30567 13.079 4.26153 14.2539 4.26153H17.2031C17.5844 4.26153 17.8936 3.95244 17.8936 3.57105C17.8936 3.18965 17.5844 2.88056 17.2031 2.88056H14.2539C13.8404 2.88056 13.5039 2.5442 13.5039 2.13069C13.5039 1.71726 13.8403 1.38083 14.2539 1.38083H21.4662C22.5504 1.38083 23.57 1.85882 24.2633 2.69232L25.9881 4.76542C26.9135 5.8779 28.2605 6.52943 29.7016 6.57073V10.6496H27.1593C25.9055 10.6496 24.7184 10.1701 23.8165 9.29944L20.0939 5.70616C19.8307 5.45211 19.8184 5.0268 20.0665 4.75796C20.3194 4.48402 20.7486 4.46621 21.0234 4.71805L23.9461 7.39711C24.2272 7.65476 24.6639 7.63583 24.9216 7.35471C25.1793 7.07359 25.1603 6.63681 24.8792 6.37917L21.9565 3.70018C21.1223 2.93553 19.8194 2.99002 19.0518 3.82144C18.2986 4.63739 18.3359 5.92859 19.1348 6.69972L22.8574 10.293C24.0181 11.4135 25.5459 12.0306 27.1593 12.0306H29.8357C30.0955 12.6454 30.7048 13.0781 31.4132 13.0781H34.6635C35.0448 13.0781 35.3539 12.769 35.3539 12.3876V7.06869C35.3539 6.68743 35.0447 6.37834 34.6634 6.37834Z" fill="#E84E2C"/>
<path d="M22.2941 23.484C22.1371 23.1365 21.729 22.9815 21.3818 23.1384C21.0321 23.2907 20.8721 23.6976 21.0244 24.0471C21.1375 24.307 21.3914 24.4621 21.6578 24.4621C21.7498 24.4621 21.8433 24.4436 21.9331 24.4045C21.936 24.4032 21.9451 24.3992 21.948 24.3979C22.2955 24.241 22.4511 23.8315 22.2941 23.484Z" fill="#E84E2C"/>
<path d="M24.0089 22.3214C23.7832 22.0148 23.3493 21.951 23.0424 22.1757C22.7347 22.401 22.6679 22.8331 22.8931 23.1407C23.0284 23.3254 23.2381 23.4233 23.4508 23.4233C23.5923 23.4233 23.7352 23.38 23.8581 23.29C23.8592 23.2892 23.8657 23.2844 23.8668 23.2836C24.1726 23.0571 24.2346 22.6279 24.0089 22.3214Z" fill="#E84E2C"/>
<path d="M20.3622 24.2591C20.2835 23.8873 19.9184 23.6492 19.5462 23.7261C19.1744 23.7999 18.9314 24.1601 19.0026 24.5329C19.0659 24.8637 19.3553 25.0939 19.6801 25.0939C19.723 25.0939 19.7667 25.0898 19.8104 25.0815C19.8149 25.0806 19.8263 25.0783 19.8308 25.0773C20.2037 24.9982 20.4411 24.6321 20.3622 24.2591Z" fill="#E84E2C"/>
<path d="M25.4543 20.8196C25.1712 20.5642 24.7347 20.5867 24.4792 20.8699C24.4758 20.8737 24.4679 20.8826 24.4646 20.8864C24.2154 21.1752 24.2476 21.6112 24.5363 21.8603C24.6668 21.9728 24.8273 22.0279 24.987 22.0279C25.1787 22.0279 25.3694 21.9485 25.5057 21.7935C25.76 21.5103 25.7371 21.0746 25.4543 20.8196ZM25.0687 21.4018L24.992 21.3323L25.0751 21.4073L25.0687 21.4018Z" fill="#E84E2C"/>
<path d="M27.2107 17.0777C26.8458 16.967 26.4598 17.1752 26.3491 17.5402C26.2369 17.9046 26.4415 18.291 26.8059 18.4031C26.8736 18.424 26.9419 18.4339 27.0092 18.4339C27.3043 18.4339 27.5776 18.2431 27.6689 17.9463L27.6718 17.9368C27.7824 17.5719 27.5756 17.1883 27.2107 17.0777Z" fill="#E84E2C"/>
<path d="M28.094 13.5141C28.0925 13.5053 28.0908 13.4965 28.089 13.4877C28.011 13.1146 27.6453 12.8758 27.2722 12.9537C26.9005 13.0312 26.6615 13.3947 26.7364 13.7663C26.7997 14.0958 27.0884 14.3263 27.4135 14.3263C27.4539 14.3263 27.4949 14.3228 27.536 14.3154C27.9114 14.2482 28.1612 13.8894 28.094 13.5141Z" fill="#E84E2C"/>
<path d="M27.4606 15.0121C27.082 14.9787 26.7457 15.2594 26.7122 15.6392C26.7116 15.6459 26.7106 15.6595 26.7102 15.6662C26.6878 16.0469 26.9782 16.3737 27.3589 16.396C27.3727 16.3969 27.3864 16.3973 27.4001 16.3973C27.7596 16.3973 28.0617 16.1193 28.0881 15.7572C28.1196 15.3788 27.8394 15.0455 27.4606 15.0121Z" fill="#E84E2C"/>
<path d="M26.5328 19.0423C26.2013 18.8544 25.7797 18.9709 25.5917 19.3027L25.5821 19.3199C25.4003 19.6551 25.523 20.0773 25.8581 20.2591C25.9636 20.3163 26.077 20.3434 26.1888 20.3434C26.4325 20.3434 26.6679 20.2141 26.7926 19.9843L26.1923 19.643L26.793 19.9835C26.9811 19.6517 26.8646 19.2304 26.5328 19.0423Z" fill="#E84E2C"/>
<path d="M14.0111 5.89265C13.8406 5.55152 13.4256 5.4132 13.0848 5.58383L13.0786 5.58687C12.7375 5.75744 12.6024 6.1706 12.7729 6.51166C12.8937 6.75328 13.1384 6.89236 13.3921 6.89236C13.4967 6.89236 13.6028 6.86874 13.7023 6.81902C14.0434 6.64853 14.1816 6.23378 14.0111 5.89265Z" fill="#E84E2C"/>
<path d="M16.0064 5.31687C15.9166 4.94639 15.5438 4.71864 15.1727 4.80855C15.1695 4.80931 15.1597 4.8118 15.1565 4.81263C14.7872 4.90779 14.5635 5.28462 14.6586 5.65386C14.7389 5.96543 15.0184 6.17253 15.3256 6.17253C15.3825 6.17253 15.4404 6.16542 15.4981 6.15057C15.8687 6.06073 16.0963 5.68749 16.0064 5.31687Z" fill="#E84E2C"/>
<path d="M12.1862 6.88829C11.9474 6.59156 11.5127 6.54495 11.2156 6.78319L11.6437 7.32492L11.2135 6.78478C10.9152 7.02233 10.866 7.45668 11.1034 7.755C11.2399 7.92626 11.441 8.01541 11.6441 8.01541C11.7948 8.01541 11.9467 7.96624 12.0738 7.86507L12.0829 7.85775C12.3792 7.61848 12.425 7.18502 12.1862 6.88829Z" fill="#E84E2C"/>
<path d="M8.50485 11.8011C8.13692 11.7008 7.7574 11.9176 7.65706 12.2855C7.65533 12.2918 7.65202 12.3049 7.65043 12.3112C7.56066 12.6817 7.78826 13.0542 8.15867 13.1442C8.21337 13.1575 8.26806 13.1638 8.32192 13.1638C8.6317 13.1638 8.91317 12.9536 8.99162 12.6403C9.08629 12.2752 8.86994 11.9007 8.50485 11.8011Z" fill="#E84E2C"/>
<path d="M8.06475 13.8297C7.68309 13.8085 7.35756 14.0985 7.33546 14.4791C7.33491 14.488 7.33456 14.4968 7.33429 14.5057C7.3231 14.8867 7.62287 15.2041 8.00391 15.2155C8.01096 15.2157 8.01786 15.2158 8.02484 15.2158C8.39497 15.2158 8.70082 14.9222 8.71449 14.5504C8.73176 14.1734 8.44255 13.8517 8.06475 13.8297Z" fill="#E84E2C"/>
<path d="M9.37381 9.91415C9.03606 9.73696 8.61876 9.86713 8.44163 10.2048L8.43037 10.227C8.26209 10.5691 8.40324 10.9822 8.7452 11.1506C8.84312 11.1989 8.94691 11.2216 9.04932 11.2216C9.30289 11.2216 9.547 11.0813 9.66798 10.8396C9.83993 10.5031 9.70928 10.0902 9.37381 9.91415Z" fill="#E84E2C"/>
<path d="M10.622 8.25272C10.3286 8.00916 9.89325 8.04956 9.64969 8.34291C9.64637 8.34698 9.63878 8.35637 9.63546 8.36045C9.39874 8.65925 9.44936 9.09278 9.74802 9.32964C9.87481 9.43025 10.026 9.479 10.1763 9.479C10.3788 9.479 10.5797 9.39034 10.716 9.22032C10.9552 8.92705 10.9138 8.49504 10.622 8.25272Z" fill="#E84E2C"/>
<path d="M8.84683 16.4669C8.77964 16.0915 8.42063 15.8418 8.04545 15.909C7.67007 15.9763 7.42029 16.335 7.48748 16.7104L7.48873 16.7172C7.54853 17.0509 7.83835 17.2827 8.16574 17.2827C8.20656 17.2827 8.24792 17.2791 8.28949 17.2717C8.66487 17.2045 8.91409 16.8423 8.84683 16.4669Z" fill="#E84E2C"/>
<path d="M20.0475 11.2253C19.1488 11.2253 18.316 11.596 17.7227 12.2214C17.1292 11.596 16.2965 11.2253 15.3978 11.2253C13.6298 11.2253 12.1914 12.6637 12.1914 14.4317C12.1914 15.3857 12.6122 16.2836 13.3457 16.8951C13.3501 16.8988 13.3546 16.9025 13.3592 16.9062L17.294 20.0214C17.4196 20.1208 17.5711 20.1705 17.7226 20.1705C17.8748 20.1705 18.027 20.1203 18.1528 20.0201L22.2543 16.7531C22.2744 16.7371 22.2935 16.72 22.3117 16.7019C22.9193 16.0959 23.2539 15.2897 23.2539 14.4317C23.2539 12.6637 21.8155 11.2253 20.0475 11.2253ZM21.3615 15.6989L17.7214 18.5984L14.2238 15.8294C13.8097 15.4811 13.5724 14.9722 13.5724 14.4318C13.5723 13.4252 14.3912 12.6063 15.3978 12.6063C16.1388 12.6063 16.801 13.0489 17.0848 13.7338C17.1918 13.9917 17.4435 14.1599 17.7227 14.1599C18.0018 14.1599 18.2535 13.9918 18.3605 13.7338C18.6443 13.0489 19.3065 12.6063 20.0475 12.6063C21.0541 12.6063 21.873 13.4252 21.873 14.4318C21.873 14.9084 21.6916 15.357 21.3615 15.6989Z" fill="#E84E2C"/>
<path d="M0.691971 25.7683C1.07198 25.7683 1.38004 25.4603 1.38004 25.0803C1.38004 24.7003 1.07198 24.3922 0.691971 24.3922C0.311963 24.3922 0.00390625 24.7003 0.00390625 25.0803C0.00390625 25.4603 0.311963 25.7683 0.691971 25.7683Z" fill="#E84E2C"/>
<path d="M34.6666 5.49942C35.0466 5.49942 35.3546 5.19136 35.3546 4.81136C35.3546 4.43135 35.0466 4.12329 34.6666 4.12329C34.2866 4.12329 33.9785 4.43135 33.9785 4.81136C33.9785 5.19136 34.2866 5.49942 34.6666 5.49942Z" fill="#E84E2C"/>
</svg>
