<svg width="145" height="139" viewBox="0 0 145 139" fill="none" xmlns="http://www.w3.org/2000/svg">
<path d="M110.111 67.5855L56.9442 32.8355C56.2023 32.3536 55.2453 32.3004 54.4527 32.7011C53.6624 33.1019 53.167 33.8896 53.167 34.7491V104.249C53.167 105.109 53.6624 105.896 54.4551 106.297C54.8079 106.478 55.197 106.566 55.5837 106.566C56.0597 106.566 56.5358 106.429 56.9442 106.163L110.111 71.4126C110.771 70.9817 111.167 70.2659 111.167 69.4991C111.167 68.7323 110.771 68.0164 110.111 67.5855ZM58.0003 99.8636V39.1345L104.461 69.4991L58.0003 99.8636Z" fill="white"/>
<path d="M72.5 0C32.5235 0 0 31.1777 0 69.5C0 107.822 32.5235 139 72.5 139C112.477 139 145 107.822 145 69.5C145 31.1777 112.477 0 72.5 0ZM72.5 134.367C35.1891 134.367 4.83333 105.267 4.83333 69.5C4.83333 33.733 35.1891 4.63333 72.5 4.63333C109.811 4.63333 140.167 33.733 140.167 69.5C140.167 105.267 109.811 134.367 72.5 134.367Z" fill="white"/>
</svg>
