<?xml version="1.0" standalone="no"?>
<!DOCTYPE svg PUBLIC "-//W3C//DTD SVG 1.1//EN" "http://www.w3.org/Graphics/SVG/1.1/DTD/svg11.dtd">
<svg xmlns="http://www.w3.org/2000/svg">
<defs >
<font id="Exo2" horiz-adv-x="568" ><font-face
    font-family="Exo 2 SemiBold"
    units-per-em="1000"
    panose-1="0 0 7 0 0 0 0 0 0 0"
    ascent="999"
    descent="-201"
    alphabetic="0" />
<glyph unicode=" " glyph-name="space" horiz-adv-x="220" />
<glyph unicode="!" glyph-name="exclam" horiz-adv-x="287" d="M204 410L191 216H96L83 410V695H204V410ZM183 137T192 128T202 94V43Q202 19 193 10T159 0H130Q105 0 96 9T86 43V94Q86 118 95 127T130 137H159Q183 137 192 128Z" />
<glyph unicode="&quot;" glyph-name="quotedbl" horiz-adv-x="367" d="M146 472H67L60 690H154L146 472ZM300 472H222L214 690H308L300 472Z" />
<glyph unicode="#" glyph-name="numbersign" horiz-adv-x="698" d="M537 435L509 278H619L604 204H496L461 0H368L403 204H245L210 0H117L152 204H36L50 278H165L193 435H78L92 510H206L237 690H330L299 510H457L488 690H581L550 510H661L646 435H537ZM444 435H286L258
278H416L444 435Z" />
<glyph unicode="$" glyph-name="dollar" horiz-adv-x="570" d="M463 357T494 309T526 181Q526 103 502 62T427 4T282 -12H280L271 -122H216L226 -11Q146 -7 58 10L66 105L236 101L253 297L189 317Q114 341 82 389T50 517Q50 595 74 634T147 688T286 702H298L306
796H360L352 700Q434 697 502 679L494 590L343 594L326 400L385 382Q463 357 494 309ZM175 485T183 468T207 442T253 423L272 417L288 594Q242 594 220 589T186 568T175 515Q175 485 183 468ZM335 102T358 108T390 132T400 182Q400 213 393 229T370 255T327 273L306
280L290 101Q335 102 358 108Z" />
<glyph unicode="%" glyph-name="percent" horiz-adv-x="901" d="M269 703T305 683T357 619T373 498Q373 422 357 378T305 313T206 293Q143 293 107 313T55 377T39 498Q39 574 55 618T107 683T206 703Q269 703 305 683ZM276 0H195L623 690H703L276 0ZM175 631T159
619T137 579T130 498Q130 445 136 417T159 377T205 365Q235 365 251 376T275 416T282 498Q282 550 275 578T252 619T205 631Q175 631 159 619ZM757 400T793 380T845 316T861 195Q861 118 845 74T793 9T694 -11Q632 -11 596 9T544 73T528 195Q528 271 544 315T596
380T694 400Q757 400 793 380ZM664 327T648 316T625 276T619 195Q618 141 625 113T648 73T694 61Q724 61 740 73T763 113T770 195Q770 248 763 276T740 315T694 327Q664 327 648 316Z" />
<glyph unicode="&amp;" glyph-name="ampersand" horiz-adv-x="767" d="M726 6Q704 -2 669 -6T608 -11Q560 -11 528 9T484 67Q442 25 392 7T263 -11Q188 -11 144 6T79 64T58 175Q58 258 89 304T194 356V360Q132 366 106 405T79 521Q79 600 105 638T185 688T343
701Q438 701 504 690L489 599Q442 602 339 602Q284 602 257 595T218 567T206 502Q206 462 216 441T249 411T315 402H481L490 516H592V402H707V311H592V149Q592 117 603 105T646 92H713L726 6ZM190 157T199 135T232 103T297 94Q408 96 478 152V311H308Q262 311 237
301T201 267T190 198Q190 157 199 135Z" />
<glyph unicode="&apos;" glyph-name="quotesingle" horiz-adv-x="213" d="M146 472H67L60 690H154L146 472Z" />
<glyph unicode="(" glyph-name="parenleft" horiz-adv-x="362" d="M338 736Q246 693 205 588T163 313Q163 146 205 41T338 -111L324 -165Q180 -115 113 1T45 312Q45 509 112 625T324 790L338 736Z" />
<glyph unicode=")" glyph-name="parenright" horiz-adv-x="362" d="M183 741T250 625T318 312Q318 117 251 1T39 -165L24 -111Q115 -65 157 40T199 313Q199 483 158 588T24 736L39 790Q183 741 250 625Z" />
<glyph unicode="*" glyph-name="asterisk" horiz-adv-x="450" d="M249 527L353 398L298 357L225 479L152 358L96 398L200 526L190 691H260L249 527ZM183 560L182 530L168 511L44 542L66 607L183 560ZM406 541L283 511L267 530V560L384 607L406 541Z" />
<glyph unicode="+" glyph-name="plus" horiz-adv-x="546" d="M497 255H318V84H227V255H49V345H227V516H318V345H497V255Z" />
<glyph unicode="," glyph-name="comma" horiz-adv-x="238" d="M160 137T169 128T177 94L178 30Q177 -21 166 -61T134 -140L79 -125Q92 -64 92 0Q76 0 67 10T58 38V94Q59 118 69 127T103 137H136Q160 137 169 128Z" />
<glyph unicode="-" glyph-name="hyphen" horiz-adv-x="428" d="M364 211H64V297H364V211Z" />
<glyph unicode="." glyph-name="period" horiz-adv-x="240" d="M163 137T172 128T182 94V43Q182 19 173 10T138 0H102Q77 0 68 9T58 43V94Q58 118 67 127T102 137H138Q163 137 172 128Z" />
<glyph unicode="/" glyph-name="slash" horiz-adv-x="534" d="M119 -69H22L415 690H512L119 -69Z" />
<glyph unicode="0" glyph-name="zero" horiz-adv-x="616" d="M403 703T457 668T536 554T561 345Q561 214 537 136T458 23T308 -13Q213 -13 159 22T80 135T56 345Q56 477 80 554T158 667T308 703Q403 703 457 668ZM257 598T230 575T190 498T178 345Q178 247 190
193T229 115T307 92Q358 92 386 115T426 192T438 345Q438 444 426 498T386 575T307 598Q257 598 230 575Z" />
<glyph unicode="1" glyph-name="one" horiz-adv-x="414" d="M312 0H187V509Q187 548 192 577L30 531L15 620L187 690H312V0Z" />
<glyph unicode="2" glyph-name="two" horiz-adv-x="569" d="M351 702T398 689T472 642T498 546Q498 483 474 433T383 309L200 112Q241 118 307 118H520V0H50V75Q50 108 68 127L248 326Q311 393 341 443T372 534Q372 571 348 582T264 593Q211 593 168 591T62 581L55
677Q122 692 172 697T277 702Q351 702 398 689Z" />
<glyph unicode="3" glyph-name="three" horiz-adv-x="561" d="M344 703T391 688T461 639T484 543Q484 468 462 424T383 369V365Q449 354 475 310T502 185Q502 81 450 34T275 -13Q177 -13 46 5L52 103Q172 95 242 95Q294 95 323 105T365 139T378 207Q378 264 354
289T261 314H133V407H261Q306 407 328 420T358 455T365 512Q364 550 354 567T319 590T245 596Q137 596 65 590L59 685Q166 703 265 703Q344 703 391 688Z" />
<glyph unicode="4" glyph-name="four" horiz-adv-x="627" d="M590 253V169L503 156H501V0H383V156H112Q76 156 54 179T31 236Q31 253 39 272L223 690H344L169 289Q165 281 165 272Q165 253 191 253H383V445L404 557H501V253H590Z" />
<glyph unicode="5" glyph-name="five" horiz-adv-x="544" d="M471 587H187L179 440L266 430Q391 418 443 366T495 212Q495 112 445 50T264 -12Q165 -12 44 11L57 112Q152 97 233 97Q291 97 321 110T361 148T372 219Q372 266 354 288T300 318T181 334L115 341Q95
342 83 356T72 391L88 690H475L471 587Z" />
<glyph unicode="6" glyph-name="six" horiz-adv-x="579" d="M414 454T456 432T515 362T533 231Q533 149 515 97T446 17T303 -12Q201 -12 149 18T78 122T58 337Q58 491 88 569T176 675T336 702Q427 702 488 685L480 598Q432 600 336 600Q278 600 247 585T200 527T181
396Q213 428 249 441T340 454Q414 454 456 432ZM352 90T375 105T406 149T414 230Q414 279 405 306T372 345T305 357Q270 357 243 347T180 311Q181 214 188 170T221 108T304 90Q352 90 375 105Z" />
<glyph unicode="7" glyph-name="seven" horiz-adv-x="519" d="M462 690T477 677T493 641Q493 629 489 618L278 0H154L336 526Q346 560 362 585H38L32 690H434Q462 690 477 677Z" />
<glyph unicode="8" glyph-name="eight" horiz-adv-x="610" d="M397 701T446 682T515 624T535 518Q535 451 511 409T435 360V356Q499 350 525 303T551 172Q551 106 531 67T457 8T305 -11Q209 -11 156 8T81 66T60 172Q60 255 85 302T175 356V360Q124 366 100 408T76
518Q76 585 95 624T164 682T305 701Q397 701 446 682ZM258 606T233 597T199 567T189 505Q189 464 199 443T233 414T307 405Q356 405 380 413T412 443T421 505Q421 545 412 566T379 597T306 606Q258 606 233 597ZM253 310T226 301T189 268T178 199Q178 156 188 133T226
101T306 91Q358 91 385 100T422 133T432 199Q432 245 422 268T386 301T307 311Q253 310 226 301Z" />
<glyph unicode="9" glyph-name="nine" horiz-adv-x="579" d="M384 702T434 671T502 568T520 353Q520 200 493 123T407 17T243 -12Q146 -12 78 5L87 93Q139 90 242 90Q301 90 333 108T380 170T399 298Q366 263 329 250T237 236Q134 236 91 297T48 463Q48 588 101
645T280 702Q384 702 434 671ZM308 332T335 342T400 381Q399 477 392 520T360 582T279 600Q232 600 207 585T174 540T166 460Q165 393 188 363T273 332Q308 332 335 342Z" />
<glyph unicode=":" glyph-name="colon" horiz-adv-x="251" d="M164 446T173 437T183 403V352Q183 328 174 319T139 309H103Q78 309 69 318T59 352V403Q59 427 68 436T103 446H139Q164 446 173 437ZM164 137T173 128T183 94V43Q183 19 174 10T139 0H103Q78 0 69
9T59 43V94Q59 118 68 127T103 137H139Q164 137 173 128Z" />
<glyph unicode=";" glyph-name="semicolon" horiz-adv-x="252" d="M170 446T179 437T189 403V352Q189 328 180 319T145 309H109Q84 309 75 318T65 352V403Q65 427 74 436T109 446H145Q170 446 179 437ZM167 137T176 128T184 94L185 30Q184 -21 173 -61T141 -140L86
-125Q99 -64 99 0Q83 0 74 10T65 38V94Q66 118 76 127T110 137H143Q167 137 176 128Z" />
<glyph unicode="&lt;" glyph-name="less" horiz-adv-x="523" d="M460 420L149 300L460 180V85L46 252V347L460 516V420Z" />
<glyph unicode="=" glyph-name="equal" horiz-adv-x="582" d="M516 357H66V445H516V357ZM516 145H66V233H516V145Z" />
<glyph unicode="&gt;" glyph-name="greater" horiz-adv-x="523" d="M477 347V252L63 85V180L374 300L63 420V516L477 347Z" />
<glyph unicode="?" glyph-name="question" horiz-adv-x="508" d="M370 712T421 674T473 557Q473 523 462 496T435 448T390 397Q345 351 321 313T294 216H193Q192 266 205 305T236 370T286 433Q316 467 330 490T345 541Q345 577 320 594T238 611Q152 611 67 606L39
604L34 689Q55 693 62 694Q112 704 152 708T265 712Q370 712 421 674ZM283 137T292 128T302 94V43Q302 19 293 10T258 0H229Q204 0 195 9T185 43V94Q185 118 194 127T229 137H258Q283 137 292 128Z" />
<glyph unicode="@" glyph-name="at" horiz-adv-x="737" d="M591 594T632 558T673 438V134H583L572 205Q542 173 493 149T389 124Q328 124 291 156T253 249V298Q253 348 283 376T372 405H559V435Q559 472 544 485T486 498H363Q272 498 237 486T190 429T178 267Q178
146 192 101T248 44T402 33H672V-53Q541 -64 382 -64Q234 -64 170 -41T85 49T64 267Q64 420 83 484T162 571T363 594H510Q591 594 632 558ZM417 333Q387 332 376 322T364 286V270Q364 240 377 228T417 215Q453 215 492 229T559 269V337L417 333Z" />
<glyph unicode="A" glyph-name="A" horiz-adv-x="636" d="M446 195H190L133 0H5L212 657Q216 672 228 681T257 690H379Q395 690 407 681T424 657L631 0H503L446 195ZM416 298L347 536Q345 545 340 563T332 595H305L289 536L220 298H416Z" />
<glyph unicode="B" glyph-name="B" horiz-adv-x="628" d="M514 349T546 304T578 172Q578 101 556 63T485 8T352 -8Q250 -8 193 -7T77 0V690Q130 695 181 696T321 698Q411 698 461 683T534 628T557 518Q557 443 529 405T439 360V356Q514 349 546 304ZM200 597V403H325Q369
403 392 411T426 441T437 502Q437 541 426 561T389 589T315 597H200ZM379 93T405 101T442 131T453 195Q453 241 442 266T403 301T327 312H200V94Q238 93 331 93Q379 93 405 101Z" />
<glyph unicode="C" glyph-name="C" horiz-adv-x="578" d="M401 702T443 697T532 680L520 585Q433 592 334 592Q276 592 244 570T199 494T185 345Q185 249 198 196T244 121T334 98Q403 98 447 100T535 108L546 14Q500 0 453 -6T334 -12Q229 -12 168 22T80 134T53
345Q53 478 80 555T168 667T334 702Q401 702 443 697Z" />
<glyph unicode="D" glyph-name="D" horiz-adv-x="671" d="M441 699T501 667T589 558T617 345Q617 209 590 133T502 24T335 -9Q214 -9 77 0V690Q214 699 335 699Q441 699 501 667ZM393 96T425 119T471 195T485 345Q485 442 471 495T425 572T335 595L202 594V98Q280
96 335 96Q393 96 425 119Z" />
<glyph unicode="E" glyph-name="E" d="M517 101L523 6Q463 1 393 0T219 -2Q151 -2 112 33T71 129V561Q72 622 111 657T219 692Q323 692 393 691T523 684L517 588H247Q220 588 209 575T197 530V409H480V313H197V159Q197 127 208 114T247 101H517Z" />
<glyph unicode="F" glyph-name="F" horiz-adv-x="546" d="M227 588T214 575T201 530V397H473V300H201V0H75V556Q75 620 115 656T223 692Q324 692 391 691T517 683L510 588H260Q227 588 214 575Z" />
<glyph unicode="G" glyph-name="G" horiz-adv-x="635" d="M576 398V0H483L472 68Q437 35 386 11T270 -13Q156 -13 105 73T54 348Q54 487 83 563T176 671T356 703Q471 703 554 680L544 587Q446 593 362 593Q290 593 254 576T202 506T185 341Q185 247 196 194T235
118T309 95Q349 95 383 107T454 143V398H576Z" />
<glyph unicode="H" glyph-name="H" horiz-adv-x="678" d="M600 690V0H475V316H202V0H77V690H202V419H475V690H600Z" />
<glyph unicode="I" glyph-name="I" horiz-adv-x="279" d="M202 0H77V690H202V0Z" />
<glyph unicode="J" glyph-name="J" horiz-adv-x="354" d="M279 152Q279 73 242 31T135 -11Q110 -11 77 -6T25 6L38 93H85Q155 93 155 155V690H279V152Z" />
<glyph unicode="K" glyph-name="K" horiz-adv-x="612" d="M264 311H195Q202 271 202 243V0H77V690H202V487Q202 443 195 407H263L452 690H588L402 412Q385 385 356 360V357Q391 328 410 298L601 0H461L264 311Z" />
<glyph unicode="L" glyph-name="L" horiz-adv-x="521" d="M200 161Q200 129 213 117T259 104H499L504 7Q406 -2 230 -2Q75 -2 75 141V690H200V161Z" />
<glyph unicode="M" glyph-name="M" horiz-adv-x="894" d="M801 690T803 641L831 0H708L685 589H666L547 130Q536 88 495 88H399Q357 88 346 130L225 589H208L186 0H64L90 641Q92 690 139 690H269Q310 690 320 648L418 274Q428 239 433 209L439 180H454Q465 238
475 275L573 648Q584 690 625 690H754Q801 690 803 641Z" />
<glyph unicode="N" glyph-name="N" horiz-adv-x="715" d="M638 46Q638 0 592 0H493Q473 0 461 9T441 38L247 461Q236 484 224 513T206 564H194Q200 522 200 460V0H77V644Q77 666 89 678T124 690H221Q241 690 252 681T273 652L461 241L477 204Q493 172 509 132H521Q516
195 516 244V690H638V46Z" />
<glyph unicode="O" glyph-name="O" horiz-adv-x="675" d="M445 703T506 670T594 560T622 345Q622 207 595 130T506 20T337 -13Q229 -13 168 20T80 130T53 345Q53 483 80 560T168 670T337 703Q445 703 506 670ZM278 596T246 573T199 497T185 345Q185 247 199 194T245
117T337 94Q397 94 429 117T476 193T490 345Q490 443 476 496T430 573T337 596Q278 596 246 573Z" />
<glyph unicode="P" glyph-name="P" horiz-adv-x="601" d="M419 699T469 680T542 613T564 477Q564 389 543 342T475 275T343 255Q269 255 202 263V0H77V690Q134 696 183 697T327 699Q419 699 469 680ZM369 358T393 368T427 403T438 477Q438 525 428 550T393 586T324
596Q237 596 202 595V357H324Q369 358 393 368Z" />
<glyph unicode="Q" glyph-name="Q" horiz-adv-x="677" d="M446 703T507 670T595 560T623 345Q623 207 596 130T507 20T338 -13Q230 -13 169 20T81 130T54 345Q54 483 81 560T169 670T338 703Q446 703 507 670ZM279 596T246 573T199 497T185 345Q185 247 199 194T246
117T338 94Q398 94 430 117T477 193T491 345Q491 443 477 496T431 573T338 596Q279 596 246 573ZM417 -82T580 -104L541 -224Q464 -206 397 -177T261 -111L292 -38Q417 -82 580 -104Z" />
<glyph unicode="R" glyph-name="R" horiz-adv-x="629" d="M593 0H460L405 214Q395 247 376 261T325 276H201V0H77V690Q133 696 183 697T328 699Q416 699 467 681T543 619T568 497Q568 417 538 375T439 323V318Q469 311 495 286T531 216L593 0ZM370 380T395 389T430
422T441 489Q441 532 431 555T395 587T325 596H201V379H325Q370 380 395 389Z" />
<glyph unicode="S" glyph-name="S" horiz-adv-x="570" d="M412 702T502 679L494 590Q380 594 289 594Q242 594 219 590T185 568T174 515Q174 485 182 468T205 442T251 423L384 382Q463 357 494 309T526 181Q526 103 502 62T426 4T281 -12Q167 -12 57 10L65 102Q83
102 91 101Q258 98 284 98Q331 98 355 104T389 128T399 182Q399 213 392 229T369 255T326 273L187 317Q112 341 80 389T48 517Q48 595 72 634T146 688T285 702Q412 702 502 679Z" />
<glyph unicode="T" glyph-name="T" horiz-adv-x="592" d="M571 583H358V0H232V583H21V690H571V583Z" />
<glyph unicode="U" glyph-name="U" horiz-adv-x="671" d="M599 270Q599 166 574 105T493 15T341 -13Q241 -13 183 15T99 104T72 270V690H197V270Q197 203 210 165T253 111T336 94Q388 94 417 110T460 165T473 270V690H599V270Z" />
<glyph unicode="V" glyph-name="V" horiz-adv-x="622" d="M416 35Q411 19 399 10T370 0H252Q235 0 223 9T207 35L11 690H140L281 172L299 95H324Q330 127 343 172L482 690H611L416 35Z" />
<glyph unicode="W" glyph-name="W" horiz-adv-x="961" d="M813 35Q809 19 797 10T767 0H636Q619 0 606 10T590 36L503 517Q498 544 490 598H470Q461 540 457 517L371 36Q368 20 355 10T324 0H194Q177 0 164 9T148 35L29 690H159L241 187Q247 153 252 93H273Q282
151 289 187L374 650Q377 668 389 679T420 690H542Q559 690 571 679T587 650L672 186Q682 136 686 93H708Q712 120 713 137L719 185L802 690H932L813 35Z" />
<glyph unicode="X" glyph-name="X" horiz-adv-x="626" d="M322 312H303L149 0H17L200 355L30 690H161L301 402H324L464 690H596L425 355L609 0H476L322 312Z" />
<glyph unicode="Y" glyph-name="Y" horiz-adv-x="589" d="M357 233V0H232V235L5 690H137L263 422Q272 402 280 375T291 339H299Q302 347 310 374T327 422L453 690H583L357 233Z" />
<glyph unicode="Z" glyph-name="Z" horiz-adv-x="574" d="M530 102V0H45V102L385 588H51V690H523V588L183 102H530Z" />
<glyph unicode="[" glyph-name="bracketleft" horiz-adv-x="339" d="M303 691H213Q206 691 201 686T196 673V-70Q196 -78 201 -83T213 -88H303V-165H150Q83 -165 83 -98V701Q83 730 102 749T150 768H303V691Z" />
<glyph unicode="\" glyph-name="backslash" horiz-adv-x="535" d="M513 -69H415L22 690H120L513 -69Z" />
<glyph unicode="]" glyph-name="bracketright" horiz-adv-x="339" d="M218 768T237 749T256 701V-98Q256 -127 237 -146T188 -165H36V-88H125Q133 -88 137 -83T142 -70V673Q142 681 138 686T125 691H36V768H188Q218 768 237 749Z" />
<glyph unicode="^" glyph-name="asciicircum" horiz-adv-x="447" d="M417 397L369 369L228 538H220L78 369L30 397L180 616H268L417 397Z" />
<glyph unicode="_" glyph-name="underscore" horiz-adv-x="441" d="M441 -86H0V0H441V-86Z" />
<glyph unicode="`" glyph-name="grave" horiz-adv-x="337" d="M283 587L245 533L32 644L95 734L283 587Z" />
<glyph unicode="a" glyph-name="a" horiz-adv-x="558" d="M405 504T449 466T494 333V0H398L385 74Q353 39 306 14T198 -11Q129 -11 86 26T43 131V181Q43 240 81 272T188 304H372V334Q371 363 364 377T337 398T282 404Q205 404 77 394L65 480Q118 490 190 497T310
504Q405 504 449 466ZM164 116T179 102T228 87Q259 87 297 101T372 145V221H216Q187 220 176 206T164 166V147Q164 116 179 102Z" />
<glyph unicode="b" glyph-name="b" horiz-adv-x="581" d="M449 504T492 444T535 248Q535 120 485 54T305 -12Q248 -12 179 -3T66 25V700H188V535Q188 465 177 421Q215 461 261 482T356 504Q449 504 492 444ZM336 85T361 99T397 148T410 248Q409 309 402 341T373
388T310 402Q280 402 253 389T187 347L188 97Q239 85 292 85Q336 85 361 99Z" />
<glyph unicode="c" glyph-name="c" horiz-adv-x="498" d="M328 504T375 497T457 476L443 400Q394 402 307 402Q256 402 227 388T186 341T173 246Q173 184 185 150T227 102T307 88Q387 88 454 98L465 18Q392 -12 285 -12Q196 -12 145 13T70 94T46 246Q46 342 69
398T145 479T286 504Q328 504 375 497Z" />
<glyph unicode="d" glyph-name="d" horiz-adv-x="583" d="M515 700V0H419L409 67Q372 32 324 10T219 -12Q129 -12 88 53T47 248Q47 344 68 400T130 480T235 504Q330 504 398 460Q393 500 393 559V700H515ZM172 185T181 151T210 104T264 91Q298 91 323 101T393
142V385L373 390Q339 398 318 401T271 405Q233 405 212 393T182 348T172 249Q172 185 181 151Z" />
<glyph unicode="e" glyph-name="e" horiz-adv-x="548" d="M381 87T482 99L493 21Q457 4 401 -4T291 -12Q201 -12 148 14T71 96T46 246Q46 343 70 399T146 479T283 504Q400 504 453 462T506 334Q506 194 375 194H175Q180 150 194 127T235 96T306 87Q381 87 482
99ZM244 408T220 397T185 359T172 279H341Q367 279 376 295T385 336Q385 376 364 392T288 408Q244 408 220 397Z" />
<glyph unicode="f" glyph-name="f" horiz-adv-x="395" d="M266 624T250 609T233 555V490H376V402H233V0H111V402H24V485L111 490V571Q111 643 147 681T264 719Q298 719 342 717T413 710L403 624H307Q266 624 250 609Z" />
<glyph unicode="g" glyph-name="g" d="M545 431L481 424Q494 392 494 346Q494 289 473 255T404 205T273 188Q222 188 183 194Q176 180 176 168Q176 153 185 143T212 129L391 104Q463 94 494 60T526 -39Q526 -100 503 -134T427 -182T279 -196Q183 -196 130 -182T54
-136T31 -46Q31 -8 49 16T108 61Q80 86 80 130Q80 155 91 178T120 213Q84 231 68 263T52 345Q52 404 73 438T142 488T274 504Q355 504 400 490H552L545 431ZM335 273T358 289T382 346Q382 387 359 402T273 418Q211 418 187 403T163 346Q163 305 187 289T273 273Q335
273 358 289ZM409 -13T402 -4T380 10T326 19L187 36Q167 19 158 4T148 -33Q148 -63 158 -76T195 -94T278 -99Q334 -99 361 -94T398 -76T409 -34Q409 -13 402 -4Z" />
<glyph unicode="h" glyph-name="h" horiz-adv-x="590" d="M455 504T490 469T525 368V0H403V331Q403 372 392 386T351 401Q317 401 282 388T190 342V0H68V700H190L191 520Q191 467 183 422Q294 504 390 504Q455 504 490 469Z" />
<glyph unicode="i" glyph-name="i" horiz-adv-x="265" d="M195 703T195 668V613Q195 578 160 578H104Q69 578 69 613V668Q69 685 78 694T104 703H160Q195 703 195 668ZM193 0H72V490H193V0Z" />
<glyph unicode="j" glyph-name="j" horiz-adv-x="267" d="M197 704T197 669V615Q197 580 162 580H106Q71 580 71 615V669Q71 704 106 704H162Q197 704 197 669ZM195 9Q195 -55 165 -111T83 -200L15 -147Q46 -110 59 -74T73 9V490H195V9Z" />
<glyph unicode="k" glyph-name="k" horiz-adv-x="534" d="M238 234H184Q190 195 190 159V0H68V700H190L191 402Q191 355 184 316H237L371 490H509L372 316Q364 304 352 293T331 275V273Q339 268 351 254T372 226L525 0H387L238 234Z" />
<glyph unicode="l" glyph-name="l" horiz-adv-x="314" d="M190 153Q190 96 249 96H291L305 6Q290 -2 258 -6T201 -11Q140 -11 105 24T69 123V700H191L190 153Z" />
<glyph unicode="m" glyph-name="m" horiz-adv-x="875" d="M742 504T776 469T810 368V0H691V331Q690 369 677 385T630 401Q601 401 575 389T498 342V0H381V331Q382 370 368 385T320 401Q292 401 267 389T189 343V0H68V490H167L175 418Q224 461 270 482T366 504Q465
504 491 422Q582 504 677 504Q742 504 776 469Z" />
<glyph unicode="n" glyph-name="n" horiz-adv-x="590" d="M455 504T490 469T525 368V0H403V331Q403 372 392 386T351 401Q317 401 283 388T189 341L190 0H68V490H170L178 417Q291 504 390 504Q455 504 490 469Z" />
<glyph unicode="o" glyph-name="o" horiz-adv-x="576" d="M378 504T430 479T506 397T530 245Q530 150 507 94T431 13T289 -13Q199 -13 147 12T70 94T46 245Q46 340 70 396T147 478T289 504Q378 504 430 479ZM243 407T219 393T184 345T173 245Q173 181 183 147T218
98T289 84Q334 84 358 98T393 146T404 245Q404 310 394 344T359 393T289 407Q243 407 219 393Z" />
<glyph unicode="p" glyph-name="p" horiz-adv-x="591" d="M464 503T504 437T544 241Q544 146 523 91T461 12T356 -12Q256 -12 187 36Q190 -20 189 -66V-195H68V490H168L177 418Q211 455 267 479T377 503Q464 503 504 437ZM358 87T379 99T409 144T419 242Q419 304
411 339T383 388T332 403Q298 403 266 389T189 342V108Q197 106 225 100T276 90T320 87Q358 87 379 99Z" />
<glyph unicode="q" glyph-name="q" horiz-adv-x="580" d="M333 504T401 494T514 467V-195H393L392 -44Q392 20 402 62Q311 -13 218 -13Q131 -13 89 49T46 243Q46 330 66 386T137 473T279 504Q333 504 401 494ZM171 158T189 125T261 91Q296 91 324 103T393 141V394Q344
407 287 407Q241 407 217 394T182 344T171 237Q171 158 189 125Z" />
<glyph unicode="r" glyph-name="r" horiz-adv-x="413" d="M400 504L387 390H352Q320 390 285 380T190 347V0H68V490H163L174 418Q225 460 276 482T376 504H400Z" />
<glyph unicode="s" glyph-name="s" horiz-adv-x="517" d="M294 503T355 498T460 486L451 402Q327 406 264 406Q217 406 197 404T169 393T160 364Q160 340 171 332T201 318T227 311L359 275Q422 257 449 227T476 134Q476 75 454 44T385 1T257 -11Q147 -11 52 5L60
90Q112 86 227 86Q281 86 308 89T347 103T359 133Q359 151 351 160T333 172T287 186L158 221Q94 239 69 272T43 365Q43 419 63 449T126 491T243 504Q294 503 355 498Z" />
<glyph unicode="t" glyph-name="t" horiz-adv-x="400" d="M231 402V153Q231 121 244 109T290 96H357L370 6Q346 -2 308 -6T244 -11Q180 -11 146 26T111 132L110 402H22V485L110 490V631H231V490H375V402H231Z" />
<glyph unicode="u" glyph-name="u" horiz-adv-x="579" d="M511 490V0H415L406 66Q353 26 303 7T201 -13Q134 -13 100 21T65 123V490H187V159Q186 120 199 105T247 90Q277 90 309 102T390 143V490H511Z" />
<glyph unicode="v" glyph-name="v" horiz-adv-x="546" d="M367 29Q356 0 326 0H220Q206 0 195 8T180 29L12 490H140L242 167Q243 162 245 156T249 142Q261 102 266 82H279L305 167L406 490H535L367 29Z" />
<glyph unicode="w" glyph-name="w" horiz-adv-x="834" d="M686 33Q682 17 671 9T643 0H540Q523 0 511 10T495 38L436 339Q432 360 431 373Q429 385 423 419H411L397 339L340 38Q337 21 324 11T294 0H193Q176 0 164 9T149 33L19 490H143L224 153Q234 107 237 75H250L255
101Q258 115 265 153L325 454Q328 471 339 480T368 490H467Q484 490 496 480T511 453L569 153Q571 138 573 126T578 106L584 75H597Q606 136 610 153L691 490H815L686 33Z" />
<glyph unicode="x" glyph-name="x" horiz-adv-x="546" d="M280 210H266L143 0H15L170 252L27 490H154L265 298H281L392 490H519L376 252L531 0H403L280 210Z" />
<glyph unicode="y" glyph-name="y" horiz-adv-x="546" d="M533 490L351 -15Q322 -98 262 -153T104 -203L94 -126Q152 -110 186 -83T238 -11L243 0H219Q204 0 193 8T178 30L12 490H141L248 153Q258 122 264 88H278L298 153L403 490H533Z" />
<glyph unicode="z" glyph-name="z" horiz-adv-x="518" d="M473 93V0H45V93L333 397H49V490H469V397L181 93H473Z" />
<glyph unicode="{" glyph-name="braceleft" horiz-adv-x="331" d="M292 693Q244 693 227 678T210 621V458Q211 395 191 367T113 328Q171 311 192 284T214 202V-19Q214 -60 231 -75T296 -90V-165Q281 -167 253 -167Q98 -167 98 -29V218Q98 242 93 253T77 271T39
287V369Q67 378 76 382T89 399T94 442V632Q94 770 249 770Q277 770 292 768V693Z" />
<glyph unicode="|" glyph-name="bar" horiz-adv-x="254" d="M170 -169H84V781H170V-169Z" />
<glyph unicode="}" glyph-name="braceright" horiz-adv-x="332" d="M55 770T83 770Q238 770 238 632V442Q238 412 242 400T256 383T293 369V287Q266 277 256 271T240 254T234 218V-29Q234 -167 79 -167Q51 -167 36 -165V-90Q84 -90 101 -75T118 -19V202Q119 256
140 283T219 328Q162 338 142 366T122 458V621Q122 662 105 677T40 693V768Q55 770 83 770Z" />
<glyph unicode="~" glyph-name="asciitilde" horiz-adv-x="519" d="M168 357T197 349T268 327Q328 306 353 304Q357 303 364 303Q380 303 386 314T392 352H451Q454 333 454 317Q454 269 434 244T378 218Q351 218 319 226T246 249Q220 258 196 265T157 272Q139
272 134 261T128 221H69Q67 233 67 255Q67 305 88 331T144 357Q168 357 197 349Z" />
<glyph unicode="&#xa0;" glyph-name="uni00A0" horiz-adv-x="220" />
<glyph unicode="&#xa1;" glyph-name="exclamdown" horiz-adv-x="271" d="M175 501T184 492T194 458V406Q194 382 185 373T151 364H122Q97 364 88 373T78 406V458Q78 482 87 491T122 501H151Q175 501 184 492ZM196 91V-190H75V91L88 285H183L196 91Z" />
<glyph unicode="&#xa2;" glyph-name="cent" horiz-adv-x="513" d="M399 94T302 91L293 0H239L248 92Q173 97 129 124T65 205T45 349Q45 444 68 500T144 581T286 607H299L308 690H362L354 603Q412 596 457 579L443 501Q385 506 343 506L313 190Q390 190 453 199L465
121Q399 94 302 91ZM165 270T186 236T259 193L288 507Q241 505 215 490T177 441T165 349Q165 270 186 236Z" />
<glyph unicode="&#xa3;" glyph-name="sterling" horiz-adv-x="577" d="M531 105V0H55V105Q98 124 115 159T133 247Q133 265 132 275L129 327H52L51 399H124L117 518Q113 593 134 633T198 687T315 702Q399 702 509 692L502 594Q431 597 325 597Q278 597 259 583T239
530L240 514L248 399H442L439 327H253L256 275Q257 266 257 250Q257 196 240 164T185 99Q209 105 256 105H531Z" />
<glyph unicode="&#xa4;" glyph-name="currency" horiz-adv-x="589" d="M493 289T458 238L531 167L479 115L407 187Q356 152 294 152Q232 152 181 187L111 116L56 171L127 242Q94 291 94 351Q94 415 130 465L59 535L111 587L180 516Q233 551 294 551Q358 551 408
515L480 587L531 535L459 464Q493 412 493 351Q493 289 458 238ZM327 223T356 240T403 286T421 352Q421 387 404 417T357 464T294 481Q259 481 230 464T183 417T165 352Q165 317 182 288T228 241T292 223Q327 223 356 240Z" />
<glyph unicode="&#xa5;" glyph-name="yen" horiz-adv-x="635" d="M424 333H549V265H389L381 249V217H549V150H381V0H256V150H92L91 217H256V249L248 265H92L90 333H212L28 690H158L285 431Q292 417 298 397T307 371L314 348H323Q338 400 352 432L478 690H607L424 333Z" />
<glyph unicode="&#xa6;" glyph-name="brokenbar" horiz-adv-x="256" d="M171 381H85V781H171V381ZM171 -169H85V231H171V-169Z" />
<glyph unicode="&#xa7;" glyph-name="section" horiz-adv-x="548" d="M393 701T486 691L478 599Q403 604 279 604Q228 604 206 595T184 556Q184 531 198 515T243 483L389 403Q443 375 466 339T490 252Q490 214 476 161H390Q391 171 391 188Q391 235 375 262T317
314L155 407Q106 435 81 468T55 564Q55 620 78 650T147 691T266 703Q393 701 486 691ZM158 360T158 340Q158 294 173 268T231 219L393 127Q443 99 468 65T494 -32Q494 -90 470 -120T401 -161T284 -172Q150 -170 62 -160L71 -68Q140 -73 250 -74Q312 -74 337 -66T364
-27Q366 0 351 17T307 49L161 130Q108 157 84 194T60 281Q60 323 73 372H159Q158 360 158 340Z" />
<glyph unicode="&#xa8;" glyph-name="dieresis" horiz-adv-x="418" d="M170 703T170 672V617Q170 601 163 594T141 587H100Q85 587 78 594T71 617V672Q71 703 100 703H141Q170 703 170 672ZM333 703T341 695T350 672V617Q350 587 319 587H280Q249 587 249 617V672Q249
703 280 703H319Q333 703 341 695Z" />
<glyph unicode="&#xa9;" glyph-name="copyright" horiz-adv-x="822" d="M511 703T593 657T723 529T771 345Q771 243 723 161T593 33T411 -13Q311 -13 229 33T98 161T50 345Q50 447 98 529T228 657T411 703Q511 703 593 657ZM330 643T262 604T153 497T113 345Q113
261 153 193T261 86T411 47Q492 47 560 85T668 192T708 345Q708 429 668 497T560 604T411 643Q330 643 262 604ZM462 560T491 557T551 546L543 478Q479 481 415 481Q375 481 354 469T323 429T314 347Q314 294 323 266T353 225T415 213Q499 213 554 217L561 150Q529
142 497 138T416 134Q344 134 302 154T240 221T221 347Q221 426 240 472T301 539T416 560Q462 560 491 557Z" />
<glyph unicode="&#xaa;" glyph-name="ordfeminine" horiz-adv-x="439" d="M313 612T344 585T376 494V274H304L294 332Q270 305 236 286T158 266Q111 266 83 289T54 356V393Q54 431 80 453T153 475H286V495Q286 517 274 528T231 539Q187 539 79 533L71 596Q167
612 251 612Q313 612 344 585ZM210 339T236 350T286 378V428L184 419Q160 418 151 410T141 385V375Q141 355 152 347T188 339Q210 339 236 350Z" />
<glyph unicode="&#xab;" glyph-name="guillemotleft" horiz-adv-x="504" d="M458 421L344 251L459 77L395 36L235 238V264L394 462L458 421ZM262 421L148 251L263 77L199 36L39 238V264L198 462L262 421Z" />
<glyph unicode="&#xac;" glyph-name="logicalnot" horiz-adv-x="587" d="M516 344V134H425V255H65V344H516Z" />
<glyph unicode="&#xad;" glyph-name="uni00AD" horiz-adv-x="428" d="M364 211H64V297H364V211Z" />
<glyph unicode="&#xae;" glyph-name="registered" horiz-adv-x="536" d="M330 702T380 672T461 592T491 480Q491 419 461 368T381 287T269 257Q208 257 157 287T76 368T46 480Q46 541 76 591T157 672T269 702Q330 702 380 672ZM318 295T360 320T427 387T452 480Q452
531 427 573T360 640T269 665Q219 665 177 641T110 574T85 480Q85 430 109 388T176 320T269 295Q318 295 360 320ZM354 470T363 436L389 360H333L310 434Q305 447 297 452T275 457H222V360H169V604Q203 607 276 607Q332 607 355 592T379 536Q379 509 366 495T323
476V474Q354 470 363 436ZM305 495T315 502T325 531Q326 553 316 560T275 567H222V494H275Q305 495 315 502Z" />
<glyph unicode="&#xaf;" glyph-name="overscore" horiz-adv-x="400" d="M345 601H55V685H345V601Z" />
<glyph unicode="&#xb0;" glyph-name="degree" horiz-adv-x="352" d="M212 703T242 686T291 639T309 574Q309 539 291 509T243 460T176 442Q140 442 110 460T61 508T43 574Q43 609 61 638T109 685T176 703Q212 703 242 686ZM149 636T131 619T113 574Q113 546 131
528T176 510Q202 510 220 528T238 574Q238 601 221 618T176 636Q149 636 131 619Z" />
<glyph unicode="&#xb1;" glyph-name="plusminus" horiz-adv-x="581" d="M515 411V321H335V196H245V321H66V411H245V537H336V411H515ZM66 145H515V55H66V145Z" />
<glyph unicode="&#xb2;" glyph-name="uni00B2" horiz-adv-x="433" d="M289 781T326 761T363 679Q363 620 287 547L173 439Q196 443 237 443L379 442L378 360H54V411Q54 436 69 450L181 556Q220 593 240 620T261 669Q263 689 248 695T196 702Q136 702 62 697L58
767Q134 781 204 781Q289 781 326 761Z" />
<glyph unicode="&#xb3;" glyph-name="uni00B3" horiz-adv-x="414" d="M260 782T292 773T339 744T353 686Q353 639 337 613T276 581V579Q326 573 345 547T364 469Q364 406 328 379T207 352Q142 352 52 363L56 432Q125 428 183 428Q232 428 250 440T269 488Q269
514 254 527T195 541H110V608H195Q236 608 249 622T262 662Q262 688 247 697T187 706Q130 706 64 704L60 771Q135 782 202 782Q260 782 292 773Z" />
<glyph unicode="&#xb4;" glyph-name="acute" horiz-adv-x="337" d="M295 650L82 539L44 593L232 740L295 650Z" />
<glyph unicode="&#xb5;" glyph-name="uni00B5" horiz-adv-x="587" d="M572 6Q518 -11 477 -11Q437 -11 414 10T391 76V87Q367 45 326 17T228 -12Q204 -12 187 -8V-65L173 -195H68V490H189V172Q189 126 203 111T253 96Q290 96 321 121T370 191T388 288V490H510V121Q510
96 515 86T535 76H565L572 6Z" />
<glyph unicode="&#xb6;" glyph-name="paragraph" horiz-adv-x="596" d="M384 702T428 698T507 685V0H420V624Q381 627 347 627V-210H262V201Q139 212 86 270T33 450Q33 543 64 598T163 677T345 702Q384 702 428 698Z" />
<glyph unicode="&#xb7;" glyph-name="middot" horiz-adv-x="249" d="M168 326T177 317T187 283V232Q187 208 178 199T143 189H107Q82 189 73 198T63 232V283Q63 307 72 316T107 326H143Q168 326 177 317Z" />
<glyph unicode="&#xb8;" glyph-name="cedilla" horiz-adv-x="242" d="M123 -36T137 -36Q177 -36 195 -50T214 -99Q214 -164 171 -200T60 -237Q51 -237 29 -235L46 -176Q82 -177 106 -161T132 -115Q133 -101 121 -97T71 -93L83 -40Q123 -36 137 -36Z" />
<glyph unicode="&#xb9;" glyph-name="uni00B9" horiz-adv-x="300" d="M233 360H139V648Q139 678 143 693L37 669L26 732L139 774H233V360Z" />
<glyph unicode="&#xba;" glyph-name="ordmasculine" horiz-adv-x="441" d="M285 612T322 595T375 540T392 438Q392 374 376 337T322 283T221 266Q157 266 120 283T67 337T50 438Q50 503 66 540T120 595T221 612Q285 612 322 595ZM190 541T174 532T150 502T143
438Q143 397 150 376T173 345T221 336Q251 336 267 345T291 375T298 438Q298 480 291 501T268 532T221 541Q190 541 174 532Z" />
<glyph unicode="&#xbb;" glyph-name="guillemotright" horiz-adv-x="504" d="M269 264V238L109 36L45 77L160 251L46 421L110 462L269 264ZM465 264V238L305 36L241 77L356 251L242 421L306 462L465 264Z" />
<glyph unicode="&#xbc;" glyph-name="onequarter" horiz-adv-x="881" d="M143 564Q143 589 147 609L41 585L30 648L143 690H236V276H143V564ZM655 690L227 0H145L573 690H655ZM845 97L796 90V0H709V89H527Q506 89 492 100T477 131Q477 145 484 159L601 414H689L581
177Q580 175 580 171Q580 166 584 163T597 159H709V268L724 334H796V159H845V97Z" />
<glyph unicode="&#xbd;" glyph-name="onehalf" horiz-adv-x="900" d="M236 276H143V564Q143 589 147 609L41 585L30 648L143 690H236V276ZM219 0H137L566 690H647L219 0ZM766 421T803 400T841 319Q841 262 765 187L651 79Q674 83 715 83L856 82L855 0H532V51Q532
76 546 90L658 196Q699 235 719 262T739 312Q739 330 724 336T674 342Q614 342 540 337L536 407Q611 421 681 421Q766 421 803 400Z" />
<glyph unicode="&#xbe;" glyph-name="threequarters" horiz-adv-x="970" d="M361 322T326 294T204 266Q139 266 49 277L53 346Q122 342 179 342Q228 342 246 354T265 401Q265 427 250 441T192 455L107 457V519L192 522Q233 522 245 536T258 575Q258 602 243 611T183
620Q111 620 61 617L57 685Q127 695 199 695Q257 695 289 686T335 657T349 600Q349 553 333 527T273 495V493Q322 486 341 461T361 386Q361 322 326 294ZM752 690L323 0H242L670 690H752ZM934 97L886 90V0H799V89H617Q596 89 582 100T567 131Q567 145 574 159L691
414H779L671 177Q669 173 669 171Q669 166 674 163T686 159H799V268L814 334H886V159H934V97Z" />
<glyph unicode="&#xbf;" glyph-name="questiondown" horiz-adv-x="503" d="M303 505T312 496T322 462V410Q322 386 313 377T278 367H250Q225 367 216 376T206 410V462Q206 486 215 495T250 505H278Q303 505 312 496ZM315 239T302 200T270 134T220 71Q190 39 176
15T161 -36Q161 -72 186 -89T269 -106Q355 -106 438 -101L467 -99L472 -184Q400 -198 362 -202T241 -207Q136 -207 85 -169T33 -52Q33 -18 44 9T71 57T117 108Q147 140 165 162T197 217T213 289H313Q315 239 302 200Z" />
<glyph unicode="&#xc0;" glyph-name="Agrave" horiz-adv-x="636" d="M446 195H190L133 0H5L212 657Q216 672 228 681T257 690H379Q395 690 407 681T424 657L631 0H503L446 195ZM416 298L347 536Q345 545 340 563T332 595H305L289 536L220 298H416ZM388 772L350
718L137 829L200 919L388 772Z" />
<glyph unicode="&#xc1;" glyph-name="Aacute" horiz-adv-x="636" d="M446 195H190L133 0H5L212 657Q216 672 228 681T257 690H379Q395 690 407 681T424 657L631 0H503L446 195ZM416 298L347 536Q345 545 340 563T332 595H305L289 536L220 298H416ZM486 835L273
724L235 778L423 925L486 835Z" />
<glyph unicode="&#xc2;" glyph-name="Acircumflex" horiz-adv-x="636" d="M446 195H190L133 0H5L212 657Q216 672 228 681T257 690H379Q395 690 407 681T424 657L631 0H503L446 195ZM416 298L347 536Q345 545 340 563T332 595H305L289 536L220 298H416ZM494 765L455
715L322 811H314L180 715L143 766L274 897H362L494 765Z" />
<glyph unicode="&#xc3;" glyph-name="Atilde" horiz-adv-x="636" d="M446 195H190L133 0H5L212 657Q216 672 228 681T257 690H379Q395 690 407 681T424 657L631 0H503L446 195ZM416 298L347 536Q345 545 340 563T332 595H305L289 536L220 298H416ZM255 879T274
873T319 854Q360 835 387 831Q391 830 399 830Q417 830 423 840T430 876H483Q486 860 486 844Q486 796 463 771T403 747Q378 749 358 756T309 777Q286 788 270 794T237 800Q218 800 212 789T205 751H152Q150 773 150 781Q150 831 173 857T232 881Q255 879 274 873Z"
/>
<glyph unicode="&#xc4;" glyph-name="Adieresis" horiz-adv-x="636" d="M446 195H190L133 0H5L212 657Q216 672 228 681T257 690H379Q395 690 407 681T424 657L631 0H503L446 195ZM416 298L347 536Q345 545 340 563T332 595H305L289 536L220 298H416ZM278 870T278
839V784Q278 768 271 761T249 754H208Q193 754 186 761T179 784V839Q179 870 208 870H249Q278 870 278 839ZM441 870T449 862T458 839V784Q458 754 427 754H388Q357 754 357 784V839Q357 870 388 870H427Q441 870 449 862Z" />
<glyph unicode="&#xc5;" glyph-name="Aring" horiz-adv-x="636" d="M446 195H190L133 0H5L212 657Q216 672 228 681T257 690H379Q395 690 407 681T424 657L631 0H503L446 195ZM416 298L347 536Q345 545 340 563T332 595H305L289 536L220 298H416ZM365 934T398
902T432 823Q432 776 399 745T319 713Q271 713 239 744T206 823Q206 870 239 902T319 934Q365 934 398 902ZM296 878T281 863T266 823Q266 799 281 785T319 770Q341 770 356 784T372 823Q372 848 357 863T319 878Q296 878 281 863Z" />
<glyph unicode="&#xc6;" glyph-name="AE" horiz-adv-x="921" d="M870 102L876 6Q811 1 742 0T569 -2Q514 -2 480 34T446 129V202H229L122 0H-8L304 568Q329 616 360 642T439 680T566 691Q762 691 876 684L870 587H622Q595 587 579 571T563 526V410H833V313H563V160Q563
128 576 115T622 102H870ZM446 301V540Q446 560 453 579T472 609H463Q441 595 415 552L282 301H446Z" />
<glyph unicode="&#xc7;" glyph-name="Ccedilla" horiz-adv-x="578" d="M401 702T443 697T532 680L520 585Q433 592 334 592Q276 592 244 570T199 494T185 345Q185 249 198 196T244 121T334 98Q403 98 447 100T535 108L546 14Q500 0 453 -6T334 -12Q229 -12 168
22T80 134T53 345Q53 478 80 555T168 667T334 702Q401 702 443 697ZM311 -51T325 -51Q365 -51 383 -65T402 -114Q402 -179 359 -215T248 -252Q239 -252 217 -250L234 -191Q270 -192 294 -176T320 -130Q321 -116 309 -112T259 -108L271 -55Q311 -51 325 -51Z" />
<glyph unicode="&#xc8;" glyph-name="Egrave" d="M517 101L523 6Q463 1 393 0T219 -2Q151 -2 112 33T71 129V561Q72 622 111 657T219 692Q323 692 393 691T523 684L517 588H247Q220 588 209 575T197 530V409H480V313H197V159Q197 127 208 114T247 101H517ZM381
789L343 735L130 846L193 936L381 789Z" />
<glyph unicode="&#xc9;" glyph-name="Eacute" d="M517 101L523 6Q463 1 393 0T219 -2Q151 -2 112 33T71 129V561Q72 622 111 657T219 692Q323 692 393 691T523 684L517 588H247Q220 588 209 575T197 530V409H480V313H197V159Q197 127 208 114T247 101H517ZM479
852L266 741L228 795L416 942L479 852Z" />
<glyph unicode="&#xca;" glyph-name="Ecircumflex" d="M517 101L523 6Q463 1 393 0T219 -2Q151 -2 112 33T71 129V561Q72 622 111 657T219 692Q323 692 393 691T523 684L517 588H247Q220 588 209 575T197 530V409H480V313H197V159Q197 127 208 114T247 101H517ZM487
782L448 732L315 828H307L173 732L136 783L267 914H355L487 782Z" />
<glyph unicode="&#xcb;" glyph-name="Edieresis" d="M517 101L523 6Q463 1 393 0T219 -2Q151 -2 112 33T71 129V561Q72 622 111 657T219 692Q323 692 393 691T523 684L517 588H247Q220 588 209 575T197 530V409H480V313H197V159Q197 127 208 114T247 101H517ZM271
887T271 856V801Q271 785 264 778T242 771H201Q186 771 179 778T172 801V856Q172 887 201 887H242Q271 887 271 856ZM434 887T442 879T451 856V801Q451 771 420 771H381Q350 771 350 801V856Q350 887 381 887H420Q434 887 442 879Z" />
<glyph unicode="&#xcc;" glyph-name="Igrave" horiz-adv-x="279" d="M202 0H77V690H202V0ZM209 781L171 727L-42 838L21 928L209 781Z" />
<glyph unicode="&#xcd;" glyph-name="Iacute" horiz-adv-x="279" d="M202 0H77V690H202V0ZM308 844L95 733L57 787L245 934L308 844Z" />
<glyph unicode="&#xce;" glyph-name="Icircumflex" horiz-adv-x="279" d="M202 0H77V690H202V0ZM316 774L277 724L144 820H136L2 724L-35 775L96 906H184L316 774Z" />
<glyph unicode="&#xcf;" glyph-name="Idieresis" horiz-adv-x="279" d="M202 0H77V690H202V0ZM100 879T100 848V793Q100 777 93 770T71 763H30Q15 763 8 770T1 793V848Q1 879 30 879H71Q100 879 100 848ZM263 879T271 871T280 848V793Q280 763 249 763H210Q179
763 179 793V848Q179 879 210 879H249Q263 879 271 871Z" />
<glyph unicode="&#xd0;" glyph-name="Eth" horiz-adv-x="675" d="M445 699T506 667T594 558T621 345Q621 209 594 133T506 24T339 -9Q218 -9 81 0V331H19V397H81V690Q218 699 339 699Q445 699 506 667ZM397 96T429 119T475 195T489 345Q489 442 475 495T429 572T339
595L207 594V397H341V331H207V98Q285 96 339 96Q397 96 429 119Z" />
<glyph unicode="&#xd1;" glyph-name="Ntilde" horiz-adv-x="715" d="M638 46Q638 0 592 0H493Q473 0 461 9T441 38L247 461Q236 484 224 513T206 564H194Q200 522 200 460V0H77V644Q77 666 89 678T124 690H221Q241 690 252 681T273 652L461 241L477 204Q493 172
509 132H521Q516 195 516 244V690H638V46ZM304 888T323 882T368 863Q409 844 436 840Q440 839 448 839Q466 839 472 849T479 885H532Q535 869 535 853Q535 805 512 780T452 756Q427 758 407 765T358 786Q335 797 319 803T286 809Q267 809 261 798T254 760H201Q199
782 199 790Q199 840 222 866T281 890Q304 888 323 882Z" />
<glyph unicode="&#xd2;" glyph-name="Ograve" horiz-adv-x="675" d="M445 703T506 670T594 560T622 345Q622 207 595 130T506 20T337 -13Q229 -13 168 20T80 130T53 345Q53 483 80 560T168 670T337 703Q445 703 506 670ZM278 596T246 573T199 497T185 345Q185
247 199 194T245 117T337 94Q397 94 429 117T476 193T490 345Q490 443 476 496T430 573T337 596Q278 596 246 573ZM408 781L370 727L157 838L220 928L408 781Z" />
<glyph unicode="&#xd3;" glyph-name="Oacute" horiz-adv-x="675" d="M445 703T506 670T594 560T622 345Q622 207 595 130T506 20T337 -13Q229 -13 168 20T80 130T53 345Q53 483 80 560T168 670T337 703Q445 703 506 670ZM278 596T246 573T199 497T185 345Q185
247 199 194T245 117T337 94Q397 94 429 117T476 193T490 345Q490 443 476 496T430 573T337 596Q278 596 246 573ZM507 844L294 733L256 787L444 934L507 844Z" />
<glyph unicode="&#xd4;" glyph-name="Ocircumflex" horiz-adv-x="675" d="M445 703T506 670T594 560T622 345Q622 207 595 130T506 20T337 -13Q229 -13 168 20T80 130T53 345Q53 483 80 560T168 670T337 703Q445 703 506 670ZM278 596T246 573T199 497T185 345Q185
247 199 194T245 117T337 94Q397 94 429 117T476 193T490 345Q490 443 476 496T430 573T337 596Q278 596 246 573ZM515 774L476 724L343 820H335L201 724L164 775L295 906H383L515 774Z" />
<glyph unicode="&#xd5;" glyph-name="Otilde" horiz-adv-x="675" d="M445 703T506 670T594 560T622 345Q622 207 595 130T506 20T337 -13Q229 -13 168 20T80 130T53 345Q53 483 80 560T168 670T337 703Q445 703 506 670ZM278 596T246 573T199 497T185 345Q185
247 199 194T245 117T337 94Q397 94 429 117T476 193T490 345Q490 443 476 496T430 573T337 596Q278 596 246 573ZM275 888T294 882T339 863Q380 844 407 840Q411 839 419 839Q437 839 443 849T450 885H503Q506 869 506 853Q506 805 483 780T423 756Q398 758 378
765T329 786Q306 797 290 803T257 809Q238 809 232 798T225 760H172Q170 782 170 790Q170 840 193 866T252 890Q275 888 294 882Z" />
<glyph unicode="&#xd6;" glyph-name="Odieresis" horiz-adv-x="675" d="M445 703T506 670T594 560T622 345Q622 207 595 130T506 20T337 -13Q229 -13 168 20T80 130T53 345Q53 483 80 560T168 670T337 703Q445 703 506 670ZM278 596T246 573T199 497T185 345Q185
247 199 194T245 117T337 94Q397 94 429 117T476 193T490 345Q490 443 476 496T430 573T337 596Q278 596 246 573ZM299 879T299 848V793Q299 777 292 770T270 763H229Q214 763 207 770T200 793V848Q200 879 229 879H270Q299 879 299 848ZM462 879T470 871T479 848V793Q479
763 448 763H409Q378 763 378 793V848Q378 879 409 879H448Q462 879 470 871Z" />
<glyph unicode="&#xd7;" glyph-name="multiply" horiz-adv-x="486" d="M313 291L454 164L396 94L245 229L95 94L36 164L177 291L36 417L95 487L245 352L396 487L454 417L313 291Z" />
<glyph unicode="&#xd8;" glyph-name="Oslash" horiz-adv-x="675" d="M573 628T597 552T622 345Q622 207 595 130T506 20T337 -13Q260 -13 209 3L179 -61L123 -38L154 29Q100 65 77 140T53 345Q53 483 80 560T168 670T337 703Q410 703 463 688L494 754L549 731L517
664Q573 628 597 552ZM185 210T213 155L414 582Q385 596 337 596Q278 596 246 573T199 497T185 345Q185 210 213 155ZM397 94T429 117T476 193T490 345Q490 417 483 464T459 539L258 109Q287 94 337 94Q397 94 429 117Z" />
<glyph unicode="&#xd9;" glyph-name="Ugrave" horiz-adv-x="671" d="M599 270Q599 166 574 105T493 15T341 -13Q241 -13 183 15T99 104T72 270V690H197V270Q197 203 210 165T253 111T336 94Q388 94 417 110T460 165T473 270V690H599V270ZM405 781L367 727L154
838L217 928L405 781Z" />
<glyph unicode="&#xda;" glyph-name="Uacute" horiz-adv-x="671" d="M599 270Q599 166 574 105T493 15T341 -13Q241 -13 183 15T99 104T72 270V690H197V270Q197 203 210 165T253 111T336 94Q388 94 417 110T460 165T473 270V690H599V270ZM504 844L291 733L253
787L441 934L504 844Z" />
<glyph unicode="&#xdb;" glyph-name="Ucircumflex" horiz-adv-x="671" d="M599 270Q599 166 574 105T493 15T341 -13Q241 -13 183 15T99 104T72 270V690H197V270Q197 203 210 165T253 111T336 94Q388 94 417 110T460 165T473 270V690H599V270ZM512 774L473 724L340
820H332L198 724L161 775L292 906H380L512 774Z" />
<glyph unicode="&#xdc;" glyph-name="Udieresis" horiz-adv-x="671" d="M599 270Q599 166 574 105T493 15T341 -13Q241 -13 183 15T99 104T72 270V690H197V270Q197 203 210 165T253 111T336 94Q388 94 417 110T460 165T473 270V690H599V270ZM296 879T296 848V793Q296
777 289 770T267 763H226Q211 763 204 770T197 793V848Q197 879 226 879H267Q296 879 296 848ZM459 879T467 871T476 848V793Q476 763 445 763H406Q375 763 375 793V848Q375 879 406 879H445Q459 879 467 871Z" />
<glyph unicode="&#xdd;" glyph-name="Yacute" horiz-adv-x="589" d="M357 233V0H232V235L5 690H137L263 422Q272 402 280 375T291 339H299Q302 347 310 374T327 422L453 690H583L357 233ZM464 832L251 721L213 775L401 922L464 832Z" />
<glyph unicode="&#xde;" glyph-name="Thorn" horiz-adv-x="601" d="M418 573T468 553T540 485T562 347Q562 258 541 210T473 143T342 123Q270 123 203 131V0H77V690H203V572Q237 573 327 573Q418 573 468 553ZM368 227T391 237T425 272T436 347Q436 397 426 423T392
459T323 470Q238 470 203 469V226H323Q368 227 391 237Z" />
<glyph unicode="&#xdf;" glyph-name="germandbls" horiz-adv-x="691" d="M626 236T644 209T663 130Q663 75 644 45T584 2T477 -11Q403 -11 315 0L322 87Q391 84 450 84Q488 84 507 87T534 101T543 135Q543 158 531 169T478 204L390 250Q312 292 312 366Q312 405
331 428T393 481Q401 486 417 498Q449 522 460 538T472 578Q472 596 464 607T430 625T354 632Q304 632 279 624T243 596T232 536V0H110V401H23V490H110V550Q110 622 136 660T213 713T349 727Q439 727 490 714T563 669T585 583Q585 546 570 517T508 454Q499 447
477 432Q448 411 438 400T427 370Q427 351 440 341T491 309L579 262Q626 236 644 209Z" />
<glyph unicode="&#xe0;" glyph-name="agrave" horiz-adv-x="558" d="M405 504T449 466T494 333V0H398L385 74Q353 39 306 14T198 -11Q129 -11 86 26T43 131V181Q43 240 81 272T188 304H372V334Q371 363 364 377T337 398T282 404Q205 404 77 394L65 480Q118 490
190 497T310 504Q405 504 449 466ZM164 116T179 102T228 87Q259 87 297 101T372 145V221H216Q187 220 176 206T164 166V147Q164 116 179 102ZM348 602L310 548L97 659L160 749L348 602Z" />
<glyph unicode="&#xe1;" glyph-name="aacute" horiz-adv-x="558" d="M405 504T449 466T494 333V0H398L385 74Q353 39 306 14T198 -11Q129 -11 86 26T43 131V181Q43 240 81 272T188 304H372V334Q371 363 364 377T337 398T282 404Q205 404 77 394L65 480Q118 490
190 497T310 504Q405 504 449 466ZM164 116T179 102T228 87Q259 87 297 101T372 145V221H216Q187 220 176 206T164 166V147Q164 116 179 102ZM447 665L234 554L196 608L384 755L447 665Z" />
<glyph unicode="&#xe2;" glyph-name="acircumflex" horiz-adv-x="558" d="M405 504T449 466T494 333V0H398L385 74Q353 39 306 14T198 -11Q129 -11 86 26T43 131V181Q43 240 81 272T188 304H372V334Q371 363 364 377T337 398T282 404Q205 404 77 394L65 480Q118
490 190 497T310 504Q405 504 449 466ZM164 116T179 102T228 87Q259 87 297 101T372 145V221H216Q187 220 176 206T164 166V147Q164 116 179 102ZM455 595L416 545L283 641H275L141 545L104 596L235 727H323L455 595Z" />
<glyph unicode="&#xe3;" glyph-name="atilde" horiz-adv-x="558" d="M405 504T449 466T494 333V0H398L385 74Q353 39 306 14T198 -11Q129 -11 86 26T43 131V181Q43 240 81 272T188 304H372V334Q371 363 364 377T337 398T282 404Q205 404 77 394L65 480Q118 490
190 497T310 504Q405 504 449 466ZM164 116T179 102T228 87Q259 87 297 101T372 145V221H216Q187 220 176 206T164 166V147Q164 116 179 102ZM216 709T235 703T280 684Q321 665 348 661Q352 660 360 660Q378 660 384 670T391 706H444Q447 690 447 674Q447 626 424
601T364 577Q339 579 319 586T270 607Q247 618 231 624T198 630Q179 630 173 619T166 581H113Q111 603 111 611Q111 661 134 687T193 711Q216 709 235 703Z" />
<glyph unicode="&#xe4;" glyph-name="adieresis" horiz-adv-x="558" d="M405 504T449 466T494 333V0H398L385 74Q353 39 306 14T198 -11Q129 -11 86 26T43 131V181Q43 240 81 272T188 304H372V334Q371 363 364 377T337 398T282 404Q205 404 77 394L65 480Q118
490 190 497T310 504Q405 504 449 466ZM164 116T179 102T228 87Q259 87 297 101T372 145V221H216Q187 220 176 206T164 166V147Q164 116 179 102ZM239 956T239 925V870Q239 854 232 847T210 840H169Q154 840 147 847T140 870V925Q140 956 169 956H210Q239 956 239
925ZM402 956T410 948T419 925V870Q419 840 388 840H349Q318 840 318 870V925Q318 956 349 956H388Q402 956 410 948Z" />
<glyph unicode="&#xe5;" glyph-name="aring" horiz-adv-x="558" d="M405 504T449 466T494 333V0H398L385 74Q353 39 306 14T198 -11Q129 -11 86 26T43 131V181Q43 240 81 272T188 304H372V334Q371 363 364 377T337 398T282 404Q205 404 77 394L65 480Q118 490
190 497T310 504Q405 504 449 466ZM164 116T179 102T228 87Q259 87 297 101T372 145V221H216Q187 220 176 206T164 166V147Q164 116 179 102ZM326 764T359 732T393 653Q393 606 360 575T280 543Q232 543 200 574T167 653Q167 700 200 732T280 764Q326 764 359 732ZM257
708T242 693T227 653Q227 629 242 615T280 600Q302 600 317 614T333 653Q333 678 318 693T280 708Q257 708 242 693Z" />
<glyph unicode="&#xe6;" glyph-name="ae" horiz-adv-x="870" d="M704 87T805 99L816 21Q780 4 725 -4T614 -12Q528 -12 476 12T398 88Q367 49 316 19T198 -11Q129 -11 86 26T43 131V181Q43 239 81 271T187 304H371V334Q371 376 353 390T281 404Q204 404 76 394L65
480Q118 490 189 497T309 504Q406 504 448 466Q501 504 607 504Q723 504 775 462T829 334Q829 194 698 194H498Q503 150 517 127T558 96T630 87Q704 87 805 99ZM568 408T544 397T509 359T495 279H664Q690 279 699 295T708 336Q708 376 688 392T612 408Q568 408
544 397ZM261 87T301 103T378 151Q371 186 370 220L216 221Q187 220 176 206T164 166V147Q164 115 179 101T228 87Q261 87 301 103Z" />
<glyph unicode="&#xe7;" glyph-name="ccedilla" horiz-adv-x="498" d="M328 504T375 497T457 476L443 400Q394 402 307 402Q256 402 227 388T186 341T173 246Q173 184 185 150T227 102T307 88Q387 88 454 98L465 18Q392 -12 285 -12Q196 -12 145 13T70 94T46 246Q46
342 69 398T145 479T286 504Q328 504 375 497ZM264 -49T278 -49Q318 -49 336 -63T355 -112Q355 -177 312 -213T201 -250Q192 -250 170 -248L187 -189Q223 -190 247 -174T273 -128Q274 -114 262 -110T212 -106L224 -53Q264 -49 278 -49Z" />
<glyph unicode="&#xe8;" glyph-name="egrave" horiz-adv-x="548" d="M381 87T482 99L493 21Q457 4 401 -4T291 -12Q201 -12 148 14T71 96T46 246Q46 343 70 399T146 479T283 504Q400 504 453 462T506 334Q506 194 375 194H175Q180 150 194 127T235 96T306 87Q381
87 482 99ZM244 408T220 397T185 359T172 279H341Q367 279 376 295T385 336Q385 376 364 392T288 408Q244 408 220 397ZM356 601L318 547L105 658L168 748L356 601Z" />
<glyph unicode="&#xe9;" glyph-name="eacute" horiz-adv-x="548" d="M381 87T482 99L493 21Q457 4 401 -4T291 -12Q201 -12 148 14T71 96T46 246Q46 343 70 399T146 479T283 504Q400 504 453 462T506 334Q506 194 375 194H175Q180 150 194 127T235 96T306 87Q381
87 482 99ZM244 408T220 397T185 359T172 279H341Q367 279 376 295T385 336Q385 376 364 392T288 408Q244 408 220 397ZM455 664L242 553L204 607L392 754L455 664Z" />
<glyph unicode="&#xea;" glyph-name="ecircumflex" horiz-adv-x="548" d="M381 87T482 99L493 21Q457 4 401 -4T291 -12Q201 -12 148 14T71 96T46 246Q46 343 70 399T146 479T283 504Q400 504 453 462T506 334Q506 194 375 194H175Q180 150 194 127T235 96T306
87Q381 87 482 99ZM244 408T220 397T185 359T172 279H341Q367 279 376 295T385 336Q385 376 364 392T288 408Q244 408 220 397ZM463 594L424 544L291 640H283L149 544L112 595L243 726H331L463 594Z" />
<glyph unicode="&#xeb;" glyph-name="edieresis" horiz-adv-x="548" d="M381 87T482 99L493 21Q457 4 401 -4T291 -12Q201 -12 148 14T71 96T46 246Q46 343 70 399T146 479T283 504Q400 504 453 462T506 334Q506 194 375 194H175Q180 150 194 127T235 96T306 87Q381
87 482 99ZM244 408T220 397T185 359T172 279H341Q367 279 376 295T385 336Q385 376 364 392T288 408Q244 408 220 397ZM246 955T246 924V869Q246 853 239 846T217 839H176Q161 839 154 846T147 869V924Q147 955 176 955H217Q246 955 246 924ZM409 955T417 947T426
924V869Q426 839 395 839H356Q325 839 325 869V924Q325 955 356 955H395Q409 955 417 947Z" />
<glyph unicode="&#xec;" glyph-name="igrave" horiz-adv-x="266" d="M194 0H72V490H194V0ZM458 602L420 548L207 659L270 749L458 602Z" />
<glyph unicode="&#xed;" glyph-name="iacute" horiz-adv-x="266" d="M194 0H72V490H194V0ZM301 665L88 554L50 608L238 755L301 665Z" />
<glyph unicode="&#xee;" glyph-name="icircumflex" horiz-adv-x="266" d="M194 0H72V490H194V0ZM565 595L526 545L393 641H385L251 545L214 596L345 727H433L565 595Z" />
<glyph unicode="&#xef;" glyph-name="idieresis" horiz-adv-x="266" d="M194 0H72V490H194V0ZM349 956T349 925V870Q349 854 342 847T320 840H279Q264 840 257 847T250 870V925Q250 956 279 956H320Q349 956 349 925ZM512 956T520 948T529 925V870Q529 840 498
840H459Q428 840 428 870V925Q428 956 459 956H498Q512 956 520 948Z" />
<glyph unicode="&#xf0;" glyph-name="eth" d="M515 515T515 285Q515 185 494 120T421 21T280 -13Q160 -13 104 42T47 217Q47 334 95 392T255 450Q327 450 377 423Q360 510 313 557L241 499L201 547L259 593Q207 616 121 613L133 698L161 699Q263 699 339 658L415
719L455 670L394 621Q515 515 515 285ZM327 84T350 105T381 168T389 288Q389 323 388 340Q339 353 279 353Q221 353 198 322T174 219Q174 144 198 114T281 84Q327 84 350 105Z" />
<glyph unicode="&#xf1;" glyph-name="ntilde" horiz-adv-x="590" d="M455 504T490 469T525 368V0H403V331Q403 372 392 386T351 401Q317 401 283 388T189 341L190 0H68V490H170L178 417Q291 504 390 504Q455 504 490 469ZM244 708T263 702T308 683Q349 664 376
660Q380 659 388 659Q406 659 412 669T419 705H472Q475 689 475 673Q475 625 452 600T392 576Q367 578 347 585T298 606Q275 617 259 623T226 629Q207 629 201 618T194 580H141Q139 602 139 610Q139 660 162 686T221 710Q244 708 263 702Z" />
<glyph unicode="&#xf2;" glyph-name="ograve" horiz-adv-x="576" d="M378 504T430 479T506 397T530 245Q530 150 507 94T431 13T289 -13Q199 -13 147 12T70 94T46 245Q46 340 70 396T147 478T289 504Q378 504 430 479ZM243 407T219 393T184 345T173 245Q173 181
183 147T218 98T289 84Q334 84 358 98T393 146T404 245Q404 310 394 344T359 393T289 407Q243 407 219 393ZM359 596L321 542L108 653L171 743L359 596Z" />
<glyph unicode="&#xf3;" glyph-name="oacute" horiz-adv-x="576" d="M378 504T430 479T506 397T530 245Q530 150 507 94T431 13T289 -13Q199 -13 147 12T70 94T46 245Q46 340 70 396T147 478T289 504Q378 504 430 479ZM243 407T219 393T184 345T173 245Q173 181
183 147T218 98T289 84Q334 84 358 98T393 146T404 245Q404 310 394 344T359 393T289 407Q243 407 219 393ZM458 659L245 548L207 602L395 749L458 659Z" />
<glyph unicode="&#xf4;" glyph-name="ocircumflex" horiz-adv-x="576" d="M378 504T430 479T506 397T530 245Q530 150 507 94T431 13T289 -13Q199 -13 147 12T70 94T46 245Q46 340 70 396T147 478T289 504Q378 504 430 479ZM243 407T219 393T184 345T173 245Q173
181 183 147T218 98T289 84Q334 84 358 98T393 146T404 245Q404 310 394 344T359 393T289 407Q243 407 219 393ZM466 589L427 539L294 635H286L152 539L115 590L246 721H334L466 589Z" />
<glyph unicode="&#xf5;" glyph-name="otilde" horiz-adv-x="576" d="M378 504T430 479T506 397T530 245Q530 150 507 94T431 13T289 -13Q199 -13 147 12T70 94T46 245Q46 340 70 396T147 478T289 504Q378 504 430 479ZM243 407T219 393T184 345T173 245Q173 181
183 147T218 98T289 84Q334 84 358 98T393 146T404 245Q404 310 394 344T359 393T289 407Q243 407 219 393ZM226 959T245 953T290 934Q331 915 358 911Q362 910 370 910Q388 910 394 920T401 956H454Q457 940 457 924Q457 876 434 851T374 827Q349 829 329 836T280
857Q257 868 241 874T208 880Q189 880 183 869T176 831H123Q121 853 121 861Q121 911 144 937T203 961Q226 959 245 953Z" />
<glyph unicode="&#xf6;" glyph-name="odieresis" horiz-adv-x="576" d="M378 504T430 479T506 397T530 245Q530 150 507 94T431 13T289 -13Q199 -13 147 12T70 94T46 245Q46 340 70 396T147 478T289 504Q378 504 430 479ZM243 407T219 393T184 345T173 245Q173
181 183 147T218 98T289 84Q334 84 358 98T393 146T404 245Q404 310 394 344T359 393T289 407Q243 407 219 393ZM250 950T250 919V864Q250 848 243 841T221 834H180Q165 834 158 841T151 864V919Q151 950 180 950H221Q250 950 250 919ZM413 950T421 942T430 919V864Q430
834 399 834H360Q329 834 329 864V919Q329 950 360 950H399Q413 950 421 942Z" />
<glyph unicode="&#xf7;" glyph-name="divide" horiz-adv-x="560" d="M319 539T328 530T338 495V454Q338 429 329 420T294 411H264Q239 411 230 420T220 454V495Q220 520 229 529T264 539H294Q319 539 328 530ZM505 250H55V338H505V250ZM319 176T328 167T338 132V92Q338
67 329 58T294 48H264Q239 48 230 57T220 92V132Q220 157 229 166T264 176H294Q319 176 328 167Z" />
<glyph unicode="&#xf8;" glyph-name="oslash" horiz-adv-x="576" d="M480 456T505 399T530 245Q530 150 507 94T431 13T289 -13Q241 -13 199 -5L163 -82L116 -60L149 11Q95 37 71 93T46 245Q46 340 70 396T147 478T289 504Q339 504 374 497L409 572L456 549L424
481Q480 456 505 399ZM173 196T179 165T198 116L331 403Q315 407 289 407Q243 407 219 393T184 345T173 245Q173 196 179 165ZM334 84T358 98T393 146T404 245Q404 296 398 327T376 378L242 89Q258 84 289 84Q334 84 358 98Z" />
<glyph unicode="&#xf9;" glyph-name="ugrave" horiz-adv-x="579" d="M511 490V0H415L406 66Q353 26 303 7T201 -13Q134 -13 100 21T65 123V490H187V159Q186 120 199 105T247 90Q277 90 309 102T390 143V490H511ZM358 606L320 552L107 663L170 753L358 606Z" />
<glyph unicode="&#xfa;" glyph-name="uacute" horiz-adv-x="579" d="M511 490V0H415L406 66Q353 26 303 7T201 -13Q134 -13 100 21T65 123V490H187V159Q186 120 199 105T247 90Q277 90 309 102T390 143V490H511ZM457 669L244 558L206 612L394 759L457 669Z" />
<glyph unicode="&#xfb;" glyph-name="ucircumflex" horiz-adv-x="579" d="M511 490V0H415L406 66Q353 26 303 7T201 -13Q134 -13 100 21T65 123V490H187V159Q186 120 199 105T247 90Q277 90 309 102T390 143V490H511ZM465 599L426 549L293 645H285L151 549L114
600L245 731H333L465 599Z" />
<glyph unicode="&#xfc;" glyph-name="udieresis" horiz-adv-x="579" d="M511 490V0H415L406 66Q353 26 303 7T201 -13Q134 -13 100 21T65 123V490H187V159Q186 120 199 105T247 90Q277 90 309 102T390 143V490H511ZM249 704T249 673V618Q249 602 242 595T220 588H179Q164
588 157 595T150 618V673Q150 704 179 704H220Q249 704 249 673ZM412 704T420 696T429 673V618Q429 588 398 588H359Q328 588 328 618V673Q328 704 359 704H398Q412 704 420 696Z" />
<glyph unicode="&#xfd;" glyph-name="yacute" horiz-adv-x="546" d="M533 490L351 -15Q322 -98 262 -153T104 -203L94 -126Q152 -110 186 -83T238 -11L243 0H219Q204 0 193 8T178 30L12 490H141L248 153Q258 122 264 88H278L298 153L403 490H533ZM443 665L230
554L192 608L380 755L443 665Z" />
<glyph unicode="&#xfe;" glyph-name="thorn" horiz-adv-x="584" d="M454 502T495 440T536 241Q536 145 517 90T458 11T354 -13Q263 -13 187 27Q190 -18 190 -66V-195H68V700H190V551Q190 514 186 442Q261 502 359 502Q454 502 495 440ZM348 81T369 95T401 143T411
241Q411 305 402 340T372 389T316 403Q286 403 256 390T190 350V110Q228 96 256 89T311 81Q348 81 369 95Z" />
<glyph unicode="&#xff;" glyph-name="ydieresis" horiz-adv-x="546" d="M533 490L351 -15Q322 -98 262 -153T104 -203L94 -126Q152 -110 186 -83T238 -11L243 0H219Q204 0 193 8T178 30L12 490H141L248 153Q258 122 264 88H278L298 153L403 490H533ZM235 956T235
925V870Q235 854 228 847T206 840H165Q150 840 143 847T136 870V925Q136 956 165 956H206Q235 956 235 925ZM398 956T406 948T415 925V870Q415 840 384 840H345Q314 840 314 870V925Q314 956 345 956H384Q398 956 406 948Z" />
<glyph unicode="&#x2013;" glyph-name="endash" horiz-adv-x="574" d="M510 211H64V297H510V211Z" />
<glyph unicode="&#x2014;" glyph-name="emdash" horiz-adv-x="874" d="M810 211H64V297H810V211Z" />
<glyph unicode="&#x2018;" glyph-name="quoteleft" horiz-adv-x="224" d="M72 474T63 482T55 513L54 571Q55 617 66 654T98 726L152 712Q139 657 139 599Q155 599 164 590T173 564L172 513Q170 491 161 483T128 474H96Q72 474 63 482Z" />
<glyph unicode="&#x2019;" glyph-name="quoteright" horiz-adv-x="221" d="M150 719T159 711T168 680L169 622Q168 576 157 539T125 467L71 481Q83 530 84 594Q68 594 59 603T50 629V680Q51 702 61 710T95 719H127Q150 719 159 711Z" />
<glyph unicode="&#x201a;" glyph-name="quotesinglbase" horiz-adv-x="235" d="M158 127T167 118T176 87L177 28Q176 -58 133 -128L79 -114Q92 -59 92 1Q76 1 67 10T58 36V87Q59 109 69 118T103 127H135Q158 127 167 118Z" />
<glyph unicode="&#x201c;" glyph-name="quotedblleft" horiz-adv-x="395" d="M72 474T63 482T55 513L54 571Q55 617 66 654T98 726L152 712Q139 657 139 599Q155 599 164 590T173 564L172 513Q170 491 161 483T128 474H96Q72 474 63 482ZM244 474T235 482T226
513L225 571Q226 617 237 654T269 726L323 712Q310 657 310 599Q326 599 335 590T344 564V513Q343 491 333 483T299 474H267Q244 474 235 482Z" />
<glyph unicode="&#x201d;" glyph-name="quotedblright" horiz-adv-x="392" d="M150 719T159 711T168 680L169 622Q168 576 157 539T125 467L71 481Q83 530 84 594Q68 594 59 603T50 629V680Q51 702 61 710T95 719H127Q150 719 159 711ZM322 719T331 711T339 680L340
622Q339 576 328 539T296 467L242 481Q255 536 255 594Q239 594 230 603T221 629L222 680Q223 702 233 710T266 719H298Q322 719 331 711Z" />
<glyph unicode="&#x201e;" glyph-name="quotedblbase" horiz-adv-x="406" d="M158 124T167 116T176 84L177 26Q176 -60 133 -129L79 -115Q90 -67 92 -1Q76 -1 67 8T58 33V84Q59 106 69 115T103 124H135Q158 124 167 116ZM330 124T339 116T347 84L348 26Q347 -60
304 -129L250 -115Q263 -60 263 -1Q247 -1 238 8T229 33L230 84Q231 106 241 115T274 124H306Q330 124 339 116Z" />
<glyph unicode="&#x2022;" glyph-name="bullet" horiz-adv-x="369" d="M246 371T267 351T288 277V263Q288 207 267 186T193 164H180Q124 164 103 185T81 263V277Q81 330 102 350T180 371H193Q246 371 267 351Z" />
<glyph unicode="&#x2039;" glyph-name="guilsinglleft" horiz-adv-x="308" d="M262 421L148 251L263 77L199 36L39 238V264L198 462L262 421Z" />
<glyph unicode="&#x203a;" glyph-name="guilsinglright" horiz-adv-x="310" d="M270 264V238L109 36L45 77L160 251L46 421L110 462L270 264Z" />
</font>
</defs>
</svg>
