<svg width="16" height="20" viewBox="0 0 16 20" fill="none" xmlns="http://www.w3.org/2000/svg">
<path d="M10.84 14.26C13.86 14.83 16 16.29 16 18V20H0V18C0 16.29 2.14 14.83 5.16 14.26L8 19L10.84 14.26ZM4 6.00001H12V8.00001C12 9.06088 11.5786 10.0783 10.8284 10.8284C10.0783 11.5786 9.06087 12 8 12C6.93913 12 5.92172 11.5786 5.17157 10.8284C4.42143 10.0783 4 9.06088 4 8.00001V6.00001ZM4 5.00001L4.41 0.900013C4.43487 0.652489 4.55111 0.423124 4.73602 0.256706C4.92093 0.0902876 5.16123 -0.00123409 5.41 1.25703e-05H10.6C11.11 1.25703e-05 11.54 0.390013 11.59 0.900013L12 5.00001H4ZM8 1.00001H7V2.00001H6V3.00001H7V4.00001H8V3.00001H9V2.00001H8V1.00001Z" fill="white"/>
</svg>
