<svg width="22" height="20" viewBox="0 0 22 20" fill="none" xmlns="http://www.w3.org/2000/svg">
<path d="M19.8 4.4H16.5V2.2C16.5 0.9867 15.5133 0 14.3 0H7.7C6.4867 0 5.5 0.9867 5.5 2.2V4.4H2.2C0.9867 4.4 0 5.3867 0 6.6V17.6C0 18.8133 0.9867 19.8 2.2 19.8H19.8C21.0133 19.8 22 18.8133 22 17.6V6.6C22 5.3867 21.0133 4.4 19.8 4.4ZM7.7 2.2H14.3V4.4H7.7V2.2ZM2.2 17.6V6.6H19.8L19.8011 17.6H2.2Z" fill="#F6F7F8"/>
<path d="M12.1001 7.7002H9.9001V11.0002H6.6001V13.2002H9.9001V16.5002H12.1001V13.2002H15.4001V11.0002H12.1001V7.7002Z" fill="#F6F7F8"/>
</svg>
