<svg width="31" height="33" viewBox="0 0 31 33" fill="none" xmlns="http://www.w3.org/2000/svg">
<path d="M7.08984 8.12073C6.73406 8.12073 6.44531 8.40948 6.44531 8.76526C6.44531 9.12104 6.73406 9.40979 7.08984 9.40979C7.44562 9.40979 7.73437 9.12104 7.73437 8.76526C7.73437 8.40948 7.44562 8.12073 7.08984 8.12073Z" fill="#E84E2C"/>
<path d="M12.8903 20.1728H10.9568V18.2394C10.9568 17.8835 10.6682 17.5948 10.3123 17.5948C9.95639 17.5948 9.66784 17.8835 9.66784 18.2394V20.1728H7.73437C7.37846 20.1728 7.08984 20.4615 7.08984 20.8173C7.08984 21.1732 7.37846 21.4618 7.73437 21.4618H9.66784V23.3953C9.66784 23.7512 9.95646 24.0398 10.3123 24.0398C10.6681 24.0398 10.9568 23.7512 10.9568 23.3953V21.4618H12.8903C13.2462 21.4618 13.5348 21.1732 13.5348 20.8173C13.5348 20.4614 13.2463 20.1728 12.8903 20.1728Z" fill="#E84E2C"/>
<path d="M30.285 20.7529C28.8603 18.2852 25.7101 17.4407 23.242 18.8657L20.624 20.3772V14.7803C20.624 14.0884 20.3952 13.4018 19.9795 12.8468L16.7571 8.55034V6.72078C17.5072 6.45472 18.0461 5.73838 18.0461 4.89811V1.93346C18.046 0.867345 17.1786 0 16.1125 0H4.51152C3.4454 0 2.57799 0.867345 2.57799 1.93346V4.89817C2.57799 5.73832 3.11689 6.45478 3.86699 6.72084V8.55041L0.644273 12.8472C0.228808 13.4019 0 14.0884 0 14.7803V27.2623C0 29.0392 1.44562 30.4848 3.22246 30.4848H13.5802C15.0253 32.9071 18.1413 33.7178 20.5839 32.3074L28.398 27.7959C30.8443 26.3832 31.7169 23.234 30.285 20.7529ZM3.86699 1.93346C3.86699 1.57807 4.15613 1.28893 4.51146 1.28893H16.1124C16.4678 1.28893 16.757 1.57807 16.757 1.93346V4.89817C16.757 5.25357 16.4678 5.54264 16.1124 5.54264H4.51152C4.15613 5.54264 3.86705 5.2535 3.86705 4.89817V1.93346H3.86699ZM1.67578 13.6202L5.02708 9.15188C5.11074 9.04038 5.15599 8.90464 5.15599 8.76516V6.8317H15.468V8.1207H9.66751C9.3116 8.1207 9.02298 8.40932 9.02298 8.76523C9.02298 9.12114 9.3116 9.40976 9.66751 9.40976H15.7902L18.948 13.62C19.1544 13.8955 19.2826 14.2252 19.3213 14.5657H1.30273C1.3414 14.2251 1.46959 13.8954 1.67578 13.6202ZM3.22252 29.1958C2.15641 29.1958 1.28906 28.3284 1.28906 27.2623V26.6114H12.9986C12.7942 27.447 12.7955 28.3396 13.0296 29.1958H3.22252V29.1958ZM13.5041 25.3288H1.289V15.8546H19.335V21.1213L15.4279 23.3773C14.6132 23.8478 13.9548 24.5177 13.5041 25.3288ZM19.9395 31.1911C18.0899 32.2591 15.7264 31.6275 14.6577 29.7766C13.5838 27.9079 14.2346 25.5551 16.0725 24.4935L19.5709 22.4736L23.4378 29.1713L19.9395 31.1911ZM27.7534 26.6796L24.5542 28.5268L20.6871 21.829L23.8864 19.9821C25.7373 18.9136 28.0999 19.5463 29.1687 21.3973C30.2421 23.2575 29.5894 25.6194 27.7534 26.6796Z" fill="#E84E2C"/>
</svg>
