<svg width="30" height="30" viewBox="0 0 30 30" fill="none" xmlns="http://www.w3.org/2000/svg">
<g opacity="0.4">
<path fill-rule="evenodd" clip-rule="evenodd" d="M11.25 16.25H23.75C24.0815 16.25 24.3995 16.3817 24.6339 16.6161C24.8683 16.8505 25 17.1685 25 17.5C25 17.8315 24.8683 18.1495 24.6339 18.3839C24.3995 18.6183 24.0815 18.75 23.75 18.75H11.25C10.9185 18.75 10.6005 18.6183 10.3661 18.3839C10.1317 18.1495 10 17.8315 10 17.5C10 17.1685 10.1317 16.8505 10.3661 16.6161C10.6005 16.3817 10.9185 16.25 11.25 16.25ZM11.25 21.25H23.75C24.0815 21.25 24.3995 21.3817 24.6339 21.6161C24.8683 21.8505 25 22.1685 25 22.5C25 22.8315 24.8683 23.1495 24.6339 23.3839C24.3995 23.6183 24.0815 23.75 23.75 23.75H11.25C10.9185 23.75 10.6005 23.6183 10.3661 23.3839C10.1317 23.1495 10 22.8315 10 22.5C10 22.1685 10.1317 21.8505 10.3661 21.6161C10.6005 21.3817 10.9185 21.25 11.25 21.25ZM18.75 11.25H23.75C24.0815 11.25 24.3995 11.3817 24.6339 11.6161C24.8683 11.8505 25 12.1685 25 12.5C25 12.8315 24.8683 13.1495 24.6339 13.3839C24.3995 13.6183 24.0815 13.75 23.75 13.75H18.75C18.4185 13.75 18.1005 13.6183 17.8661 13.3839C17.6317 13.1495 17.5 12.8315 17.5 12.5C17.5 12.1685 17.6317 11.8505 17.8661 11.6161C18.1005 11.3817 18.4185 11.25 18.75 11.25ZM9.67875 13.6425L5 8.965L6.7675 7.19625L9.67875 10.1075L16.035 3.75L17.8038 5.5175L9.67875 13.6425Z" fill="#2A4472"/>
</g>
</svg>
