<svg width="20" height="21" viewBox="0 0 20 21" fill="none" xmlns="http://www.w3.org/2000/svg">
<path fill-rule="evenodd" clip-rule="evenodd" d="M6.25 13.25H18.75C19.0815 13.25 19.3995 13.3817 19.6339 13.6161C19.8683 13.8505 20 14.1685 20 14.5C20 14.8315 19.8683 15.1495 19.6339 15.3839C19.3995 15.6183 19.0815 15.75 18.75 15.75H6.25C5.91848 15.75 5.60054 15.6183 5.36612 15.3839C5.1317 15.1495 5 14.8315 5 14.5C5 14.1685 5.1317 13.8505 5.36612 13.6161C5.60054 13.3817 5.91848 13.25 6.25 13.25ZM6.25 18.25H18.75C19.0815 18.25 19.3995 18.3817 19.6339 18.6161C19.8683 18.8505 20 19.1685 20 19.5C20 19.8315 19.8683 20.1495 19.6339 20.3839C19.3995 20.6183 19.0815 20.75 18.75 20.75H6.25C5.91848 20.75 5.60054 20.6183 5.36612 20.3839C5.1317 20.1495 5 19.8315 5 19.5C5 19.1685 5.1317 18.8505 5.36612 18.6161C5.60054 18.3817 5.91848 18.25 6.25 18.25ZM13.75 8.25H18.75C19.0815 8.25 19.3995 8.3817 19.6339 8.61612C19.8683 8.85054 20 9.16848 20 9.5C20 9.83152 19.8683 10.1495 19.6339 10.3839C19.3995 10.6183 19.0815 10.75 18.75 10.75H13.75C13.4185 10.75 13.1005 10.6183 12.8661 10.3839C12.6317 10.1495 12.5 9.83152 12.5 9.5C12.5 9.16848 12.6317 8.85054 12.8661 8.61612C13.1005 8.3817 13.4185 8.25 13.75 8.25ZM4.67875 10.6425L0 5.965L1.7675 4.19625L4.67875 7.1075L11.035 0.75L12.8038 2.5175L4.67875 10.6425Z" fill="#2A4472"/>
</svg>
