<svg width="20" height="20" viewBox="0 0 20 20" fill="none" xmlns="http://www.w3.org/2000/svg">
<g opacity="0.2">
<path d="M14.1745 6.45093H13.1277C12.9 6.45093 12.6835 6.5603 12.5495 6.7478L9.0406 11.6139L7.45131 9.40852C7.31739 9.22325 7.1031 9.11164 6.87319 9.11164H5.82632C5.68123 9.11164 5.5964 9.27682 5.68123 9.39512L8.46248 13.2523C8.52818 13.344 8.61479 13.4187 8.71514 13.4702C8.81549 13.5218 8.92667 13.5487 9.03948 13.5487C9.1523 13.5487 9.26348 13.5218 9.36383 13.4702C9.46418 13.4187 9.55079 13.344 9.61649 13.2523L14.3174 6.73441C14.4044 6.61611 14.3196 6.45093 14.1745 6.45093Z" fill="#2A4472"/>
<path d="M10 0C4.47768 0 0 4.47768 0 10C0 15.5223 4.47768 20 10 20C15.5223 20 20 15.5223 20 10C20 4.47768 15.5223 0 10 0ZM10 18.3036C5.41518 18.3036 1.69643 14.5848 1.69643 10C1.69643 5.41518 5.41518 1.69643 10 1.69643C14.5848 1.69643 18.3036 5.41518 18.3036 10C18.3036 14.5848 14.5848 18.3036 10 18.3036Z" fill="#2A4472"/>
</g>
</svg>
