<svg width="42" height="42" viewBox="0 0 42 42" fill="none" xmlns="http://www.w3.org/2000/svg">
<path d="M21.2927 0.00195111C9.48337 -0.157553 -0.157553 9.48337 0.00195111 21.2927C0.159436 32.6185 9.38141 41.8405 20.7072 41.998C32.5186 42.1595 42.1575 32.5186 41.996 20.7092C41.8405 9.38141 32.6185 0.159436 21.2927 0.00195111ZM30.5904 12.8471L22.2881 31.6767C21.8046 32.7336 20.1903 32.3833 20.1903 31.2163V22.2114C20.1903 22.1043 20.1478 22.0016 20.0721 21.9259C19.9963 21.8501 19.8936 21.8076 19.7865 21.8076H10.7836C9.62066 21.8076 9.26935 20.2055 10.3223 19.7209L29.1529 11.4095C29.3541 11.3166 29.5789 11.2877 29.7971 11.3265C30.0153 11.3654 30.2162 11.4703 30.3729 11.627C30.5297 11.7837 30.6345 11.9847 30.6734 12.2029C30.7123 12.421 30.6833 12.6459 30.5904 12.8471V12.8471Z" fill="#2A4472"/>
</svg>
