<svg width="16" height="16" viewBox="0 0 16 16" fill="none" xmlns="http://www.w3.org/2000/svg">
<path d="M8 0C3.57841 0 0 3.578 0 8C0 12.4215 3.578 16 8 16C12.4216 16 16 12.422 16 8C16 3.57847 12.422 0 8 0ZM8 14.8837C4.20431 14.8837 1.11628 11.7957 1.11628 8C1.11628 4.20428 4.20431 1.11628 8 1.11628C11.7957 1.11628 14.8837 4.20428 14.8837 8C14.8837 11.7957 11.7957 14.8837 8 14.8837Z" fill="#E84E2C"/>
<path d="M8.00019 6.66866C7.52631 6.66866 7.18934 6.86878 7.18934 7.16362V11.1757C7.18934 11.4284 7.52631 11.6811 8.00019 11.6811C8.453 11.6811 8.82153 11.4284 8.82153 11.1757V7.16356C8.82153 6.86875 8.453 6.66866 8.00019 6.66866Z" fill="#E84E2C"/>
<path d="M8.00019 4.194C7.51578 4.194 7.13672 4.5415 7.13672 4.94166C7.13672 5.34184 7.51581 5.69987 8.00019 5.69987C8.47406 5.69987 8.85319 5.34184 8.85319 4.94166C8.85319 4.5415 8.47403 4.194 8.00019 4.194Z" fill="#E84E2C"/>
</svg>
