<svg width="38" height="32" viewBox="0 0 38 32" fill="none" xmlns="http://www.w3.org/2000/svg">
<path d="M29.2963 6.83739H8.03714C7.73483 6.83739 7.48983 7.0964 7.48983 7.41601C7.48983 7.73562 7.73483 7.99463 8.03714 7.99463H29.2963C29.5986 7.99463 29.8436 7.73562 29.8436 7.41601C29.8436 7.0964 29.5986 6.83739 29.2963 6.83739Z" fill="white"/>
<path d="M29.2963 13.1376H8.03714C7.73483 13.1376 7.48983 13.3966 7.48983 13.7163C7.48983 14.0358 7.73483 14.2949 8.03714 14.2949H29.2963C29.5986 14.2949 29.8436 14.0359 29.8436 13.7163C29.8436 13.3966 29.5986 13.1376 29.2963 13.1376Z" fill="white"/>
<path d="M22.3266 17.2264H15.0068C14.7045 17.2264 14.4595 17.4854 14.4595 17.805C14.4595 18.1245 14.7045 18.3836 15.0068 18.3836H22.3266C22.6289 18.3836 22.8739 18.1246 22.8739 17.805C22.8739 17.4854 22.6289 17.2264 22.3266 17.2264Z" fill="white"/>
<path d="M29.2963 9.97463H13.4388C13.1365 9.97463 12.8915 10.2336 12.8915 10.5533C12.8915 10.8728 13.1365 11.1319 13.4388 11.1319H29.2963C29.5986 11.1319 29.8436 10.8729 29.8436 10.5533C29.8436 10.2336 29.5986 9.97463 29.2963 9.97463Z" fill="white"/>
<path d="M10.8924 9.97455H8.03714C7.73483 9.97455 7.48983 10.2336 7.48983 10.5532C7.48983 10.8728 7.73483 11.1318 8.03714 11.1318H10.8924C11.1947 11.1318 11.4397 10.8728 11.4397 10.5532C11.4397 10.2336 11.1947 9.97455 10.8924 9.97455Z" fill="white"/>
<path d="M34.5079 5.85946C34.3806 5.72725 34.2121 5.65448 34.0324 5.65448H34.032C32.9227 5.65448 32.0148 4.73775 31.9649 3.56709C31.9485 3.18643 31.6526 2.88833 31.2913 2.88833H5.9119C5.55052 2.88833 5.25455 3.18651 5.23822 3.56747C5.1906 4.6861 4.32443 5.6019 3.26626 5.65224C2.90605 5.66936 2.62394 5.98226 2.62394 6.36446V21.3211C2.62394 21.7034 2.90605 22.0162 3.26626 22.0333C4.32443 22.0837 5.1906 22.9994 5.23822 24.1184C5.25462 24.4991 5.55059 24.7972 5.9119 24.7972H22.0686C22.3709 24.7972 22.6159 24.5382 22.6159 24.2186C22.6159 23.899 22.3709 23.64 22.0686 23.64H6.28829C6.06203 22.2463 5.03675 21.1623 3.71849 20.9231V6.76231C5.03675 6.52311 6.06203 5.43894 6.28829 4.0455H30.9151C31.1506 5.48319 32.2455 6.59295 33.6149 6.78289V16.6092C33.6149 16.9288 33.8599 17.1878 34.1622 17.1878C34.4645 17.1878 34.7095 16.9288 34.7095 16.6092V6.3677C34.7095 6.17505 34.6379 5.99451 34.5079 5.85946Z" fill="white"/>
<path d="M35.8141 0H1.51922C0.681552 0 0 0.720541 0 1.60613V26.0793C0 26.9649 0.681552 27.6854 1.51922 27.6854H24.4915L23.6782 29.4872C23.5737 29.7185 23.5991 29.9898 23.7444 30.195C23.8897 30.4003 24.1288 30.5023 24.368 30.4618L25.8822 30.2045L26.7268 31.6701C26.8452 31.8758 27.0557 31.9999 27.2818 31.9999C27.2928 31.9999 27.3039 31.9996 27.3149 31.999C27.5535 31.9862 27.7656 31.8367 27.8687 31.6086L29.3362 28.3576L30.8036 31.6084C30.9064 31.8364 31.1185 31.9861 31.3572 31.9991C31.3683 31.9997 31.3795 32 31.3906 32C31.6167 32 31.8272 31.8759 31.9456 31.6703L32.7902 30.2046L34.3044 30.462C34.5443 30.5026 34.783 30.4003 34.9282 30.1949C35.0734 29.9895 35.0987 29.7183 34.9942 29.4874L34.1809 27.6856H35.8141C36.6518 27.6856 37.3333 26.9652 37.3333 26.0795V1.60613C37.3333 0.720541 36.6518 0 35.8141 0ZM27.2344 30.3268L26.6615 29.3328C26.5236 29.0933 26.2653 28.9674 26.0032 29.0118L25.031 29.1771L26.0552 26.9083C26.4588 27.3437 27.0339 27.579 27.6309 27.5196C27.835 27.4989 28.0396 27.557 28.2068 27.6826C28.2619 27.7241 28.3192 27.7609 28.3771 27.7955L27.2344 30.3268ZM29.4667 26.8958C29.465 26.896 29.4634 26.8962 29.4616 26.8965C29.3786 26.9094 29.2943 26.9094 29.2113 26.8965C29.2092 26.8962 29.2071 26.896 29.205 26.8957C29.0765 26.8747 28.9515 26.8226 28.8408 26.7394C28.5098 26.4906 28.1145 26.3583 27.7112 26.3583C27.6501 26.3583 27.5889 26.3614 27.5276 26.3675C27.1653 26.4036 26.8211 26.1933 26.6699 25.8439C26.6027 25.6888 26.517 25.5453 26.4176 25.414C26.4132 25.4074 26.4084 25.4013 26.4038 25.3949C26.3982 25.3879 26.3931 25.3805 26.3875 25.3735C26.3812 25.3657 26.3745 25.3582 26.3678 25.3507C26.1868 25.1305 25.9631 24.9508 25.7084 24.8276C25.3779 24.6677 25.1789 24.3032 25.2132 23.9206C25.2572 23.4284 25.1323 22.9353 24.8614 22.5324C24.6507 22.2192 24.6507 21.7983 24.8613 21.4851C25.1323 21.0822 25.2572 20.5891 25.2132 20.0968C25.1789 19.7143 25.378 19.3498 25.7084 19.1899C26.1338 18.9842 26.4752 18.6232 26.6698 18.1736C26.8211 17.8241 27.1666 17.6137 27.5276 17.65C27.9938 17.6965 28.4597 17.5644 28.8409 17.278C29.1372 17.0553 29.5353 17.0553 29.8314 17.278C30.2127 17.5644 30.6787 17.6962 31.1447 17.65C31.5069 17.6136 31.8514 17.8242 32.0026 18.1736C32.1972 18.6232 32.5386 18.9842 32.9639 19.1898C33.2944 19.3498 33.4935 19.7143 33.4592 20.0968C33.4152 20.5891 33.5401 21.0822 33.811 21.485C34.0217 21.7983 34.0217 22.2191 33.811 22.5323C33.5401 22.9353 33.4152 23.4284 33.4592 23.9206C33.4935 24.3032 33.2944 24.6676 32.9638 24.8276C32.7097 24.9505 32.4866 25.1298 32.3058 25.3493C32.2984 25.3575 32.2911 25.3657 32.2842 25.3743C32.2795 25.3803 32.275 25.3865 32.2703 25.3926C32.2648 25.4 32.2593 25.4073 32.2542 25.4149C32.155 25.546 32.0695 25.6892 32.0026 25.8439C31.8513 26.1933 31.5066 26.4038 31.1447 26.3675C30.6795 26.3212 30.2128 26.453 29.8314 26.7394C29.7206 26.8227 29.5955 26.8748 29.4667 26.8958ZM32.6691 29.0118C32.4069 28.9674 32.1488 29.0933 32.0108 29.3328L31.4379 30.3269L30.2953 27.7955C30.3532 27.7609 30.4104 27.7241 30.4656 27.6826C30.6329 27.557 30.8376 27.4987 31.0415 27.5195C31.6387 27.579 32.2136 27.3437 32.6173 26.9083L33.6414 29.177L32.6691 29.0118ZM36.2388 26.0793C36.2388 26.3269 36.0483 26.5283 35.8141 26.5283H33.6585L33.3763 25.9031C33.3905 25.8952 33.4047 25.8868 33.4194 25.8798C34.173 25.515 34.627 24.6839 34.5489 23.8116C34.5295 23.5957 34.5843 23.3795 34.7032 23.2027C35.1834 22.4885 35.1834 21.5288 34.7031 20.8145C34.5843 20.6378 34.5295 20.4217 34.5489 20.2058C34.627 19.3334 34.173 18.5023 33.4193 18.1376C33.2329 18.0473 33.0832 17.889 32.9978 17.6919C32.6529 16.8951 31.8663 16.4154 31.0414 16.4978C30.8371 16.5184 30.6327 16.4604 30.4656 16.3347C29.79 15.827 28.8821 15.8269 28.2066 16.3347C28.0394 16.4604 27.8345 16.5184 27.6308 16.4978C26.8047 16.4156 26.0194 16.8951 25.6745 17.6919C25.5892 17.889 25.4395 18.0472 25.2529 18.1375C24.4993 18.5022 24.0454 19.3333 24.1235 20.2057C24.1428 20.4216 24.088 20.6378 23.9692 20.8145C23.4889 21.5288 23.4889 22.4885 23.9692 23.2026C24.088 23.3793 24.1428 23.5956 24.1235 23.8115C24.0454 24.6839 24.4993 25.5151 25.2529 25.8797C25.2677 25.8868 25.2817 25.8951 25.296 25.903L25.0138 26.5283H1.51922C1.28508 26.5283 1.09455 26.3269 1.09455 26.0793V1.60613C1.09455 1.3586 1.28501 1.15717 1.51922 1.15717H35.8141C36.0482 1.15717 36.2388 1.3586 36.2388 1.60613V26.0793Z" fill="white"/>
<path d="M29.2962 18.4138C27.4212 18.4138 25.8958 20.0264 25.8958 22.0086C25.8958 23.9909 27.4212 25.6035 29.2962 25.6035C31.1712 25.6035 32.6965 23.9908 32.6965 22.0086C32.6965 20.0264 31.1712 18.4138 29.2962 18.4138ZM29.2962 24.4463C28.0248 24.4463 26.9904 23.3527 26.9904 22.0085C26.9904 20.6644 28.0248 19.5709 29.2962 19.5709C30.5676 19.5709 31.602 20.6644 31.602 22.0085C31.602 23.3527 30.5676 24.4463 29.2962 24.4463Z" fill="white"/>
</svg>
