<svg width="33" height="29" viewBox="0 0 33 29" fill="none" xmlns="http://www.w3.org/2000/svg">
<path d="M32.9939 8.81604C32.8172 3.92513 28.7307 0 23.7328 0C20.9107 0 18.2538 1.27224 16.4999 3.43327C14.7461 1.27224 12.0891 0 9.26709 0C4.26912 0 0.182629 3.92513 0.00594127 8.81604C0.00206653 8.84052 0 8.86563 0 8.89119C0 8.93517 0.000258316 8.97927 0.000839527 9.02338C0.000258316 9.06417 0 9.10522 0 9.14613C0 9.16933 0.00167905 9.19209 0.004908 9.2144C0.0492092 10.6786 0.394255 12.1853 1.0341 13.7195C1.03391 13.7247 1.03326 13.7298 1.03326 13.7351C1.03326 13.8762 1.09558 14.0027 1.19419 14.0902C1.56843 14.928 2.02972 15.7736 2.57812 16.6247C3.9295 18.7222 5.80953 20.8603 8.16595 22.9797C12.1619 26.5736 16.2163 28.9122 16.2568 28.9354C16.332 28.9785 16.416 29 16.5 29C16.584 29 16.668 28.9785 16.7432 28.9354C16.7837 28.9122 20.8381 26.5736 24.834 22.9797C27.1905 20.8604 29.0705 18.7222 30.4219 16.6247C32.0583 14.0849 32.9231 11.5937 32.9951 9.2144C32.9983 9.19209 33 9.16927 33 9.14613V8.89119C32.9999 8.86563 32.9978 8.84052 32.9939 8.81604ZM29.6091 16.1043C28.3059 18.1289 26.4841 20.2005 24.1943 22.2615C20.8302 25.2896 17.4237 27.4097 16.4999 27.9646C15.5761 27.4097 12.1697 25.2896 8.80554 22.2615C6.51576 20.2005 4.69399 18.1289 3.39072 16.1043C2.98174 15.469 2.62456 14.8383 2.31858 14.2132H7.4178L8.31719 15.9885C8.40651 16.1648 8.59637 16.269 8.79521 16.2507C8.99411 16.2324 9.16124 16.0955 9.21613 15.9061L10.7338 10.6635L12.4085 18.9278C12.4538 19.1513 12.6526 19.3121 12.8834 19.3121C13.1143 19.3121 13.3131 19.1513 13.3584 18.9278L14.3138 14.2132H17.7504L18.6498 15.9885C18.7399 16.1662 18.9317 16.2703 19.1321 16.2502C19.3324 16.2301 19.4992 16.0898 19.551 15.8978L21.1864 9.84525L23.2704 16.4272C23.3316 16.6202 23.5091 16.7544 23.7139 16.7622C23.919 16.7708 24.1063 16.6499 24.1824 16.4622L25.094 14.2132H30.6813C30.3753 14.8383 30.0181 15.469 29.6091 16.1043ZM31.1026 13.2768C31.0591 13.2642 31.0132 13.2571 30.9656 13.2571H24.766C24.568 13.2571 24.3899 13.3761 24.3164 13.5576L23.7889 14.8591L21.6119 7.98371C21.5476 7.78059 21.3572 7.64572 21.1394 7.6484C20.9239 7.65292 20.7372 7.79754 20.6817 8.00315L18.9446 14.4323L18.4831 13.5214C18.4011 13.3594 18.2334 13.2571 18.0499 13.2571H13.9168C13.686 13.2571 13.4872 13.4179 13.4419 13.6414L12.8836 16.3966L11.292 8.54249C11.2481 8.32611 11.0599 8.16753 10.8366 8.15861C10.6135 8.14962 10.4128 8.29277 10.3513 8.50488L8.62679 14.4617L8.15039 13.5214C8.06837 13.3594 7.90066 13.2571 7.71719 13.2571H1.88919C1.29681 11.8073 0.988317 10.3915 0.969589 9.02389C1.03598 4.56395 4.73267 0.956042 9.26709 0.956042C11.9938 0.956042 14.5486 2.28277 16.1012 4.50512C16.1916 4.63451 16.3407 4.71182 16.4999 4.71182C16.6592 4.71182 16.8083 4.63457 16.8986 4.50512C18.4513 2.28277 21.0061 0.956042 23.7328 0.956042C28.2672 0.956042 31.9639 4.56395 32.0303 9.02389C32.0115 10.3977 31.7002 11.8201 31.1026 13.2768Z" fill="white"/>
</svg>
