<svg width="31" height="31" viewBox="0 0 31 31" fill="none" xmlns="http://www.w3.org/2000/svg">
<path d="M14.2933 21.6091C14.1807 21.4959 14.0251 21.4317 13.8652 21.4317C13.706 21.4317 13.5498 21.4959 13.4372 21.6091C13.3246 21.7217 13.2598 21.8774 13.2598 22.0371C13.2598 22.1964 13.3246 22.3526 13.4372 22.4652C13.5498 22.5778 13.706 22.6426 13.8652 22.6426C14.0245 22.6426 14.1807 22.5778 14.2933 22.4652C14.4059 22.3526 14.4707 22.1964 14.4707 22.0371C14.4707 21.8774 14.4059 21.7218 14.2933 21.6091Z" fill="white"/>
<path d="M26.047 3.26928H19.8896C19.5552 3.26928 19.2842 3.54041 19.2842 3.87475C19.2842 4.20909 19.5552 4.48022 19.8896 4.48022H26.047C26.3076 4.48022 26.5195 4.69086 26.5195 4.9497V9.50584C26.5195 9.84018 26.7906 10.1113 27.125 10.1113C27.4594 10.1113 27.7305 9.84018 27.7305 9.50584V4.9497C27.7305 4.02309 26.9753 3.26928 26.047 3.26928Z" fill="white"/>
<path d="M18.1078 3.44632C17.9951 3.3337 17.8389 3.26953 17.6797 3.26953C17.5204 3.26953 17.3642 3.3337 17.2516 3.44632C17.139 3.55954 17.0742 3.71509 17.0742 3.87499C17.0742 4.03423 17.139 4.19044 17.2516 4.303C17.3643 4.41568 17.5204 4.48046 17.6797 4.48046C17.8389 4.48046 17.9951 4.41568 18.1078 4.303C18.2204 4.19044 18.2852 4.03423 18.2852 3.87499C18.2852 3.71509 18.2204 3.55954 18.1078 3.44632Z" fill="white"/>
<path d="M25.857 19.5145C26.628 18.759 27.1076 17.707 27.1076 16.5448V12.1094C27.1076 11.775 26.8366 11.5039 26.5022 11.5039H22.0988C20.2727 11.5039 18.787 12.9895 18.787 14.8156V16.5448C18.787 17.6968 19.2579 18.7407 20.017 19.4948H16.1055V18.2611C16.1055 15.9588 14.3742 14.0544 12.1454 13.7783C12.5859 13.2347 12.8505 12.543 12.8505 11.7905V9.30555C12.8505 9.28139 12.8487 9.25772 12.8459 9.23429C12.8487 9.19088 12.8505 9.14728 12.8505 9.10321V7.53105C12.8505 7.19671 12.5794 6.92558 12.245 6.92558H9.07707C7.66959 6.92558 6.52459 8.07064 6.52459 9.47805V11.7905C6.52459 12.543 6.78918 13.2347 7.22966 13.7783C5.00081 14.0544 3.26953 15.9587 3.26953 18.2611V19.4948H1.21094V4.9497C1.21094 4.69086 1.42291 4.48022 1.68351 4.48022H2.40171C2.73611 4.48022 3.00718 4.20909 3.00718 3.87475C3.00718 3.54041 2.73611 3.26928 2.40171 3.26928H1.68351C0.755262 3.26928 0 4.02309 0 4.9497V22.9004C0 23.827 0.755201 24.5808 1.68351 24.5808H10.8972V27.3789C9.36981 27.5336 8.17383 28.827 8.17383 30.3945C8.17383 30.7289 8.4449 31 8.7793 31H30.3945C30.7289 31 31 30.7289 31 30.3945V25.1134C31 22.1753 28.7333 19.7571 25.857 19.5145ZM19.998 16.5448V14.8156C19.998 13.6572 20.9404 12.7148 22.0988 12.7148H25.8967V16.5448C25.8967 18.1711 24.5736 19.4942 22.9473 19.4942C21.321 19.4942 19.998 18.1711 19.998 16.5448ZM7.73547 9.47805C7.73547 8.73829 8.33724 8.13652 9.07701 8.13652H11.6395V9.10321C11.6395 9.58346 11.2488 9.97417 10.7685 9.97417H7.73547V9.47805ZM7.73547 11.185H10.7685C11.0794 11.185 11.3743 11.1161 11.6395 10.9934V11.7905H11.6395C11.6395 12.8667 10.7638 13.7424 9.6875 13.7424C8.61116 13.7424 7.73547 12.8667 7.73547 11.7905V11.185ZM10.394 14.9534L9.6875 15.6599L8.98098 14.9534H10.394ZM4.48047 18.2611C4.48047 16.6017 5.70896 15.2241 7.30413 14.9892L9.25931 16.9444C9.37756 17.0626 9.5325 17.1217 9.68744 17.1217C9.84238 17.1217 9.99738 17.0626 10.1156 16.9444L12.0707 14.9892C13.6659 15.2241 14.8944 16.6017 14.8944 18.2611V19.4948H4.48047V18.2611ZM14.8945 29.789H9.48818C9.73824 29.0821 10.4133 28.5743 11.2049 28.5743H14.8945V29.789ZM14.8945 25.1133V27.3633H12.1081V24.5807H14.92C14.9034 24.7561 14.8945 24.9337 14.8945 25.1133ZM1.68351 23.3698C1.42291 23.3698 1.21094 23.1592 1.21094 22.9004V20.7058H17.0323C16.1746 21.3847 15.5191 22.3082 15.1718 23.3698H1.68351ZM29.7891 27.3633H25.1572C24.8228 27.3633 24.5518 27.6345 24.5518 27.9688C24.5518 28.3031 24.8228 28.5743 25.1572 28.5743H29.7891V29.789H16.1055V25.1133C16.1055 22.6912 18.0692 20.7196 20.4881 20.7057H22.2812C22.2856 20.7057 22.2898 20.7052 22.2941 20.7051H25.3808C27.8115 20.7051 29.7891 22.6826 29.7891 25.1133V27.3633Z" fill="white"/>
<path d="M9.69979 0C9.36539 0 9.09432 0.271128 9.09432 0.605468V3.87499C9.09432 4.20933 9.36539 4.48046 9.69979 4.48046C10.0342 4.48046 10.3053 4.20933 10.3053 3.87499V0.605468C10.3053 0.271128 10.0343 0 9.69979 0Z" fill="white"/>
<path d="M14.8327 2.37501C14.5963 2.13863 14.2129 2.13863 13.9764 2.37501L12.9122 3.43924C12.6758 3.67567 12.6758 4.05905 12.9122 4.29555C13.0305 4.41368 13.1854 4.47283 13.3404 4.47283C13.4954 4.47283 13.6504 4.41368 13.7685 4.29549L14.8327 3.23132C15.0692 2.99488 15.0692 2.6115 14.8327 2.37501Z" fill="white"/>
<path d="M6.47301 3.4465L5.3986 2.37216C5.16211 2.13585 4.77878 2.13579 4.54235 2.37216C4.30591 2.6086 4.30585 2.99198 4.54235 3.22847L5.61669 4.30282C5.73494 4.421 5.88988 4.48016 6.04482 4.48016C6.19976 4.48016 6.35476 4.421 6.47295 4.30282C6.70938 4.06638 6.7095 3.683 6.47301 3.4465Z" fill="white"/>
<path d="M23.3753 27.5409C23.2627 27.4277 23.1065 27.3634 22.9473 27.3634C22.788 27.3634 22.6318 27.4277 22.5192 27.5409C22.4066 27.6535 22.3418 27.8091 22.3418 27.9689C22.3418 28.1281 22.4066 28.2844 22.5192 28.397C22.6318 28.5096 22.788 28.5744 22.9473 28.5744C23.1065 28.5744 23.2627 28.5097 23.3753 28.397C23.4879 28.2843 23.5527 28.1281 23.5527 27.9689C23.5527 27.8091 23.4879 27.6535 23.3753 27.5409Z" fill="white"/>
</svg>
