<svg width="33" height="33" viewBox="0 0 33 33" fill="none" xmlns="http://www.w3.org/2000/svg">
<path d="M16.25 10H13.75V13.75H10V16.25H13.75V20H16.25V16.25H20V13.75H16.25V10Z" fill="white"/>
<path d="M15.2635 5C9.60448 5 5 9.60423 5 15.263C5 20.9217 9.60448 25.526 15.2635 25.526C17.5407 25.5255 19.7523 24.7632 21.5461 23.3605L27.1859 29L29 27.186L23.3602 21.5465C24.7637 19.7526 25.5265 17.5407 25.5271 15.263C25.5271 9.60423 20.9226 5 15.2635 5ZM15.2635 22.9602C11.0183 22.9602 7.56588 19.508 7.56588 15.263C7.56588 11.018 11.0183 7.56575 15.2635 7.56575C19.5088 7.56575 22.9612 11.018 22.9612 15.263C22.9612 19.508 19.5088 22.9602 15.2635 22.9602Z" fill="white"/>
</svg>
