<svg width="25" height="24" viewBox="0 0 25 24" fill="none" xmlns="http://www.w3.org/2000/svg">
<mask id="path-1-outside-1" maskUnits="userSpaceOnUse" x="0" y="0" width="25" height="24" fill="black">
<rect fill="white" width="25" height="24"/>
<path d="M20.4058 3.36364L19.5851 4.51515L19.3021 4.24242L18.9908 4L18.3681 3.57576L17.6889 3.21212L17.3776 3.0303L17.038 2.87879L16.6701 2.75758L15.9909 2.51515L15.623 2.42424L15.2834 2.33333L14.9155 2.27273L14.5475 2.24242L14.1796 2.18182H13.1042L12.0005 2.27273L11.6609 2.36364L11.293 2.42424L10.9533 2.54545L10.5854 2.63636L10.2458 2.75758L9.227 3.21212L8.91569 3.39394L8.57608 3.60606L9.14209 2.51515L9.51 2.30303L9.84961 2.09091L10.1892 1.93939L10.5571 1.75758L10.8967 1.60606L11.6326 1.36364L12.3684 1.18182L13.1042 1.06061L13.84 1H14.5758L15.3117 1.06061L16.0475 1.18182L16.3871 1.27273L16.755 1.36364L17.1229 1.48485L17.8021 1.72727L18.1417 1.87879L19.1606 2.42424L19.4719 2.63636L20.4058 3.36364ZM21.4529 18.7879L21.3397 18.3939L21.5378 18.0909L21.7642 17.7576L21.9623 17.4242L22.1321 17.0606L22.3303 16.6667L22.5001 16.2424L22.6416 15.8182L22.7831 15.3636L22.8963 14.8788L22.9812 14.4242L23.0661 13.9394L23.1227 13.4545L23.151 12.9697V11.9697L23.1227 11.4848L23.0378 11L22.9812 10.5152L22.7548 9.54545L22.6133 9.06061L22.4435 8.60606L22.0472 7.69697L21.8208 7.24242L21.5661 6.81818L21.2831 6.39394L21.0001 6L20.3209 5.21212L19.9813 4.84848L19.5851 4.51515L20.4058 3.36364L20.7737 3.69697L21.4812 4.45455L21.7925 4.84848L22.1038 5.27273L22.3869 5.69697L22.6416 6.12121L22.868 6.57576L23.2642 7.48485L23.434 7.9697L23.717 8.93939L23.8868 9.90909L24 10.9394V11.9394L23.9717 12.4545L23.9151 12.9697L23.8302 13.4848L23.6038 14.5152L23.2642 15.5455L23.0378 16.0606L22.8114 16.6061L22.5284 17.1515L21.8491 18.2424L21.4529 18.7879ZM7.30254 20.6364L8.09496 19.5152L8.49118 19.8182L8.91569 20.1212L9.3119 20.4242L9.73641 20.6667L10.1609 20.8788L10.6137 21.0909L11.0665 21.2727L11.5194 21.4242L12.425 21.6667L13.3306 21.7879L13.8117 21.8182L14.2645 21.8485L14.7456 21.8182L15.1985 21.7879L15.6513 21.7273L16.5569 21.5455L17.0097 21.3939L17.4342 21.2424L18.2832 20.8788L18.7078 20.6667L19.104 20.4242L20.2077 19.6061L20.519 19.303L21.085 18.697L21.3397 18.3939L21.4529 18.7879L21.0284 19.303L20.6322 19.7576L20.2077 20.1818L19.8115 20.5758L19.387 20.9091L18.538 21.5152L18.1134 21.7576L17.6606 22L17.2361 22.2121L16.7833 22.3939L16.3305 22.5455L15.8494 22.697L14.9438 22.8788L14.4626 22.9394L14.0098 23H13.0476L12.5948 22.9697L12.1137 22.9091L11.6609 22.8182L11.1797 22.7273L10.2741 22.4242L9.82131 22.2424L9.3968 22.0303L8.94399 21.8182L8.09496 21.2727L7.69875 20.9697L7.30254 20.6364Z"/>
<path fill-rule="evenodd" clip-rule="evenodd" d="M5.6894 17.3333L8.54778 18.5455L7.84026 19.0606L8.26477 19.7273L7.35914 20.6667L6.70823 19.9091L6.08561 20.3636L5.6894 17.3333Z"/>
<path d="M8.51948 18.5758L5.6611 17.3636L5.7177 17.303L8.54778 18.5152L8.51948 18.5758ZM8.54778 18.5152H8.57608L8.51948 18.5758L8.54778 18.5152ZM7.84026 19.0303L8.54778 18.5152L8.51948 18.5758L7.81196 19.0909L7.84026 19.0303ZM7.81196 19.0909V19.0606L7.84026 19.0303L7.81196 19.0909ZM8.23647 19.7576L7.81196 19.0909L7.84026 19.0303L8.29307 19.697L8.26477 19.7576H8.23647ZM7.35914 20.6667L8.26477 19.697V19.7576L7.35914 20.697V20.6667ZM6.73653 19.8788L7.38744 20.6364L7.35914 20.697L6.70823 19.9394L6.73653 19.8788ZM6.08561 20.3333L6.73653 19.8788L6.70823 19.9394L6.05731 20.3636L6.08561 20.3333ZM5.7177 17.303L6.08561 20.3333L6.05731 20.3636L5.6611 17.3636L5.7177 17.303ZM5.6611 17.3636V17.2727L5.7177 17.303L5.6611 17.3636Z"/>
<path d="M5.5375 11.5502V12.8376H1C1.04914 12.3509 1.19655 11.8906 1.44223 11.4565C1.68792 11.0192 2.17315 10.4404 2.89792 9.72026C3.48142 9.13822 3.8392 8.74362 3.97126 8.53645C4.14938 8.25037 4.23844 7.96757 4.23844 7.68806C4.23844 7.37896 4.16013 7.1422 4.0035 6.97778C3.84995 6.81007 3.63651 6.72622 3.36319 6.72622C3.09293 6.72622 2.87796 6.81336 2.71826 6.98764C2.55857 7.16193 2.46643 7.4513 2.44187 7.85577L1.15202 7.71766C1.22879 6.95476 1.46987 6.40725 1.87525 6.07513C2.28063 5.74301 2.78736 5.57695 3.39543 5.57695C4.06185 5.57695 4.58547 5.76931 4.96628 6.15405C5.3471 6.53879 5.5375 7.01724 5.5375 7.58941C5.5375 7.91496 5.48222 8.22571 5.37166 8.52166C5.26418 8.81432 5.0922 9.12178 4.85573 9.44404C4.6991 9.65778 4.41656 9.96524 4.00811 10.3664C3.59966 10.7676 3.34015 11.034 3.22959 11.1655C3.12211 11.297 3.03458 11.4253 2.96702 11.5502H5.5375Z"/>
<path d="M8.9556 12.8376V11.3825H6.19164V10.1691L9.12144 5.57695H10.2086V10.1642H11.047V11.3825H10.2086V12.8376H8.9556ZM8.9556 10.1642V7.69299L7.40318 10.1642H8.9556Z"/>
<path d="M16.3634 11.9623V10.6749H20.7903V11.6811C20.4248 12.0659 20.0532 12.6183 19.6755 13.3384C19.2978 14.0586 19.0091 14.8248 18.8095 15.637C18.6129 16.4459 18.5162 17.1694 18.5192 17.8073H17.2709C17.2924 16.8076 17.4843 15.7883 17.8467 14.7491C18.2121 13.71 18.6989 12.7811 19.307 11.9623H16.3634Z"/>
<path d="M13.7268 12.6667C14.1957 12.6667 14.5758 12.2732 14.5758 11.7879C14.5758 11.3025 14.1957 10.9091 13.7268 10.9091C13.2579 10.9091 12.8778 11.3025 12.8778 11.7879C12.8778 12.2732 13.2579 12.6667 13.7268 12.6667Z"/>
</mask>
<path d="M20.4058 3.36364L19.5851 4.51515L19.3021 4.24242L18.9908 4L18.3681 3.57576L17.6889 3.21212L17.3776 3.0303L17.038 2.87879L16.6701 2.75758L15.9909 2.51515L15.623 2.42424L15.2834 2.33333L14.9155 2.27273L14.5475 2.24242L14.1796 2.18182H13.1042L12.0005 2.27273L11.6609 2.36364L11.293 2.42424L10.9533 2.54545L10.5854 2.63636L10.2458 2.75758L9.227 3.21212L8.91569 3.39394L8.57608 3.60606L9.14209 2.51515L9.51 2.30303L9.84961 2.09091L10.1892 1.93939L10.5571 1.75758L10.8967 1.60606L11.6326 1.36364L12.3684 1.18182L13.1042 1.06061L13.84 1H14.5758L15.3117 1.06061L16.0475 1.18182L16.3871 1.27273L16.755 1.36364L17.1229 1.48485L17.8021 1.72727L18.1417 1.87879L19.1606 2.42424L19.4719 2.63636L20.4058 3.36364ZM21.4529 18.7879L21.3397 18.3939L21.5378 18.0909L21.7642 17.7576L21.9623 17.4242L22.1321 17.0606L22.3303 16.6667L22.5001 16.2424L22.6416 15.8182L22.7831 15.3636L22.8963 14.8788L22.9812 14.4242L23.0661 13.9394L23.1227 13.4545L23.151 12.9697V11.9697L23.1227 11.4848L23.0378 11L22.9812 10.5152L22.7548 9.54545L22.6133 9.06061L22.4435 8.60606L22.0472 7.69697L21.8208 7.24242L21.5661 6.81818L21.2831 6.39394L21.0001 6L20.3209 5.21212L19.9813 4.84848L19.5851 4.51515L20.4058 3.36364L20.7737 3.69697L21.4812 4.45455L21.7925 4.84848L22.1038 5.27273L22.3869 5.69697L22.6416 6.12121L22.868 6.57576L23.2642 7.48485L23.434 7.9697L23.717 8.93939L23.8868 9.90909L24 10.9394V11.9394L23.9717 12.4545L23.9151 12.9697L23.8302 13.4848L23.6038 14.5152L23.2642 15.5455L23.0378 16.0606L22.8114 16.6061L22.5284 17.1515L21.8491 18.2424L21.4529 18.7879ZM7.30254 20.6364L8.09496 19.5152L8.49118 19.8182L8.91569 20.1212L9.3119 20.4242L9.73641 20.6667L10.1609 20.8788L10.6137 21.0909L11.0665 21.2727L11.5194 21.4242L12.425 21.6667L13.3306 21.7879L13.8117 21.8182L14.2645 21.8485L14.7456 21.8182L15.1985 21.7879L15.6513 21.7273L16.5569 21.5455L17.0097 21.3939L17.4342 21.2424L18.2832 20.8788L18.7078 20.6667L19.104 20.4242L20.2077 19.6061L20.519 19.303L21.085 18.697L21.3397 18.3939L21.4529 18.7879L21.0284 19.303L20.6322 19.7576L20.2077 20.1818L19.8115 20.5758L19.387 20.9091L18.538 21.5152L18.1134 21.7576L17.6606 22L17.2361 22.2121L16.7833 22.3939L16.3305 22.5455L15.8494 22.697L14.9438 22.8788L14.4626 22.9394L14.0098 23H13.0476L12.5948 22.9697L12.1137 22.9091L11.6609 22.8182L11.1797 22.7273L10.2741 22.4242L9.82131 22.2424L9.3968 22.0303L8.94399 21.8182L8.09496 21.2727L7.69875 20.9697L7.30254 20.6364Z" fill="white" fill-opacity="0.9"/>
<path fill-rule="evenodd" clip-rule="evenodd" d="M5.6894 17.3333L8.54778 18.5455L7.84026 19.0606L8.26477 19.7273L7.35914 20.6667L6.70823 19.9091L6.08561 20.3636L5.6894 17.3333Z" fill="white" fill-opacity="0.9"/>
<path d="M8.51948 18.5758L5.6611 17.3636L5.7177 17.303L8.54778 18.5152L8.51948 18.5758ZM8.54778 18.5152H8.57608L8.51948 18.5758L8.54778 18.5152ZM7.84026 19.0303L8.54778 18.5152L8.51948 18.5758L7.81196 19.0909L7.84026 19.0303ZM7.81196 19.0909V19.0606L7.84026 19.0303L7.81196 19.0909ZM8.23647 19.7576L7.81196 19.0909L7.84026 19.0303L8.29307 19.697L8.26477 19.7576H8.23647ZM7.35914 20.6667L8.26477 19.697V19.7576L7.35914 20.697V20.6667ZM6.73653 19.8788L7.38744 20.6364L7.35914 20.697L6.70823 19.9394L6.73653 19.8788ZM6.08561 20.3333L6.73653 19.8788L6.70823 19.9394L6.05731 20.3636L6.08561 20.3333ZM5.7177 17.303L6.08561 20.3333L6.05731 20.3636L5.6611 17.3636L5.7177 17.303ZM5.6611 17.3636V17.2727L5.7177 17.303L5.6611 17.3636Z" fill="white" fill-opacity="0.9"/>
<path d="M5.5375 11.5502V12.8376H1C1.04914 12.3509 1.19655 11.8906 1.44223 11.4565C1.68792 11.0192 2.17315 10.4404 2.89792 9.72026C3.48142 9.13822 3.8392 8.74362 3.97126 8.53645C4.14938 8.25037 4.23844 7.96757 4.23844 7.68806C4.23844 7.37896 4.16013 7.1422 4.0035 6.97778C3.84995 6.81007 3.63651 6.72622 3.36319 6.72622C3.09293 6.72622 2.87796 6.81336 2.71826 6.98764C2.55857 7.16193 2.46643 7.4513 2.44187 7.85577L1.15202 7.71766C1.22879 6.95476 1.46987 6.40725 1.87525 6.07513C2.28063 5.74301 2.78736 5.57695 3.39543 5.57695C4.06185 5.57695 4.58547 5.76931 4.96628 6.15405C5.3471 6.53879 5.5375 7.01724 5.5375 7.58941C5.5375 7.91496 5.48222 8.22571 5.37166 8.52166C5.26418 8.81432 5.0922 9.12178 4.85573 9.44404C4.6991 9.65778 4.41656 9.96524 4.00811 10.3664C3.59966 10.7676 3.34015 11.034 3.22959 11.1655C3.12211 11.297 3.03458 11.4253 2.96702 11.5502H5.5375Z" fill="white" fill-opacity="0.9"/>
<path d="M8.9556 12.8376V11.3825H6.19164V10.1691L9.12144 5.57695H10.2086V10.1642H11.047V11.3825H10.2086V12.8376H8.9556ZM8.9556 10.1642V7.69299L7.40318 10.1642H8.9556Z" fill="white" fill-opacity="0.9"/>
<path d="M16.3634 11.9623V10.6749H20.7903V11.6811C20.4248 12.0659 20.0532 12.6183 19.6755 13.3384C19.2978 14.0586 19.0091 14.8248 18.8095 15.637C18.6129 16.4459 18.5162 17.1694 18.5192 17.8073H17.2709C17.2924 16.8076 17.4843 15.7883 17.8467 14.7491C18.2121 13.71 18.6989 12.7811 19.307 11.9623H16.3634Z" fill="white" fill-opacity="0.9"/>
<path d="M13.7268 12.6667C14.1957 12.6667 14.5758 12.2732 14.5758 11.7879C14.5758 11.3025 14.1957 10.9091 13.7268 10.9091C13.2579 10.9091 12.8778 11.3025 12.8778 11.7879C12.8778 12.2732 13.2579 12.6667 13.7268 12.6667Z" fill="white" fill-opacity="0.9"/>
<path d="M6.05731 20.3636L5.98422 20.2954L5.95731 20.3242V20.3636H6.05731ZM20.3244 3.3056L19.5036 4.45711L19.6665 4.57319L20.4872 3.42168L20.3244 3.3056ZM21.549 18.7603L21.4358 18.3663L21.2436 18.4216L21.3568 18.8155L21.549 18.7603ZM5.73418 17.4319L5.79078 17.3713L5.64462 17.2348L5.58801 17.2954L5.73418 17.4319ZM8.45717 18.4728L8.42887 18.5334L8.61008 18.6181L8.63838 18.5575L8.45717 18.4728ZM7.90256 19.1332L7.93087 19.0726L7.74965 18.988L7.72135 19.0486L7.90256 19.1332ZM6.79883 19.9817L6.82714 19.9211L6.64592 19.8365L6.61762 19.8971L6.79883 19.9817ZM6.13039 20.4319L6.15869 20.4016L6.01253 20.2651L5.98422 20.2954L6.13039 20.4319ZM5.95731 20.3636V20.3939H6.15731V20.3636H5.95731ZM20.4058 3.36364L20.5401 3.21542L20.5346 3.21042L20.5287 3.20584L20.4058 3.36364ZM19.5851 4.51515L19.446 4.65949L19.4563 4.66819L19.5851 4.51515ZM19.3021 4.24242L19.4409 4.09841L19.4333 4.0911L19.425 4.08463L19.3021 4.24242ZM18.9908 4L19.1139 3.84188L19.1034 3.83472L18.9908 4ZM18.3681 3.57576L18.4808 3.41048L18.4719 3.40447L18.4625 3.39944L18.3681 3.57576ZM17.6889 3.21212L17.588 3.38494L17.5945 3.38844L17.6889 3.21212ZM17.3776 3.0303L17.4785 2.8576L17.4691 2.8521L17.4591 2.84766L17.3776 3.0303ZM17.038 2.87879L17.1195 2.69614L17.1102 2.69201L17.1006 2.68883L17.038 2.87879ZM16.6701 2.75758L16.6028 2.94599L16.6075 2.94753L16.6701 2.75758ZM15.9909 2.51515L16.0581 2.32679L16.0486 2.32341L16.0389 2.32099L15.9909 2.51515ZM15.623 2.42424L15.5712 2.61748L15.575 2.6184L15.623 2.42424ZM15.2834 2.33333L15.3351 2.14014L15.3256 2.13759L15.3159 2.13599L15.2834 2.33333ZM14.9155 2.27273L14.948 2.07539L14.94 2.07407L14.9319 2.0734L14.9155 2.27273ZM14.5475 2.24242L14.515 2.43976L14.523 2.44108L14.5311 2.44175L14.5475 2.24242ZM14.1796 2.18182L14.2121 1.98448L14.196 1.98182H14.1796V2.18182ZM13.1042 2.18182V1.98182H13.096L13.0878 1.98249L13.1042 2.18182ZM12.0005 2.27273L11.9841 2.0734L11.9661 2.07488L11.9488 2.07953L12.0005 2.27273ZM11.6609 2.36364L11.6934 2.56098L11.7031 2.55938L11.7126 2.55683L11.6609 2.36364ZM11.293 2.42424L11.2604 2.2269L11.2427 2.22983L11.2257 2.23588L11.293 2.42424ZM10.9533 2.54545L11.0013 2.73962L11.0111 2.7372L11.0206 2.73382L10.9533 2.54545ZM10.5854 2.63636L10.5375 2.4422L10.5277 2.44462L10.5182 2.448L10.5854 2.63636ZM10.2458 2.75758L10.1786 2.56921L10.1714 2.5718L10.1643 2.57493L10.2458 2.75758ZM9.227 3.21212L9.14551 3.02947L9.13555 3.03392L9.12613 3.03942L9.227 3.21212ZM8.91569 3.39394L8.81478 3.22116L8.80974 3.22431L8.91569 3.39394ZM8.57608 3.60606L8.39855 3.51395L8.06172 4.16314L8.68203 3.77569L8.57608 3.60606ZM9.14209 2.51515L9.0422 2.34189L8.99151 2.37111L8.96457 2.42304L9.14209 2.51515ZM9.51 2.30303L9.60996 2.4764L9.61595 2.47266L9.51 2.30303ZM9.84961 2.09091L9.76813 1.90826L9.75544 1.91392L9.74366 1.92128L9.84961 2.09091ZM10.1892 1.93939L10.2708 2.12218L10.2778 2.11869L10.1892 1.93939ZM10.5571 1.75758L10.4756 1.57479L10.4685 1.57828L10.5571 1.75758ZM10.8967 1.60606L10.8342 1.4161L10.8245 1.41928L10.8153 1.42341L10.8967 1.60606ZM11.6326 1.36364L11.5846 1.16948L11.5772 1.1713L11.57 1.17368L11.6326 1.36364ZM12.3684 1.18182L12.3359 0.984478L12.3281 0.985762L12.3204 0.987658L12.3684 1.18182ZM13.1042 1.06061L13.0878 0.861281L13.0797 0.861947L13.0717 0.863266L13.1042 1.06061ZM13.84 1V0.8H13.8318L13.8236 0.800675L13.84 1ZM14.5758 1L14.5923 0.800675L14.5841 0.8H14.5758V1ZM15.3117 1.06061L15.3442 0.863266L15.3362 0.861947L15.3281 0.861281L15.3117 1.06061ZM16.0475 1.18182L16.0992 0.98862L16.0897 0.986077L16.08 0.984478L16.0475 1.18182ZM16.3871 1.27273L16.3354 1.46596L16.3391 1.46689L16.3871 1.27273ZM16.755 1.36364L16.8176 1.17368L16.8104 1.1713L16.803 1.16948L16.755 1.36364ZM17.1229 1.48485L17.1902 1.29643L17.1855 1.29489L17.1229 1.48485ZM17.8021 1.72727L17.8836 1.54463L17.8766 1.54149L17.8694 1.53891L17.8021 1.72727ZM18.1417 1.87879L18.2361 1.70247L18.2298 1.69907L18.2232 1.69614L18.1417 1.87879ZM19.1606 2.42424L19.2732 2.25896L19.2644 2.25296L19.255 2.24792L19.1606 2.42424ZM19.4719 2.63636L19.595 2.47825L19.5845 2.47108L19.4719 2.63636ZM21.4529 18.7879L21.6076 18.9153L21.6147 18.9054L21.4529 18.7879ZM21.3397 18.3939L21.4928 18.5226L21.5006 18.5134L21.5071 18.5034L21.3397 18.3939ZM21.5378 18.0909L21.3724 17.9785L21.3704 17.9815L21.5378 18.0909ZM21.7642 17.7576L21.93 17.8702L21.9362 17.8598L21.7642 17.7576ZM21.9623 17.4242L22.1343 17.5264L22.1394 17.5179L22.1436 17.5089L21.9623 17.4242ZM22.1321 17.0606L21.9534 16.9707L21.9509 16.976L22.1321 17.0606ZM22.3303 16.6667L22.5089 16.7565L22.5128 16.7489L22.5159 16.741L22.3303 16.6667ZM22.5001 16.2424L22.6861 16.3169L22.6898 16.3057L22.5001 16.2424ZM22.6416 15.8182L22.8313 15.8815L22.8325 15.8776L22.6416 15.8182ZM22.7831 15.3636L22.974 15.4231L22.9762 15.4162L22.9778 15.4091L22.7831 15.3636ZM22.8963 14.8788L23.0912 14.9243L23.0929 14.9155L22.8963 14.8788ZM22.9812 14.4242L23.1778 14.461L23.1782 14.4587L22.9812 14.4242ZM23.0661 13.9394L23.2634 13.9739L23.2647 13.9626L23.0661 13.9394ZM23.1227 13.4545L23.3217 13.4778L23.3223 13.4662L23.1227 13.4545ZM23.151 12.9697L23.351 12.9814V12.9697H23.151ZM23.151 11.9697H23.3513L23.3506 11.958L23.151 11.9697ZM23.1227 11.4848L23.3223 11.4732L23.3217 11.4617L23.3197 11.4504L23.1227 11.4848ZM23.0378 11L22.8388 11.0232L22.8408 11.0345L23.0378 11ZM22.9812 10.5152L23.1798 10.492L23.1785 10.4807L23.1759 10.4697L22.9812 10.5152ZM22.7548 9.54545L22.9498 9.49991L22.9468 9.48942L22.7548 9.54545ZM22.6133 9.06061L22.8053 9.00457L22.8032 8.99751L22.8006 8.99062L22.6133 9.06061ZM22.4435 8.60606L22.6311 8.53597L22.6268 8.52615L22.4435 8.60606ZM22.0472 7.69697L22.2308 7.61696L22.2263 7.6078L22.0472 7.69697ZM21.8208 7.24242L21.9999 7.15325L21.9964 7.14622L21.9923 7.13948L21.8208 7.24242ZM21.5661 6.81818L21.7378 6.71512L21.7325 6.70719L21.5661 6.81818ZM21.2831 6.39394L21.4496 6.28288L21.4456 6.27725L21.2831 6.39394ZM21.0001 6L21.1625 5.88331L21.1574 5.87612L21.1516 5.86941L21.0001 6ZM20.3209 5.21212L20.4725 5.08143L20.4671 5.07561L20.3209 5.21212ZM19.9813 4.84848L20.1275 4.71198L20.1192 4.70319L20.11 4.69544L19.9813 4.84848ZM20.7737 3.69697L20.9199 3.56046L20.9142 3.55436L20.908 3.54876L20.7737 3.69697ZM21.4812 4.45455L21.6381 4.33054L21.633 4.32407L21.6274 4.31804L21.4812 4.45455ZM21.7925 4.84848L21.9539 4.73009L21.9495 4.72448L21.7925 4.84848ZM22.1038 5.27273L22.2704 5.16163L22.2651 5.15441L22.1038 5.27273ZM22.3869 5.69697L22.5585 5.59391L22.5532 5.58598L22.3869 5.69697ZM22.6416 6.12121L22.8206 6.03204L22.8171 6.02501L22.813 6.01827L22.6416 6.12121ZM22.868 6.57576L23.0516 6.49575L23.047 6.48659L22.868 6.57576ZM23.2642 7.48485L23.4529 7.41874L23.4505 7.41174L23.4475 7.40494L23.2642 7.48485ZM23.434 7.9697L23.6262 7.91359L23.6227 7.90359L23.434 7.9697ZM23.717 8.93939L23.914 8.9049L23.9121 8.89399L23.909 8.88336L23.717 8.93939ZM23.8868 9.90909L24.086 9.8872L24.0838 9.87459L23.8868 9.90909ZM24 10.9394H24.2V10.9284L24.1988 10.9176L24 10.9394ZM24 11.9394L24.2 11.9504V11.9394H24ZM23.9717 12.4545L24.1708 12.4764L24.1714 12.4655L23.9717 12.4545ZM23.9151 12.9697L24.1127 13.0023L24.1139 12.9915L23.9151 12.9697ZM23.8302 13.4848L24.0258 13.5278L24.0275 13.5174L23.8302 13.4848ZM23.6038 14.5152L23.7937 14.5778L23.7969 14.5681L23.7991 14.5581L23.6038 14.5152ZM23.2642 15.5455L23.4473 15.6259L23.4511 15.6172L23.4541 15.6081L23.2642 15.5455ZM23.0378 16.0606L22.8546 15.9801L22.8531 15.9839L23.0378 16.0606ZM22.8114 16.6061L22.9889 16.6982L22.9928 16.6906L22.9961 16.6827L22.8114 16.6061ZM22.5284 17.1515L22.6981 17.2572L22.7023 17.2506L22.7059 17.2436L22.5284 17.1515ZM21.8491 18.2424L22.011 18.36L22.0152 18.3542L22.0189 18.3481L21.8491 18.2424ZM7.30254 20.6364L7.13922 20.5209L7.03311 20.6711L7.17379 20.7894L7.30254 20.6364ZM8.09496 19.5152L8.21647 19.3563L8.0515 19.2301L7.93164 19.3997L8.09496 19.5152ZM8.49118 19.8182L8.36961 19.9771L8.37498 19.981L8.49118 19.8182ZM8.91569 20.1212L9.03725 19.9623L9.03189 19.9584L8.91569 20.1212ZM9.3119 20.4242L9.1904 20.5831L9.20106 20.5913L9.21272 20.5979L9.3119 20.4242ZM9.73641 20.6667L9.63708 20.8406L9.64701 20.8456L9.73641 20.6667ZM10.1609 20.8788L10.0715 21.0578L10.0761 21.0599L10.1609 20.8788ZM10.6137 21.0909L10.5288 21.2723L10.5392 21.2765L10.6137 21.0909ZM11.0665 21.2727L10.9919 21.4586L11.0031 21.4624L11.0665 21.2727ZM11.5194 21.4242L11.4558 21.6143L11.4676 21.6174L11.5194 21.4242ZM12.425 21.6667L12.3733 21.8599L12.3857 21.8632L12.3985 21.8649L12.425 21.6667ZM13.3306 21.7879L13.304 21.9866L13.318 21.9875L13.3306 21.7879ZM13.8117 21.8182L13.8251 21.6186L13.8243 21.6186L13.8117 21.8182ZM14.2645 21.8485L14.2512 22.048L14.2641 22.0489L14.2771 22.0481L14.2645 21.8485ZM14.7456 21.8182L14.7582 22.0178L14.759 22.0177L14.7456 21.8182ZM15.1985 21.7879L15.2118 21.9879L15.225 21.9861L15.1985 21.7879ZM15.6513 21.7273L15.6779 21.9259L15.6906 21.9234L15.6513 21.7273ZM16.5569 21.5455L16.5963 21.7415L16.6085 21.7391L16.6204 21.7351L16.5569 21.5455ZM17.0097 21.3939L17.0732 21.5836L17.0769 21.5823L17.0097 21.3939ZM17.4342 21.2424L17.5016 21.4311L17.513 21.4263L17.4342 21.2424ZM18.2832 20.8788L18.3621 21.063L18.3726 21.0577L18.2832 20.8788ZM18.7078 20.6667L18.7972 20.8456L18.8048 20.8417L18.8121 20.8373L18.7078 20.6667ZM19.104 20.4242L19.2083 20.5948L19.2159 20.5902L19.2231 20.5849L19.104 20.4242ZM20.2077 19.6061L20.3268 19.7667L20.3376 19.7587L20.3472 19.7494L20.2077 19.6061ZM20.519 19.303L20.6587 19.4465L20.6652 19.4395L20.519 19.303ZM21.085 18.697L21.2314 18.8337L21.2381 18.8257L21.085 18.697ZM21.0284 19.303L21.1792 19.4345L21.1828 19.4302L21.0284 19.303ZM20.6322 19.7576L20.7739 19.8994L20.783 19.889L20.6322 19.7576ZM20.2077 20.1818L20.3487 20.3236L20.3491 20.3233L20.2077 20.1818ZM19.8115 20.5758L19.935 20.7331L19.9442 20.7258L19.9525 20.7176L19.8115 20.5758ZM19.387 20.9091L19.5033 21.072L19.5105 21.0664L19.387 20.9091ZM18.538 21.5152L18.6371 21.6888L18.6459 21.6838L18.6542 21.6779L18.538 21.5152ZM18.1134 21.7576L18.2079 21.934L18.2126 21.9313L18.1134 21.7576ZM17.6606 22L17.7501 22.179L17.755 22.1763L17.6606 22ZM17.2361 22.2121L17.3106 22.3977L17.3182 22.3947L17.3255 22.391L17.2361 22.2121ZM16.7833 22.3939L16.8469 22.5839L16.8578 22.5795L16.7833 22.3939ZM16.3305 22.5455L16.3906 22.7362L16.394 22.7351L16.3305 22.5455ZM15.8494 22.697L15.8887 22.8931L15.8992 22.8909L15.9095 22.8877L15.8494 22.697ZM14.9438 22.8788L14.9687 23.0772L14.976 23.0763L14.9831 23.0749L14.9438 22.8788ZM14.4626 22.9394L14.4376 22.741L14.4361 22.7412L14.4626 22.9394ZM14.0098 23V23.2H14.0232L14.0364 23.1982L14.0098 23ZM13.0476 23L13.0342 23.2H13.0476V23ZM12.5948 22.9697L12.5697 23.1685L12.5814 23.1693L12.5948 22.9697ZM12.1137 22.9091L12.0743 23.1052L12.0814 23.1066L12.0887 23.1075L12.1137 22.9091ZM11.6609 22.8182L11.7002 22.6221L11.698 22.6217L11.6609 22.8182ZM11.1797 22.7273L11.1163 22.9169L11.1292 22.9213L11.1426 22.9238L11.1797 22.7273ZM10.2741 22.4242L10.1995 22.6102L10.2107 22.6139L10.2741 22.4242ZM9.82131 22.2424L9.73191 22.4213L9.73921 22.425L9.74679 22.428L9.82131 22.2424ZM9.3968 22.0303L9.48623 21.8513L9.48164 21.8492L9.3968 22.0303ZM8.94399 21.8182L8.83588 21.9865L8.84709 21.9936L8.85914 21.9993L8.94399 21.8182ZM8.09496 21.2727L7.97346 21.4316L7.97997 21.4366L7.98686 21.441L8.09496 21.2727ZM7.69875 20.9697L7.56986 21.1229L7.57725 21.1286L7.69875 20.9697ZM5.6894 17.3333L5.76748 17.1492L5.44578 17.0128L5.49109 17.3593L5.6894 17.3333ZM8.54778 18.5455L8.6655 18.7071L8.95105 18.4992L8.62586 18.3613L8.54778 18.5455ZM7.84026 19.0606L7.72253 18.8989L7.57063 19.0095L7.67156 19.168L7.84026 19.0606ZM8.26477 19.7273L8.40875 19.8661L8.51806 19.7527L8.43347 19.6199L8.26477 19.7273ZM6.70823 19.9091L6.85992 19.7788L6.73952 19.6386L6.5903 19.7476L6.70823 19.9091ZM6.08561 20.3636L5.8873 20.3896L5.93104 20.7241L6.20354 20.5252L6.08561 20.3636ZM8.51948 18.5758L8.6372 18.7374L8.65262 18.7262L8.66564 18.7123L8.51948 18.5758ZM5.6611 17.3636H5.4611V17.3768L5.46282 17.3898L5.6611 17.3636ZM8.57608 18.5152L8.72225 18.6517L9.03652 18.3152H8.57608V18.5152ZM7.84026 19.0303L7.72253 18.8686L7.70711 18.8799L7.69409 18.8938L7.84026 19.0303ZM7.81196 19.0909H7.61196V19.1492L7.64325 19.1983L7.81196 19.0909ZM7.81196 19.0606L7.66579 18.9241L7.61196 18.9817V19.0606H7.81196ZM8.23647 19.7576L8.06777 19.865L8.12672 19.9576H8.23647V19.7576ZM8.29307 19.697L8.47429 19.7816L8.52237 19.6786L8.45851 19.5846L8.29307 19.697ZM8.26477 19.7576L8.40875 19.8964L8.43188 19.8724L8.44598 19.8422L8.26477 19.7576ZM8.26477 19.697H8.46477V19.1898L8.1186 19.5605L8.26477 19.697ZM7.35914 20.697L7.20745 20.8273L7.35064 20.994L7.50313 20.8358L7.35914 20.697ZM6.73653 19.8788L6.88822 19.7484L6.77033 19.6112L6.62202 19.7148L6.73653 19.8788ZM7.38744 20.6364L7.56866 20.721L7.6233 20.604L7.53914 20.506L7.38744 20.6364ZM6.70823 19.9394L6.85992 19.8091L6.74577 19.6762L6.59902 19.7718L6.70823 19.9394ZM6.08561 20.3333L5.88707 20.3574L5.92719 20.6879L6.20012 20.4973L6.08561 20.3333ZM6.05731 20.3636L5.85903 20.3898L5.90059 20.7045L6.16651 20.5312L6.05731 20.3636ZM5.6611 17.2727L5.7555 17.0964L5.4611 16.9388V17.2727H5.6611ZM5.5375 11.5502H5.7375V11.3502H5.5375V11.5502ZM5.5375 12.8376V13.0376H5.7375V12.8376H5.5375ZM1 12.8376L0.801012 12.8175L0.77879 13.0376H1V12.8376ZM1.44223 11.4565L1.61629 11.555L1.6166 11.5545L1.44223 11.4565ZM2.89792 9.72026L3.03889 9.86213L3.03916 9.86186L2.89792 9.72026ZM3.97126 8.53645L4.13992 8.64396L4.14104 8.64216L3.97126 8.53645ZM4.0035 6.97778L3.85597 7.11287L3.85869 7.11573L4.0035 6.97778ZM2.44187 7.85577L2.42057 8.05463L2.6288 8.07693L2.6415 7.86789L2.44187 7.85577ZM1.15202 7.71766L0.953023 7.69763L0.933124 7.89536L1.13072 7.91652L1.15202 7.71766ZM5.37166 8.52166L5.18431 8.45167L5.18393 8.45271L5.37166 8.52166ZM4.85573 9.44404L4.69448 9.32572L4.6944 9.32582L4.85573 9.44404ZM3.22959 11.1655L3.07648 11.0368L3.07473 11.0389L3.22959 11.1655ZM2.96702 11.5502L2.79109 11.4551L2.63152 11.7502H2.96702V11.5502ZM8.9556 12.8376H8.7556V13.0376H8.9556V12.8376ZM8.9556 11.3825H9.1556V11.1825H8.9556V11.3825ZM6.19164 11.3825H5.99164V11.5825H6.19164V11.3825ZM6.19164 10.1691L6.02303 10.0615L5.99164 10.1107V10.1691H6.19164ZM9.12144 5.57695V5.37695H9.0118L8.95283 5.46937L9.12144 5.57695ZM10.2086 5.57695H10.4086V5.37695H10.2086V5.57695ZM10.2086 10.1642H10.0086V10.3642H10.2086V10.1642ZM11.047 10.1642H11.247V9.96418H11.047V10.1642ZM11.047 11.3825V11.5825H11.247V11.3825H11.047ZM10.2086 11.3825V11.1825H10.0086V11.3825H10.2086ZM10.2086 12.8376V13.0376H10.4086V12.8376H10.2086ZM8.9556 10.1642V10.3642H9.1556V10.1642H8.9556ZM8.9556 7.69299H9.1556V6.99865L8.78624 7.5866L8.9556 7.69299ZM7.40318 10.1642L7.23382 10.0578L7.04134 10.3642H7.40318V10.1642ZM16.3634 11.9623H16.1634V12.1623H16.3634V11.9623ZM16.3634 10.6749V10.4749H16.1634V10.6749H16.3634ZM20.7903 10.6749H20.9903V10.4749H20.7903V10.6749ZM20.7903 11.6811L20.9353 11.8189L20.9903 11.761V11.6811H20.7903ZM18.8095 15.637L18.6152 15.5893L18.6151 15.5898L18.8095 15.637ZM18.5192 17.8073V18.0073H18.7202L18.7192 17.8063L18.5192 17.8073ZM17.2709 17.8073L17.0709 17.803L17.0665 18.0073H17.2709V17.8073ZM17.8467 14.7491L17.658 14.6828L17.6578 14.6833L17.8467 14.7491ZM19.307 11.9623L19.4675 12.0815L19.7046 11.7623H19.307V11.9623ZM19.7239 4.37114L19.4409 4.09841L19.1633 4.38644L19.4463 4.65916L19.7239 4.37114ZM19.425 4.08463L19.1136 3.8422L18.8679 4.1578L19.1792 4.40022L19.425 4.08463ZM17.7898 3.03942L17.4785 2.8576L17.2768 3.20301L17.5881 3.38482L17.7898 3.03942ZM17.4591 2.84766L17.1195 2.69614L16.9565 3.06143L17.2961 3.21295L17.4591 2.84766ZM17.1006 2.68883L16.7327 2.56762L16.6075 2.94753L16.9754 3.06874L17.1006 2.68883ZM16.0389 2.32099L15.6709 2.23008L15.575 2.6184L15.9429 2.70931L16.0389 2.32099ZM15.6747 2.23104L15.3351 2.14014L15.2316 2.52653L15.5713 2.61744L15.6747 2.23104ZM15.3159 2.13599L14.948 2.07539L14.8829 2.47007L15.2509 2.53067L15.3159 2.13599ZM14.9319 2.0734L14.564 2.0431L14.5311 2.44175L14.899 2.47205L14.9319 2.0734ZM14.58 2.04508L14.2121 1.98448L14.1471 2.37916L14.515 2.43976L14.58 2.04508ZM11.9488 2.07953L11.6091 2.17044L11.7126 2.55683L12.0522 2.46593L11.9488 2.07953ZM11.6284 2.1663L11.2604 2.2269L11.3255 2.62158L11.6934 2.56098L11.6284 2.1663ZM11.2257 2.23588L10.8861 2.35709L11.0206 2.73382L11.3602 2.6126L11.2257 2.23588ZM10.9054 2.35129L10.5375 2.4422L10.6334 2.83052L11.0013 2.73962L10.9054 2.35129ZM10.5182 2.448L10.1786 2.56921L10.3131 2.94594L10.6527 2.82473L10.5182 2.448ZM9.12613 3.03942L8.81482 3.22124L9.01655 3.56664L9.32786 3.38482L9.12613 3.03942ZM8.80974 3.22431L8.47013 3.43643L8.68203 3.77569L9.02164 3.56357L8.80974 3.22431ZM8.7536 3.69817L9.31962 2.60726L8.96457 2.42304L8.39855 3.51395L8.7536 3.69817ZM9.24199 2.68842L9.6099 2.47629L9.41011 2.12977L9.0422 2.34189L9.24199 2.68842ZM9.61595 2.47266L9.95556 2.26054L9.74366 1.92128L9.40405 2.1334L9.61595 2.47266ZM9.9311 2.27356L10.2707 2.12204L10.1077 1.75675L9.76813 1.90826L9.9311 2.27356ZM10.2778 2.11869L10.6457 1.93688L10.4685 1.57828L10.1006 1.76009L10.2778 2.11869ZM10.6386 1.94022L10.9782 1.78871L10.8153 1.42341L10.4756 1.57493L10.6386 1.94022ZM15.9958 1.37502L16.3354 1.46593L16.4388 1.07953L16.0992 0.98862L15.9958 1.37502ZM16.3391 1.46689L16.707 1.5578L16.803 1.16948L16.4351 1.07857L16.3391 1.46689ZM16.6924 1.55359L17.0603 1.6748L17.1855 1.29489L16.8176 1.17368L16.6924 1.55359ZM17.7206 1.90992L18.0603 2.06143L18.2232 1.69614L17.8836 1.54463L17.7206 1.90992ZM19.0479 2.58952L19.3593 2.80164L19.5845 2.47108L19.2732 2.25896L19.0479 2.58952ZM21.5071 18.5034L21.7052 18.2003L21.3704 17.9815L21.1723 18.2845L21.5071 18.5034ZM21.7033 18.2033L21.9297 17.8699L21.5988 17.6452L21.3724 17.9785L21.7033 18.2033ZM21.9362 17.8598L22.1343 17.5264L21.7904 17.3221L21.5923 17.6554L21.9362 17.8598ZM22.1436 17.5089L22.3134 17.1452L21.9509 16.976L21.7811 17.3396L22.1436 17.5089ZM22.3108 17.1505L22.5089 16.7565L22.1516 16.5768L21.9535 16.9708L22.3108 17.1505ZM22.5159 16.741L22.6857 16.3167L22.3144 16.1681L22.1446 16.5923L22.5159 16.741ZM22.6898 16.3057L22.8313 15.8815L22.4518 15.7549L22.3103 16.1791L22.6898 16.3057ZM22.8325 15.8776L22.974 15.4231L22.5921 15.3042L22.4506 15.7587L22.8325 15.8776ZM22.9778 15.4091L23.091 14.9243L22.7015 14.8333L22.5883 15.3182L22.9778 15.4091ZM23.0929 14.9155L23.1778 14.461L22.7846 14.3875L22.6997 14.8421L23.0929 14.9155ZM23.1782 14.4587L23.2631 13.9739L22.8691 13.9049L22.7842 14.3897L23.1782 14.4587ZM23.2647 13.9626L23.3213 13.4777L22.924 13.4314L22.8674 13.9162L23.2647 13.9626ZM23.3223 13.4662L23.3506 12.9814L22.9513 12.958L22.923 13.4429L23.3223 13.4662ZM23.3506 11.958L23.3223 11.4732L22.923 11.4965L22.9513 11.9814L23.3506 11.958ZM23.3197 11.4504L23.2348 10.9655L22.8408 11.0345L22.9257 11.5193L23.3197 11.4504ZM23.2364 10.9768L23.1798 10.492L22.7825 10.5383L22.8391 11.0232L23.2364 10.9768ZM22.9468 9.48942L22.8053 9.00457L22.4213 9.11664L22.5628 9.60149L22.9468 9.48942ZM22.8006 8.99062L22.6308 8.53607L22.2561 8.67605L22.4259 9.1306L22.8006 8.99062ZM22.2263 7.6078L21.9999 7.15325L21.6418 7.33159L21.8682 7.78614L22.2263 7.6078ZM21.9923 7.13948L21.7376 6.71523L21.3947 6.92113L21.6494 7.34537L21.9923 7.13948ZM21.7325 6.70719L21.4495 6.28295L21.1167 6.50493L21.3998 6.92917L21.7325 6.70719ZM21.4456 6.27725L21.1625 5.88331L20.8377 6.11669L21.1207 6.51063L21.4456 6.27725ZM20.4671 5.07561L20.1275 4.71198L19.8351 4.98499L20.1747 5.34863L20.4671 5.07561ZM20.11 4.69544L19.7138 4.36211L19.4563 4.66819L19.8525 5.00153L20.11 4.69544ZM20.2715 3.51185L20.6394 3.84518L20.908 3.54876L20.5401 3.21542L20.2715 3.51185ZM21.3243 4.57855L21.6356 4.97249L21.9495 4.72448L21.6381 4.33054L21.3243 4.57855ZM21.6313 4.96681L21.9426 5.39105L22.2651 5.15441L21.9538 4.73016L21.6313 4.96681ZM21.9375 5.38372L22.2205 5.80796L22.5532 5.58598L22.2702 5.16174L21.9375 5.38372ZM22.2154 5.79992L22.4701 6.22416L22.813 6.01827L22.5583 5.59402L22.2154 5.79992ZM22.4625 6.21038L22.6889 6.66493L23.047 6.48659L22.8206 6.03204L22.4625 6.21038ZM23.0754 7.55096L23.2452 8.0358L23.6227 7.90359L23.4529 7.41874L23.0754 7.55096ZM23.8003 11.9284L23.772 12.4436L24.1714 12.4655L24.1997 11.9504L23.8003 11.9284ZM23.7729 12.4327L23.7163 12.9479L24.1139 12.9915L24.1705 12.4764L23.7729 12.4327ZM23.7178 12.9372L23.6329 13.4523L24.0275 13.5174L24.1124 13.0022L23.7178 12.9372ZM23.0811 15.465L22.8547 15.9801L23.2209 16.1411L23.4473 15.6259L23.0811 15.465ZM22.8531 15.9839L22.6266 16.5294L22.9961 16.6827L23.2225 16.1373L22.8531 15.9839ZM22.6338 16.514L22.3508 17.0594L22.7059 17.2436L22.9889 16.6982L22.6338 16.514ZM21.6873 18.1249L21.2911 18.6703L21.6147 18.9054L22.011 18.36L21.6873 18.1249ZM7.46587 20.7518L8.25829 19.6306L7.93164 19.3997L7.13922 20.5209L7.46587 20.7518ZM7.97346 19.674L8.36967 19.977L8.61268 19.6593L8.21647 19.3563L7.97346 19.674ZM8.37498 19.981L8.79949 20.284L9.03189 19.9584L8.60737 19.6554L8.37498 19.981ZM8.79419 20.2801L9.1904 20.5831L9.4334 20.2654L9.03719 19.9624L8.79419 20.2801ZM9.21272 20.5979L9.63723 20.8403L9.83559 20.493L9.41108 20.2506L9.21272 20.5979ZM9.64701 20.8456L10.0715 21.0577L10.2503 20.6999L9.82581 20.4878L9.64701 20.8456ZM10.0761 21.0599L10.5289 21.272L10.6986 20.9098L10.2458 20.6977L10.0761 21.0599ZM10.5392 21.2765L10.992 21.4583L11.1411 21.0871L10.6883 20.9053L10.5392 21.2765ZM11.0031 21.4624L11.4559 21.6139L11.5828 21.2346L11.13 21.0831L11.0031 21.4624ZM13.318 21.9875L13.7991 22.0178L13.8243 21.6186L13.3432 21.5883L13.318 21.9875ZM13.7984 22.0177L14.2512 22.048L14.2779 21.6489L13.8251 21.6186L13.7984 22.0177ZM14.2771 22.0481L14.7582 22.0178L14.7331 21.6186L14.252 21.6489L14.2771 22.0481ZM14.759 22.0177L15.2118 21.9874L15.1851 21.5883L14.7323 21.6186L14.759 22.0177ZM15.225 21.9861L15.6778 21.9255L15.6247 21.529L15.1719 21.5896L15.225 21.9861ZM16.6204 21.7351L17.0732 21.5836L16.9462 21.2043L16.4934 21.3558L16.6204 21.7351ZM17.0769 21.5823L17.5014 21.4308L17.367 21.0541L16.9425 21.2056L17.0769 21.5823ZM18.3726 21.0577L18.7972 20.8456L18.6184 20.4878L18.1938 20.6999L18.3726 21.0577ZM18.8121 20.8373L19.2083 20.5948L18.9996 20.2536L18.6034 20.4961L18.8121 20.8373ZM20.3472 19.7494L20.6585 19.4463L20.3795 19.1597L20.0682 19.4627L20.3472 19.7494ZM21.2381 18.8257L21.4928 18.5226L21.1866 18.2653L20.9319 18.5683L21.2381 18.8257ZM21.2986 18.6607L20.8741 19.1758L21.1828 19.4302L21.6073 18.9151L21.2986 18.6607ZM20.8777 19.1716L20.4814 19.6262L20.783 19.889L21.1792 19.4344L20.8777 19.1716ZM20.4908 19.6161L20.0663 20.0404L20.3491 20.3233L20.7736 19.899L20.4908 19.6161ZM20.0667 20.04L19.6705 20.4339L19.9525 20.7176L20.3487 20.3236L20.0667 20.04ZM19.688 20.4185L19.2635 20.7518L19.5105 21.0664L19.935 20.7331L19.688 20.4185ZM18.4388 21.3415L18.0143 21.5839L18.2126 21.9313L18.6371 21.6888L18.4388 21.3415ZM18.019 21.5813L17.5662 21.8237L17.755 22.1763L18.2078 21.9339L18.019 21.5813ZM17.5712 21.8211L17.1467 22.0332L17.3255 22.391L17.75 22.1789L17.5712 21.8211ZM17.1616 22.0265L16.7088 22.2083L16.8578 22.5795L17.3106 22.3977L17.1616 22.0265ZM16.7198 22.2043L16.267 22.3558L16.394 22.7351L16.8468 22.5836L16.7198 22.2043ZM16.2704 22.3547L15.7893 22.5062L15.9095 22.8877L16.3906 22.7362L16.2704 22.3547ZM14.9188 22.6804L14.4376 22.741L14.4876 23.1378L14.9687 23.0772L14.9188 22.6804ZM14.4361 22.7412L13.9833 22.8018L14.0364 23.1982L14.4892 23.1376L14.4361 22.7412ZM13.061 22.8004L12.6081 22.7701L12.5814 23.1693L13.0342 23.1996L13.061 22.8004ZM12.6198 22.7713L12.1387 22.7107L12.0887 23.1075L12.5698 23.1681L12.6198 22.7713ZM12.153 22.713L11.7002 22.6221L11.6215 23.0143L12.0743 23.1052L12.153 22.713ZM11.698 22.6217L11.2169 22.5308L11.1426 22.9238L11.6237 23.0147L11.698 22.6217ZM10.3486 22.2386L9.89583 22.0568L9.74679 22.428L10.1996 22.6098L10.3486 22.2386ZM9.91071 22.0635L9.4862 21.8514L9.3074 22.2092L9.73191 22.4213L9.91071 22.0635ZM9.48164 21.8492L9.02883 21.6371L8.85914 21.9993L9.31196 22.2114L9.48164 21.8492ZM8.21647 21.1139L7.82025 20.8108L7.57725 21.1286L7.97346 21.4316L8.21647 21.1139ZM7.82751 20.8167L7.4313 20.4833L7.17379 20.7894L7.57 21.1227L7.82751 20.8167ZM5.61132 17.5175L8.4697 18.7296L8.62586 18.3613L5.76748 17.1492L5.61132 17.5175ZM8.43005 18.3838L7.72253 18.8989L7.95798 19.2223L8.6655 18.7071L8.43005 18.3838ZM7.67156 19.168L8.09607 19.8347L8.43347 19.6199L8.00896 18.9532L7.67156 19.168ZM8.12078 19.5885L7.21516 20.5279L7.50313 20.8055L8.40875 19.8661L8.12078 19.5885ZM7.51084 20.5363L6.85992 19.7788L6.55653 20.0394L7.20745 20.797L7.51084 20.5363ZM6.5903 19.7476L5.96768 20.2021L6.20354 20.5252L6.82615 20.0706L6.5903 19.7476ZM6.28392 20.3377L5.88771 17.3074L5.49109 17.3593L5.8873 20.3896L6.28392 20.3377ZM8.59756 18.3916L5.73918 17.1795L5.58302 17.5478L8.44139 18.7599L8.59756 18.3916ZM5.63896 17.4869L8.46903 18.699L8.62652 18.3313L5.79644 17.1192L5.63896 17.4869ZM8.54778 18.7152H8.57608V18.3152H8.54778V18.7152ZM8.42991 18.3786L8.37331 18.4392L8.66564 18.7123L8.72225 18.6517L8.42991 18.3786ZM7.95798 19.192L8.6655 18.6768L8.43005 18.3535L7.72253 18.8686L7.95798 19.192ZM8.40175 18.4141L7.69423 18.9292L7.92968 19.2526L8.6372 18.7374L8.40175 18.4141ZM8.01196 19.0909V19.0606H7.61196V19.0909H8.01196ZM7.95812 19.1971L7.98642 19.1668L7.69409 18.8938L7.66579 18.9241L7.95812 19.1971ZM8.40517 19.6502L7.98066 18.9835L7.64325 19.1983L8.06777 19.865L8.40517 19.6502ZM7.67481 19.1427L8.12762 19.8093L8.45851 19.5846L8.0057 18.9179L7.67481 19.1427ZM8.11185 19.6123L8.08355 19.673L8.44598 19.8422L8.47429 19.7816L8.11185 19.6123ZM8.26477 19.5576H8.23647V19.9576H8.26477V19.5576ZM7.50531 20.8032L8.41094 19.8335L8.1186 19.5605L7.21298 20.5302L7.50531 20.8032ZM8.06477 19.697V19.7576H8.46477V19.697H8.06477ZM8.12078 19.6188L7.21516 20.5582L7.50313 20.8358L8.40875 19.8964L8.12078 19.6188ZM7.55914 20.697V20.6667H7.15914V20.697H7.55914ZM6.58483 20.0091L7.23575 20.7667L7.53914 20.506L6.88822 19.7484L6.58483 20.0091ZM7.20623 20.5517L7.17793 20.6123L7.54036 20.7816L7.56866 20.721L7.20623 20.5517ZM7.51084 20.5666L6.85992 19.8091L6.55653 20.0697L7.20745 20.8273L7.51084 20.5666ZM6.20012 20.4973L6.85103 20.0428L6.62202 19.7148L5.9711 20.1694L6.20012 20.4973ZM6.59902 19.7718L5.9481 20.1961L6.16651 20.5312L6.81743 20.1069L6.59902 19.7718ZM5.51916 17.3271L5.88707 20.3574L6.28415 20.3092L5.91624 17.2789L5.51916 17.3271ZM6.25559 20.3375L5.85938 17.3375L5.46282 17.3898L5.85903 20.3898L6.25559 20.3375ZM5.8611 17.3636V17.2727H5.4611V17.3636H5.8611ZM5.5667 17.449L5.6233 17.4794L5.8121 17.1267L5.7555 17.0964L5.5667 17.449ZM5.3375 11.5502V12.8376H5.7375V11.5502H5.3375ZM5.5375 12.6376H1V13.0376H5.5375V12.6376ZM1.19899 12.8577C1.24528 12.3992 1.38398 11.9654 1.61629 11.555L1.26818 11.358C1.00911 11.8157 0.85299 12.3027 0.801012 12.8175L1.19899 12.8577ZM1.6166 11.5545C1.84804 11.1425 2.31661 10.5798 3.03889 9.86213L2.75695 9.57838C2.02969 10.301 1.52779 10.8958 1.26786 11.3585L1.6166 11.5545ZM3.03916 9.86186C3.61869 9.28378 3.99374 8.87326 4.13991 8.64396L3.80261 8.42895C3.68466 8.61398 3.34415 8.99266 2.75668 9.57866L3.03916 9.86186ZM4.14104 8.64216C4.33482 8.33092 4.43844 8.01198 4.43844 7.68806H4.03844C4.03844 7.92316 3.96394 8.16981 3.80148 8.43075L4.14104 8.64216ZM4.43844 7.68806C4.43844 7.34648 4.35154 7.05317 4.14832 6.83983L3.85869 7.11573C3.96871 7.23122 4.03844 7.41143 4.03844 7.68806H4.43844ZM4.15101 6.84272C3.952 6.62536 3.68031 6.52622 3.36319 6.52622V6.92622C3.59271 6.92622 3.7479 6.99479 3.856 7.11284L4.15101 6.84272ZM3.36319 6.52622C3.04571 6.52622 2.77398 6.6308 2.5708 6.85253L2.86572 7.12276C2.98194 6.99593 3.14015 6.92622 3.36319 6.92622V6.52622ZM2.5708 6.85253C2.36472 7.07744 2.26778 7.42307 2.24223 7.84364L2.6415 7.86789C2.66509 7.47953 2.75241 7.24642 2.86572 7.12276L2.5708 6.85253ZM2.46316 7.6569L1.17331 7.51879L1.13072 7.91652L2.42057 8.05463L2.46316 7.6569ZM1.35101 7.73768C1.42494 7.00314 1.65326 6.51556 2.002 6.22984L1.7485 5.92042C1.28649 6.29895 1.03265 6.90639 0.953023 7.69763L1.35101 7.73768ZM2.002 6.22984C2.36605 5.93158 2.82579 5.77695 3.39543 5.77695V5.37695C2.74893 5.37695 2.19522 5.55443 1.7485 5.92042L2.002 6.22984ZM3.39543 5.77695C4.02158 5.77695 4.48921 5.95637 4.82414 6.29474L5.10843 6.01335C4.68173 5.58226 4.10213 5.37695 3.39543 5.37695V5.77695ZM4.82414 6.29474C5.16561 6.63973 5.3375 7.0666 5.3375 7.58941H5.7375C5.7375 6.96788 5.52858 6.43784 5.10843 6.01335L4.82414 6.29474ZM5.3375 7.58941C5.3375 7.8918 5.28625 8.17879 5.18431 8.45167L5.55902 8.59165C5.67819 8.27263 5.7375 7.93812 5.7375 7.58941H5.3375ZM5.18393 8.45271C5.08443 8.7236 4.92281 9.01456 4.69448 9.32572L5.01697 9.56236C5.26159 9.229 5.44392 8.90504 5.5594 8.59061L5.18393 8.45271ZM4.6944 9.32582C4.54801 9.5256 4.27544 9.82351 3.86797 10.2237L4.14826 10.5091C4.55769 10.107 4.85019 9.78996 5.01705 9.56225L4.6944 9.32582ZM3.86797 10.2237C3.46118 10.6233 3.19437 10.8966 3.07649 11.0368L3.3827 11.2942C3.48594 11.1713 3.73813 10.9119 4.14826 10.5091L3.86797 10.2237ZM3.07473 11.0389C2.96074 11.1784 2.8657 11.3171 2.79109 11.4551L3.14295 11.6453C3.20347 11.5334 3.28347 11.4156 3.38446 11.292L3.07473 11.0389ZM2.96702 11.7502H5.5375V11.3502H2.96702V11.7502ZM9.1556 12.8376V11.3825H8.7556V12.8376H9.1556ZM8.9556 11.1825H6.19164V11.5825H8.9556V11.1825ZM6.39164 11.3825V10.1691H5.99164V11.3825H6.39164ZM6.36025 10.2767L9.29004 5.68452L8.95283 5.46937L6.02303 10.0615L6.36025 10.2767ZM9.12144 5.77695H10.2086V5.37695H9.12144V5.77695ZM10.0086 5.57695V10.1642H10.4086V5.57695H10.0086ZM10.2086 10.3642H11.047V9.96418H10.2086V10.3642ZM10.847 10.1642V11.3825H11.247V10.1642H10.847ZM11.047 11.1825H10.2086V11.5825H11.047V11.1825ZM10.0086 11.3825V12.8376H10.4086V11.3825H10.0086ZM10.2086 12.6376H8.9556V13.0376H10.2086V12.6376ZM9.1556 10.1642V7.69299H8.7556V10.1642H9.1556ZM8.78624 7.5866L7.23382 10.0578L7.57253 10.2706L9.12495 7.79938L8.78624 7.5866ZM7.40318 10.3642H8.9556V9.96418H7.40318V10.3642ZM16.5634 11.9623V10.6749H16.1634V11.9623H16.5634ZM16.3634 10.8749H20.7903V10.4749H16.3634V10.8749ZM20.5903 10.6749V11.6811H20.9903V10.6749H20.5903ZM20.6453 11.5434C20.2623 11.9466 19.8807 12.5167 19.4984 13.2455L19.8526 13.4313C20.2258 12.7198 20.5874 12.1851 20.9353 11.8189L20.6453 11.5434ZM19.4984 13.2455C19.1129 13.9804 18.8186 14.7618 18.6152 15.5893L19.0037 15.6847C19.1996 14.8878 19.4826 14.1368 19.8526 13.4313L19.4984 13.2455ZM18.6151 15.5898C18.4158 16.41 18.3161 17.15 18.3192 17.8083L18.7192 17.8063C18.7163 17.1887 18.81 16.4819 19.0038 15.6842L18.6151 15.5898ZM18.5192 17.6073H17.2709V18.0073H18.5192V17.6073ZM17.4708 17.8116C17.4918 16.8349 17.6794 15.8363 18.0355 14.815L17.6578 14.6833C17.2892 15.7402 17.0929 16.7804 17.0709 17.803L17.4708 17.8116ZM18.0354 14.8155C18.3947 13.7938 18.8724 12.883 19.4675 12.0815L19.1464 11.843C18.5254 12.6792 18.0296 13.6262 17.658 14.6828L18.0354 14.8155ZM19.307 11.7623H16.3634V12.1623H19.307V11.7623ZM14.3758 11.7879C14.3758 12.1693 14.0788 12.4667 13.7268 12.4667V12.8667C14.3126 12.8667 14.7758 12.3771 14.7758 11.7879H14.3758ZM13.7268 12.4667C13.3748 12.4667 13.0778 12.1693 13.0778 11.7879H12.6778C12.6778 12.3771 13.141 12.8667 13.7268 12.8667V12.4667ZM13.0778 11.7879C13.0778 11.4064 13.3748 11.1091 13.7268 11.1091V10.7091C13.141 10.7091 12.6778 11.1986 12.6778 11.7879H13.0778ZM13.7268 11.1091C14.0788 11.1091 14.3758 11.4064 14.3758 11.7879H14.7758C14.7758 11.1986 14.3126 10.7091 13.7268 10.7091V11.1091ZM19.1034 3.83472L18.4808 3.41048L18.2555 3.74104L18.8781 4.16528L19.1034 3.83472ZM18.4625 3.39944L17.7833 3.0358L17.5945 3.38844L18.2737 3.75208L18.4625 3.39944ZM16.7373 2.56921L16.0581 2.32679L15.9237 2.70351L16.6029 2.94594L16.7373 2.56921ZM14.1796 1.98182H13.1042V2.38182H14.1796V1.98182ZM13.0878 1.98249L11.9841 2.0734L12.0169 2.47205L13.1206 2.38114L13.0878 1.98249ZM10.1643 2.57493L9.14551 3.02947L9.30848 3.39477L10.3273 2.94022L10.1643 2.57493ZM10.9593 1.79602L11.6951 1.55359L11.57 1.17368L10.8342 1.4161L10.9593 1.79602ZM11.6805 1.5578L12.4164 1.37598L12.3204 0.987658L11.5846 1.16948L11.6805 1.5578ZM12.4009 1.37916L13.1367 1.25795L13.0717 0.863266L12.3359 0.984478L12.4009 1.37916ZM13.1206 1.25993L13.8564 1.19933L13.8236 0.800675L13.0878 0.861281L13.1206 1.25993ZM13.84 1.2H14.5758V0.8H13.84V1.2ZM14.5594 1.19933L15.2952 1.25993L15.3281 0.861281L14.5923 0.800675L14.5594 1.19933ZM15.2792 1.25795L16.015 1.37916L16.08 0.984478L15.3442 0.863266L15.2792 1.25795ZM17.0557 1.67321L17.7349 1.91563L17.8694 1.53891L17.1901 1.29649L17.0557 1.67321ZM18.0473 2.05511L19.0662 2.60056L19.255 2.24792L18.2361 1.70247L18.0473 2.05511ZM19.349 2.79416L20.2829 3.52143L20.5287 3.20584L19.5948 2.47857L19.349 2.79416ZM23.351 12.9697V11.9697H22.951V12.9697H23.351ZM23.1759 10.4697L22.9495 9.49998L22.56 9.59093L22.7864 10.5606L23.1759 10.4697ZM22.6268 8.52615L22.2306 7.61706L21.8639 7.77688L22.2601 8.68597L22.6268 8.52615ZM21.1516 5.86941L20.4724 5.08153L20.1694 5.34271L20.8486 6.13059L21.1516 5.86941ZM20.6275 3.83348L21.3351 4.59106L21.6274 4.31804L20.9199 3.56046L20.6275 3.83348ZM22.6846 6.65566L23.0808 7.56476L23.4475 7.40494L23.0513 6.49585L22.6846 6.65566ZM23.242 8.02573L23.525 8.99543L23.909 8.88336L23.626 7.91366L23.242 8.02573ZM23.52 8.97389L23.6898 9.94359L24.0838 9.87459L23.914 8.9049L23.52 8.97389ZM23.688 9.93093L23.8012 10.9612L24.1988 10.9176L24.0856 9.88725L23.688 9.93093ZM23.8 10.9394V11.9394H24.2V10.9394H23.8ZM23.6349 13.4419L23.4085 14.4722L23.7991 14.5581L24.0255 13.5278L23.6349 13.4419ZM23.4138 14.4525L23.0742 15.4828L23.4541 15.6081L23.7937 14.5778L23.4138 14.4525ZM22.3586 17.0458L21.6794 18.1367L22.0189 18.3481L22.6981 17.2572L22.3586 17.0458ZM11.4676 21.6174L12.3733 21.8599L12.4767 21.4735L11.5711 21.231L11.4676 21.6174ZM12.3985 21.8649L13.3041 21.9861L13.3571 21.5896L12.4515 21.4684L12.3985 21.8649ZM15.6906 21.9234L16.5963 21.7415L16.5175 21.3494L15.6119 21.5312L15.6906 21.9234ZM17.513 21.4263L18.362 21.0626L18.2045 20.6949L17.3555 21.0586L17.513 21.4263ZM19.2231 20.5849L20.3268 19.7667L20.0886 19.4454L18.9849 20.2636L19.2231 20.5849ZM20.6652 19.4395L21.2312 18.8335L20.9389 18.5605L20.3728 19.1665L20.6652 19.4395ZM19.2708 20.7463L18.4218 21.3524L18.6542 21.6779L19.5032 21.0719L19.2708 20.7463ZM15.81 22.5009L14.9044 22.6827L14.9831 23.0749L15.8887 22.8931L15.81 22.5009ZM14.0098 22.8H13.0476V23.2H14.0098V22.8ZM11.2432 22.5376L10.3376 22.2346L10.2107 22.6139L11.1163 22.9169L11.2432 22.5376ZM9.05209 21.6499L8.20307 21.1045L7.98686 21.441L8.83588 21.9865L9.05209 21.6499Z" fill="white" mask="url(#path-1-outside-1)"/>
</svg>
