<svg width="15" height="20" viewBox="0 0 15 20" fill="none" xmlns="http://www.w3.org/2000/svg">
<path d="M7.15789 0C3.21101 0 0 3.2493 0 7.24321C0 12.1998 6.40561 19.4763 6.67834 19.7837C6.9345 20.0724 7.38175 20.0719 7.63745 19.7837C7.91017 19.4763 14.3158 12.1998 14.3158 7.24321C14.3157 3.2493 11.1047 0 7.15789 0ZM7.15789 10.8875C5.17212 10.8875 3.55662 9.25267 3.55662 7.24321C3.55662 5.23376 5.17216 3.59899 7.15789 3.59899C9.14363 3.59899 10.7591 5.2338 10.7591 7.24325C10.7591 9.25271 9.14363 10.8875 7.15789 10.8875Z" fill="white"/>
</svg>
