<svg width="51" height="38" viewBox="0 0 51 38" fill="none" xmlns="http://www.w3.org/2000/svg">
<path opacity="0.5" d="M11.5915 15.1543C11.0246 15.1543 10.4805 15.2406 9.93895 15.3193C10.1144 14.7304 10.2949 14.1313 10.5847 13.5932C10.8746 12.8114 11.3271 12.1336 11.7771 11.4508C12.1534 10.7121 12.817 10.212 13.3051 9.57996C13.8162 8.96566 14.5128 8.55698 15.0645 8.04676C15.606 7.51369 16.3154 7.24716 16.8798 6.87148C17.4696 6.53387 17.9832 6.16072 18.5324 5.98303L19.9027 5.4195L21.1079 4.91944L19.8748 0L18.3569 0.36553C17.8713 0.487374 17.2789 0.629525 16.6052 0.799598C15.9162 0.926519 15.1814 1.27428 14.3628 1.59158C13.5543 1.95204 12.6187 2.19572 11.7492 2.77448C10.8746 3.32786 9.86522 3.78985 8.97536 4.53106C8.11348 5.29512 7.07362 5.95765 6.30581 6.92986C5.46681 7.83861 4.63797 8.79305 3.99474 9.87949C3.24981 10.9152 2.74386 12.0524 2.20995 13.1769C1.72689 14.3014 1.3379 15.4513 1.02009 16.5682C0.417537 18.8071 0.148039 20.9343 0.0437991 22.7543C-0.0426436 24.5769 0.00820507 26.0923 0.114987 27.1889C0.153124 27.7067 0.224312 28.2094 0.275161 28.5571L0.338721 28.9836L0.404824 28.9683C0.857024 31.0773 1.898 33.0154 3.40734 34.5584C4.91668 36.1013 6.83271 37.1862 8.93377 37.6873C11.0348 38.1885 13.2351 38.0855 15.28 37.3904C17.3249 36.6952 19.1309 35.4362 20.489 33.759C21.8472 32.0819 22.7021 30.0551 22.9547 27.9131C23.2074 25.7711 22.8475 23.6015 21.9167 21.6552C20.9859 19.7089 19.5222 18.0655 17.695 16.9151C15.8678 15.7646 13.7517 15.1542 11.5915 15.1543ZM39.5583 15.1543C38.9913 15.1543 38.4472 15.2406 37.9057 15.3193C38.0811 14.7304 38.2616 14.1313 38.5515 13.5932C38.8413 12.8114 39.2939 12.1336 39.7439 11.4508C40.1202 10.7121 40.7837 10.212 41.2719 9.57996C41.7829 8.96566 42.4795 8.55698 43.0312 8.04676C43.5728 7.51369 44.2821 7.24716 44.8465 6.87148C45.4364 6.53387 45.95 6.16072 46.4991 5.98303L47.8695 5.4195L49.0746 4.91944L47.8415 0L46.3237 0.36553C45.8381 0.487374 45.2457 0.629525 44.572 0.799598C43.883 0.926519 43.1482 1.27428 42.3295 1.59158C41.5236 1.95458 40.5854 2.19572 39.7159 2.77702C38.8413 3.33039 37.832 3.79238 36.9421 4.5336C36.0802 5.29766 35.0404 5.96019 34.2726 6.92986C33.4336 7.83861 32.6047 8.79305 31.9615 9.87949C31.2166 10.9152 30.7106 12.0524 30.1767 13.1769C29.6936 14.3014 29.3047 15.4513 28.9868 16.5682C28.3843 18.8071 28.1148 20.9343 28.0106 22.7543C27.9241 24.5769 27.975 26.0923 28.0817 27.1889C28.1199 27.7067 28.1911 28.2094 28.2419 28.5571L28.3055 28.9836L28.3716 28.9683C28.8238 31.0773 29.8648 33.0154 31.3741 34.5584C32.8834 36.1013 34.7995 37.1862 36.9005 37.6873C39.0016 38.1885 41.2018 38.0855 43.2467 37.3904C45.2916 36.6952 47.0976 35.4362 48.4558 33.759C49.814 32.0819 50.6688 30.0551 50.9215 27.9131C51.1741 25.7711 50.8142 23.6015 49.8834 21.6552C48.9526 19.7089 47.489 18.0655 45.6618 16.9151C43.8346 15.7646 41.7185 15.1542 39.5583 15.1543Z" fill="#2A4472"/>
</svg>
