<svg width="28" height="31" viewBox="0 0 28 31" fill="none" xmlns="http://www.w3.org/2000/svg">
<path d="M6.08984 13.7H9.13429V16.7444H6.08984V13.7ZM6.08984 19.7888H9.13429V22.8333H6.08984V19.7888ZM12.1787 13.7H15.2232V16.7444H12.1787V13.7ZM12.1787 19.7888H15.2232V22.8333H12.1787V19.7888ZM18.2676 13.7H21.3121V16.7444H18.2676V13.7ZM18.2676 19.7888H21.3121V22.8333H18.2676V19.7888Z" fill="#E84E2C"/>
<path d="M3.04444 30.4444H24.3556C26.0346 30.4444 27.4 29.079 27.4 27.4V6.08889C27.4 4.40988 26.0346 3.04444 24.3556 3.04444H21.3111V0H18.2667V3.04444H9.13333V0H6.08889V3.04444H3.04444C1.36543 3.04444 0 4.40988 0 6.08889V27.4C0 29.079 1.36543 30.4444 3.04444 30.4444ZM24.3556 9.13333L24.3571 27.4H3.04444V9.13333H24.3556Z" fill="#E84E2C"/>
</svg>
