<svg width="24" height="23" viewBox="0 0 24 23" fill="none" xmlns="http://www.w3.org/2000/svg">
<path d="M12 0.17395C10.3636 0.17395 9.08523 0.774041 8.16477 1.97422C7.24432 3.1744 6.78409 4.7086 6.78409 6.5768C6.77273 8.89791 7.52273 10.7378 9.03409 12.0965C9.22727 12.2777 9.29545 12.5098 9.23864 12.7928L8.84659 13.6081C8.72159 13.8798 8.53693 14.0921 8.29261 14.2449C8.0483 14.3978 7.53409 14.6158 6.75 14.8988C6.71591 14.9101 5.99716 15.1422 4.59375 15.5951C3.19034 16.048 2.44318 16.2971 2.35227 16.3424C1.39773 16.7387 0.772727 17.152 0.477273 17.5822C0.159091 18.2956 0 20.1015 0 23H24C24 20.1015 23.8409 18.2956 23.5227 17.5822C23.2273 17.152 22.6023 16.7387 21.6477 16.3424C21.5568 16.2971 20.8097 16.048 19.4062 15.5951C18.0028 15.1422 17.2841 14.9101 17.25 14.8988C16.4659 14.6158 15.9517 14.3978 15.7074 14.2449C15.4631 14.0921 15.2784 13.8798 15.1534 13.6081L14.7614 12.7928C14.7045 12.5098 14.7727 12.2777 14.9659 12.0965C16.4773 10.7378 17.2273 8.89791 17.2159 6.5768C17.2159 4.7086 16.7557 3.1744 15.8352 1.97422C14.9148 0.774041 13.6364 0.17395 12 0.17395Z" fill="#E84E2C"/>
</svg>
