<svg width="27" height="27" viewBox="0 0 27 27" fill="none" xmlns="http://www.w3.org/2000/svg">
<path d="M26.1737 0.512422C26.0954 0.317363 25.9449 0.160008 25.7535 0.0730937C25.5621 -0.0138209 25.3446 -0.0236038 25.1462 0.0457802C24.9478 0.115164 24.7838 0.258373 24.6882 0.445614C24.5927 0.632855 24.5731 0.849712 24.6334 1.05107C25.8875 4.65557 23.3981 7.34747 21.5 8.78927L20.7332 7.69037C20.4754 7.32182 19.8989 7.01537 19.4507 7.00997L15.1469 7.02887C14.6212 7.04475 14.1095 7.20241 13.666 7.48517L0.984092 16.3776C0.68911 16.5852 0.488398 16.9012 0.425902 17.2565C0.363405 17.6117 0.444217 17.9772 0.650642 18.273L6.41379 26.5188C6.84579 27.1331 7.53564 27.0588 8.15124 26.6295L20.8331 17.7357C21.1976 17.4779 21.6188 16.9217 21.7673 16.4964L23.1146 12.2507C23.2631 11.8268 23.1727 11.1801 22.9148 10.8116L22.4477 10.142C24.9965 8.18852 27.6425 4.73657 26.1737 0.512422ZM20.2729 13.1457C20.0393 13.3093 19.7757 13.4252 19.4973 13.4868C19.2188 13.5485 18.931 13.5546 18.6501 13.505C18.3693 13.4553 18.101 13.3508 17.8606 13.1975C17.6201 13.0441 17.4123 12.8449 17.2489 12.6111C16.918 12.1382 16.7884 11.5532 16.8884 10.9848C16.9883 10.4163 17.3098 9.91073 17.7821 9.57902C18.1525 9.31957 18.5946 9.18231 19.0467 9.18643C19.4989 9.19054 19.9384 9.33583 20.3039 9.60197C19.9367 9.82337 19.6843 9.95297 19.637 9.97322C19.4697 10.053 19.3344 10.1873 19.2534 10.354C19.1723 10.5208 19.1503 10.7101 19.1909 10.891C19.2316 11.0719 19.3324 11.2336 19.477 11.3496C19.6216 11.4657 19.8013 11.5292 19.9867 11.5298C20.1028 11.5298 20.2216 11.5028 20.3336 11.4501C20.5955 11.3259 20.8763 11.1788 21.1693 11.0046C21.2367 11.4097 21.1883 11.8256 21.0297 12.2044C20.8711 12.5832 20.6088 12.9095 20.2729 13.1457Z" fill="#E84E2C"/>
</svg>
