<svg width="32" height="32" viewBox="0 0 32 32" fill="none" xmlns="http://www.w3.org/2000/svg">
<path d="M30.6922 22.585H13.1203C12.3991 22.585 11.8124 23.1738 11.8124 23.8976C11.8124 24.6213 12.3991 25.2101 13.1203 25.2101H13.9972C13.9972 25.9241 13.9972 30.0821 13.9972 30.6874C13.9972 31.4111 14.584 31.9999 15.3051 31.9999C16.0262 31.9999 16.613 31.4111 16.613 30.6874V26.8977H23.9257C24.1837 26.8977 24.3928 26.6879 24.3928 26.4289C24.3928 26.17 24.1837 25.9601 23.9257 25.9601H14.9314V25.2101H29.6089V25.9601H26.1055C25.8476 25.9601 25.6384 26.1699 25.6384 26.4289C25.6384 26.6878 25.8475 26.8977 26.1055 26.8977H27.9273V30.6874C27.9273 31.4111 28.5141 32 29.2352 32C29.9563 32 30.5431 31.4111 30.5431 30.6874C30.5431 30.0053 30.5431 26.0599 30.5431 25.2102H30.6921C31.4133 25.2102 32 24.6213 32 23.8976C32 23.1739 31.4133 22.585 30.6922 22.585ZM29.6089 30.6874C29.6089 30.8942 29.4412 31.0625 29.2352 31.0625C29.0291 31.0625 28.8615 30.8942 28.8615 30.6874V26.8977H29.6089V30.6874ZM15.6788 26.8977V30.6874C15.6788 30.8942 15.5112 31.0624 15.3051 31.0624C15.099 31.0624 14.9314 30.8942 14.9314 30.6874V26.8977H15.6788ZM30.6922 24.2726C28.8799 24.2726 14.0341 24.2726 13.1203 24.2726C12.9142 24.2726 12.7466 24.1044 12.7466 23.8976C12.7466 23.6908 12.9142 23.5225 13.1203 23.5225H30.6922C30.8982 23.5225 31.0659 23.6908 31.0659 23.8976C31.0659 24.1044 30.8982 24.2726 30.6922 24.2726Z" fill="white"/>
<path d="M2.08925 23.5225C2.08913 23.5225 2.08907 23.5225 2.08894 23.5225C2.08719 23.5225 2.08582 23.5225 2.08463 23.5225C2.08619 23.5225 2.08788 23.5225 2.08925 23.5225Z" fill="white"/>
<path d="M23.1783 2.65511H21.4282C20.995 1.09516 19.5845 0 17.9345 0C16.2845 0 14.874 1.0951 14.4408 2.65511H12.6908C12.0211 2.65511 11.4763 3.20188 11.4763 3.8739V4.0669C3.50819 4.06791 3.97776 4.06439 3.85763 4.06973C2.39675 4.13464 1.24594 5.35758 1.23775 6.85373L1.22913 8.43413C1.22769 8.69236 1.4355 8.9055 1.69632 8.9055C1.95307 8.9055 2.162 8.69732 2.16338 8.43927L2.17207 6.85888C2.1775 5.84137 2.97144 5.0045 3.98195 5.0045H11.4763V6.88133H9.28914C8.54714 6.88133 7.9412 7.48712 7.93839 8.23184C7.90277 14.2851 7.94352 13.9673 7.8897 13.9673C7.31883 13.9673 2.65282 13.9673 2.13288 13.9673L2.15119 10.627C2.15257 10.3689 1.94482 10.1557 1.684 10.1557C1.42719 10.1557 1.21838 10.3638 1.21694 10.6219L1.11406 29.3909C0.484751 29.4853 0 30.03 0 30.6874C0 31.4111 0.586751 32 1.30788 32H8.69195C9.41308 32 9.99983 31.4111 9.99983 30.6874C9.99983 29.998 9.46702 29.4322 8.79308 29.38L8.80008 27.5245C8.80108 27.2655 8.5927 27.0548 8.3347 27.0539C8.33408 27.0539 8.33346 27.0539 8.33289 27.0539C8.0757 27.0539 7.86683 27.2626 7.86583 27.5209L7.85889 29.3748H2.04838L2.08044 23.5225C2.08038 23.5225 2.08038 23.5225 2.08032 23.5225H2.08044C2.08438 23.5225 2.08719 23.5225 2.08894 23.5225C2.16982 23.5225 2.89026 23.522 7.8807 23.5191L7.87389 25.3332C7.87289 25.5927 8.0822 25.8038 8.34108 25.8038C8.5982 25.8038 8.80714 25.5951 8.80814 25.3368L8.81496 23.5226C8.81589 23.2724 8.71952 23.0369 8.54358 22.8597C8.14308 22.4562 7.68939 22.6244 7.22814 22.5849V14.9048H7.88964C8.4177 14.9048 8.84902 14.4736 8.85108 13.9436L8.87264 8.23542C8.87352 8.00579 9.06033 7.81893 9.28914 7.81893H11.4763V7.93673C11.4763 8.60869 12.0211 9.15552 12.6908 9.15552H12.9898C12.9543 9.27444 12.9347 9.40021 12.9347 9.53055C12.9347 10.2543 13.5214 10.8431 14.2425 10.8431H21.6266C22.498 10.8431 23.1305 9.9984 22.8794 9.15552H23.1782C23.8479 9.15552 24.3927 8.60875 24.3927 7.93666V3.87396C24.3927 3.20188 23.8479 2.65511 23.1783 2.65511ZM8.69195 30.3124C8.89802 30.3124 9.06564 30.4806 9.06564 30.6874C9.06564 30.8942 8.89802 31.0625 8.69195 31.0625H1.30788C1.10181 31.0625 0.934189 30.8942 0.934189 30.6874C0.934189 30.4806 1.10181 30.3124 1.30788 30.3124C1.68938 30.3124 8.37164 30.3124 8.69195 30.3124ZM6.29401 22.585H2.10775C2.10775 22.5758 2.12775 14.9119 2.12775 14.9049H6.29401V22.585ZM17.9345 0.937599C19.0684 0.937599 20.0506 1.63365 20.4455 2.65517H15.4233C15.8185 1.63359 16.8007 0.937599 17.9345 0.937599ZM21.6265 9.90557H14.2426C14.0365 9.90557 13.8689 9.73735 13.8689 9.53055C13.8689 9.32374 14.0365 9.15552 14.2426 9.15552H21.6267C21.8327 9.15552 22.0003 9.32381 22.0003 9.53055C22.0002 9.73735 21.8326 9.90557 21.6265 9.90557ZM23.4586 7.93666C23.4586 8.08908 23.3303 8.21792 23.1784 8.21792C21.8839 8.21792 15.3627 8.21792 14.2426 8.21792H12.6908C12.539 8.21792 12.4106 8.08908 12.4106 7.93666V7.35126C12.4106 7.35082 12.4107 7.35045 12.4107 7.35007C12.4107 6.14614 12.4107 5.0772 12.4106 3.8739C12.4106 3.72148 12.5389 3.59265 12.6908 3.59265C14.064 3.59265 22.2761 3.59265 23.1784 3.59265C23.3303 3.59265 23.4586 3.72148 23.4586 3.8739V7.93666Z" fill="white"/>
<path d="M2.08338 23.5225C2.08194 23.5225 2.08094 23.5225 2.08044 23.5225C2.08107 23.5225 2.08213 23.5225 2.08338 23.5225Z" fill="white"/>
<path d="M17.9345 4.31027C17.0582 4.31027 16.3452 5.02583 16.3452 5.90535C16.3452 6.78486 17.0582 7.50029 17.9345 7.50029C18.8109 7.50029 19.5239 6.7848 19.5239 5.90535C19.5239 5.02589 18.811 4.31027 17.9345 4.31027ZM17.9345 6.56276C17.5732 6.56276 17.2793 6.26783 17.2793 5.90535C17.2793 5.54274 17.5732 5.24781 17.9345 5.24781C18.2958 5.24781 18.5897 5.54274 18.5897 5.90535C18.5897 6.26789 18.2958 6.56276 17.9345 6.56276Z" fill="white"/>
<path d="M4.87532 20.7836H3.41826C3.16026 20.7836 2.95113 20.9934 2.95113 21.2524C2.95113 21.5113 3.16019 21.7212 3.41826 21.7212H4.87532C5.13332 21.7212 5.34245 21.5114 5.34245 21.2524C5.34245 20.9934 5.13332 20.7836 4.87532 20.7836Z" fill="white"/>
<path d="M19.4634 12.0124C19.2809 11.8294 18.9852 11.8294 18.8028 12.0124C18.3241 12.4929 17.545 12.4929 17.0662 12.0124C16.8838 11.8294 16.5881 11.8293 16.4057 12.0125C16.2232 12.1956 16.2232 12.4924 16.4057 12.6754C16.8272 13.0984 17.3809 13.3099 17.9346 13.3099C18.4882 13.3099 19.0419 13.0984 19.4634 12.6754C19.6459 12.4923 19.6459 12.1955 19.4634 12.0124Z" fill="white"/>
<path d="M20.9719 13.5261C20.7894 13.3431 20.4937 13.3431 20.3112 13.5261C19.6765 14.1632 18.8324 14.5142 17.9346 14.5142C17.0368 14.5142 16.1927 14.1633 15.558 13.5262C15.3755 13.3431 15.0797 13.3431 14.8973 13.5261C14.7148 13.7092 14.7148 14.006 14.8972 14.1891C15.7085 15.0033 16.7872 15.4517 17.9345 15.4517C19.0819 15.4517 20.1605 15.0033 20.9719 14.1891C21.1543 14.006 21.1543 13.7092 20.9719 13.5261Z" fill="white"/>
<path d="M22.4305 14.9901C22.248 14.8071 21.9523 14.8071 21.7699 14.9901C20.7454 16.0183 19.3834 16.5845 17.9345 16.5845C16.4856 16.5845 15.1235 16.0183 14.0991 14.9901C13.9167 14.8071 13.621 14.8071 13.4385 14.9901C13.256 15.1733 13.256 15.47 13.4385 15.6531C14.6393 16.8583 16.2361 17.522 17.9344 17.522C19.6328 17.522 21.2294 16.8583 22.4304 15.6531C22.6129 15.47 22.6129 15.1731 22.4305 14.9901Z" fill="white"/>
</svg>
