<svg width="21" height="24" viewBox="0 0 21 24" fill="none" xmlns="http://www.w3.org/2000/svg">
<path d="M4.66504 10.5H6.99837V12.8333H4.66504V10.5ZM4.66504 15.1667H6.99837V17.5H4.66504V15.1667ZM9.33171 10.5H11.665V12.8333H9.33171V10.5ZM9.33171 15.1667H11.665V17.5H9.33171V15.1667ZM13.9984 10.5H16.3317V12.8333H13.9984V10.5ZM13.9984 15.1667H16.3317V17.5H13.9984V15.1667Z" fill="#2A4472"/>
<path d="M2.33333 23.3333H18.6667C19.9535 23.3333 21 22.2868 21 21V4.66667C21 3.37983 19.9535 2.33333 18.6667 2.33333H16.3333V0H14V2.33333H7V0H4.66667V2.33333H2.33333C1.0465 2.33333 0 3.37983 0 4.66667V21C0 22.2868 1.0465 23.3333 2.33333 23.3333ZM18.6667 7L18.6678 21H2.33333V7H18.6667Z" fill="#2A4472"/>
</svg>
