<svg width="22" height="23" viewBox="0 0 22 23" fill="none" xmlns="http://www.w3.org/2000/svg">
<path d="M10.6195 5.30734C12.299 5.30734 13.8816 6.05188 15.0414 7.21578V7.21922C15.0414 6.6603 15.4174 6.2375 15.9372 6.2375H16.0692C16.8893 6.2375 17.0536 7.01091 17.0536 7.25497L17.0571 15.9413C17 16.5105 17.6449 16.8047 18.003 16.439C19.3952 15.007 21.0637 9.06991 17.1361 5.63252C13.4732 2.42406 8.55709 2.95411 5.9433 4.7553C3.1652 6.67474 1.38944 10.9144 3.11432 14.899C4.99801 19.2432 10.383 20.5391 13.5881 19.2466C15.2105 18.5915 15.9585 20.7818 14.2721 21.4988C11.7305 22.583 4.6474 22.4723 1.33926 16.7435C-0.895736 12.8737 -0.77749 6.06632 5.1527 2.53956C9.68524 -0.160171 15.6656 0.587806 19.2707 4.35175C23.0381 8.29031 22.8202 15.6594 19.1422 18.5241C17.4764 19.8269 15.0029 18.5599 15.0208 16.6617L15.0022 16.043C13.8424 17.1918 12.299 17.8655 10.6195 17.8655C7.29694 17.8655 4.37172 14.9396 4.37172 11.6205C4.37172 8.26556 7.29694 5.30872 10.6195 5.30872V5.30734ZM14.7987 11.3805C14.6729 8.94891 12.8683 7.48459 10.6876 7.48459H10.6051C8.09167 7.48459 6.6954 9.46452 6.6954 11.7091C6.6954 14.226 8.38178 15.8154 10.5948 15.8154C13.0649 15.8154 14.6866 14.0081 14.8049 11.87L14.7987 11.3805Z" fill="#2A4472"/>
</svg>
