<svg width="16" height="16" viewBox="0 0 16 16" fill="none" xmlns="http://www.w3.org/2000/svg">
<path d="M2.9215 0.927124C1.30312 0.927124 0 2.1488 0 3.66603V13.1882C0 14.7054 1.30312 15.9271 2.9215 15.9271H8.42651V10.063H6.77251V7.9518H8.42651V6.14806C8.42651 4.73094 9.40378 3.42978 11.655 3.42978C12.5665 3.42978 13.2405 3.51181 13.2405 3.51181L13.1875 5.48338C13.1875 5.48338 12.5001 5.47729 11.75 5.47729C10.9382 5.47729 10.808 5.82796 10.808 6.41011V7.95182H13.252L13.1455 10.0631H10.808V15.9271H13.0785C14.6969 15.9271 16 14.7055 16 13.1882V3.66604C16 2.14881 14.6969 0.927139 13.0785 0.927139H2.92149L2.9215 0.927124Z" fill="#2A4472"/>
</svg>
