<svg width="16" height="17" viewBox="0 0 16 17" fill="none" xmlns="http://www.w3.org/2000/svg">
<path d="M7.99785 6.25932C6.52888 6.25932 5.3301 7.45813 5.3301 8.92712C5.3301 10.3961 6.52888 11.5949 7.99785 11.5949C9.46681 11.5949 10.6656 10.3961 10.6656 8.92712C10.6656 7.45813 9.46681 6.25932 7.99785 6.25932ZM15.9991 8.92712C15.9991 7.82238 16.0091 6.72764 15.9471 5.62489C15.885 4.34403 15.5928 3.20726 14.6562 2.27063C13.7176 1.33199 12.5829 1.0418 11.302 0.979754C10.1973 0.917713 9.10258 0.927719 7.99985 0.927719C6.89512 0.927719 5.80041 0.917713 4.69768 0.979754C3.41684 1.0418 2.28009 1.33399 1.34348 2.27063C0.404861 3.20926 0.11467 4.34403 0.0526294 5.62489C-0.00941132 6.72964 0.00059528 7.82438 0.00059528 8.92712C0.00059528 10.0299 -0.00941132 11.1266 0.0526294 12.2294C0.11467 13.5102 0.406862 14.647 1.34348 15.5836C2.28209 16.5223 3.41684 16.8125 4.69768 16.8745C5.80241 16.9365 6.89713 16.9265 7.99985 16.9265C9.10458 16.9265 10.1993 16.9365 11.302 16.8745C12.5829 16.8125 13.7196 16.5203 14.6562 15.5836C15.5948 14.645 15.885 13.5102 15.9471 12.2294C16.0111 11.1266 15.9991 10.0319 15.9991 8.92712ZM7.99785 13.0319C5.72636 13.0319 3.89315 11.1987 3.89315 8.92712C3.89315 6.65559 5.72636 4.82235 7.99785 4.82235C10.2693 4.82235 12.1025 6.65559 12.1025 8.92712C12.1025 11.1987 10.2693 13.0319 7.99785 13.0319ZM12.2707 5.61288C11.7403 5.61288 11.312 5.1846 11.312 4.65424C11.312 4.12388 11.7403 3.69559 12.2707 3.69559C12.801 3.69559 13.2293 4.12388 13.2293 4.65424C13.2294 4.78017 13.2048 4.9049 13.1566 5.02128C13.1085 5.13766 13.0379 5.24341 12.9489 5.33246C12.8598 5.42151 12.7541 5.49211 12.6377 5.54023C12.5213 5.58835 12.3966 5.61304 12.2707 5.61288Z" fill="#2A4472"/>
</svg>
