<svg width="22" height="23" viewBox="0 0 22 23" fill="none" xmlns="http://www.w3.org/2000/svg">
<path d="M21.0403 3.48427L18.1116 0.558253C17.7541 0.200751 17.2756 0 16.7696 0C16.2636 0 15.7851 0.198001 15.4276 0.558253L12.2733 3.70702C11.9158 4.06452 11.7151 4.54577 11.7151 5.05177C11.7151 5.56052 11.9131 6.03628 12.2733 6.39653L14.7373 8.86329C14.176 10.1712 13.3695 11.3595 12.3613 12.3641C11.352 13.3788 10.1723 14.1791 8.86329 14.7456L6.39928 12.2788C6.04178 11.9213 5.56327 11.7206 5.05727 11.7206C4.80769 11.7196 4.56043 11.7685 4.32999 11.8644C4.09955 11.9602 3.89056 12.1011 3.71527 12.2788L0.558253 15.4276C0.200751 15.7851 0 16.2663 0 16.7723C0 17.2811 0.198001 17.7568 0.558253 18.1171L3.48427 21.0431C4.09477 21.6536 4.93627 22.0028 5.79978 22.0028C5.97853 22.0028 6.15178 21.9891 6.32778 21.9588C9.96879 21.3593 13.5823 19.4206 16.5001 16.5056C19.4151 13.5851 21.3511 9.97154 21.9561 6.32778C22.1293 5.29377 21.7828 4.22952 21.0403 3.48427ZM20.0063 6.00053C19.4701 9.24279 17.7266 12.4768 15.1003 15.1031C12.4741 17.7293 9.24279 19.4728 6.00053 20.0091C5.59352 20.0778 5.17552 19.9403 4.87852 19.6461L2.00476 16.7723L5.05177 13.7226L8.34629 17.0226L8.37104 17.0473L8.96504 16.8273C10.7661 16.1651 12.4016 15.1192 13.7583 13.7621C15.1149 12.405 16.1603 10.7691 16.8218 8.96779L17.0418 8.37379L13.7198 5.05452L16.7668 2.00476L19.6406 4.87852C19.9376 5.17552 20.0751 5.59352 20.0063 6.00053Z" fill="#2A4472"/>
</svg>
