<svg width="16" height="17" viewBox="0 0 16 17" fill="none" xmlns="http://www.w3.org/2000/svg">
<path d="M8 0.927124C6.94943 0.927124 5.90914 1.13405 4.93853 1.53609C3.96793 1.93813 3.08601 2.5274 2.34315 3.27027C0.842855 4.77056 0 6.80539 0 8.92712C0 11.0489 0.842855 13.0837 2.34315 14.584C3.08601 15.3268 3.96793 15.9161 4.93853 16.3182C5.90914 16.7202 6.94943 16.9271 8 16.9271C10.1217 16.9271 12.1566 16.0843 13.6569 14.584C15.1571 13.0837 16 11.0489 16 8.92712C16 7.87655 15.7931 6.83626 15.391 5.86566C14.989 4.89505 14.3997 4.01314 13.6569 3.27027C12.914 2.5274 12.0321 1.93813 11.0615 1.53609C10.0909 1.13405 9.05058 0.927124 8 0.927124ZM2.8 6.12712H4C4.288 6.12712 4.4 6.25512 4.512 6.58312C5.088 8.26312 6.056 9.72712 6.456 9.72712C6.608 9.72712 6.68 9.66312 6.68 9.28712V7.55112C6.632 6.75112 6.208 6.67912 6.208 6.39912C6.208 6.26312 6.32 6.12712 6.512 6.12712H8.36C8.616 6.12712 8.696 6.26312 8.696 6.55912V8.89512C8.696 9.14312 8.8 9.23112 8.88 9.23112C9.032 9.23112 9.16 9.14312 9.432 8.87112C10.28 7.91912 10.88 6.46312 10.88 6.46312C10.96 6.28712 11.096 6.12712 11.392 6.12712H12.568C12.928 6.12712 13.008 6.31112 12.928 6.55912C12.776 7.24712 11.344 9.27112 11.344 9.27112C11.2 9.47112 11.168 9.56712 11.344 9.79912C11.464 9.96712 11.88 10.3191 12.152 10.6471C12.664 11.2151 13.04 11.6951 13.152 12.0231C13.248 12.3591 13.08 12.5271 12.744 12.5271H11.56C11.112 12.5271 10.984 12.1671 10.184 11.3671C9.48 10.6951 9.2 10.6071 9.008 10.6071C8.768 10.6071 8.696 10.6711 8.696 11.0151V12.0711C8.696 12.3591 8.608 12.5271 7.856 12.5271C6.608 12.5271 5.232 11.7671 4.264 10.3671C2.8 8.31912 2.4 6.77512 2.4 6.46312C2.4 6.28712 2.464 6.12712 2.8 6.12712Z" fill="#2A4472"/>
</svg>
