<svg width="107" height="102" viewBox="0 0 107 102" fill="none" xmlns="http://www.w3.org/2000/svg">
<path d="M95.3312 77.9466L87.4542 52.5431C92.2503 49.8129 95.4659 44.8468 95.4659 39.1838C95.4659 30.5888 88.0592 23.5954 78.9561 23.5954C67.5142 23.5954 59.5548 34.3587 63.4243 44.4675L51.3302 52.3087C46.5994 48.0201 40.0777 46.1347 33.6571 47.146L26.0128 28.5292C30.1093 25.7136 32.7803 21.1536 32.7803 16.0132C32.7803 7.48061 25.4275 0.538147 16.3898 0.538147C7.35282 0.538147 0 7.48061 0 16.0132C0 25.1763 8.45081 32.4202 18.2208 31.3896L25.8659 50.0064C20.198 53.4796 16.4404 59.5071 16.4404 66.3486C16.4404 77.0841 25.6904 85.8179 37.0596 85.8179C51.8143 85.8179 61.7622 71.5568 56.0707 58.8103L68.1656 50.9676C71.062 53.3354 74.8335 54.7729 78.9561 54.7729C79.1153 54.7729 79.2728 54.7652 79.4312 54.7614L87.3106 80.1703C84.2166 82.3008 82.2011 85.7477 82.2011 89.6325C82.2011 96.0886 87.7628 101.34 94.6005 101.34C101.438 101.34 107 96.0886 107 89.6325C107 83.4092 101.829 78.3058 95.3312 77.9466ZM8.35938 16.0132C8.35938 11.8325 11.9619 8.43099 16.3898 8.43099C20.8184 8.43099 24.421 11.8325 24.421 16.0132C24.421 20.194 20.8184 23.5962 16.3898 23.5962C11.9619 23.5962 8.35938 20.194 8.35938 16.0132ZM37.0596 77.925C30.2995 77.925 24.7998 72.7323 24.7998 66.3486C24.7998 59.9657 30.2995 54.7729 37.0596 54.7729C43.8206 54.7729 49.3203 59.9657 49.3203 66.3486C49.3203 72.7323 43.8206 77.925 37.0596 77.925ZM70.8057 39.1846C70.8057 34.9406 74.4621 31.489 78.9561 31.489C83.4501 31.489 87.1065 34.9406 87.1065 39.1846C87.1065 43.4277 83.4501 46.8801 78.9561 46.8801C74.4621 46.8801 70.8057 43.4277 70.8057 39.1846ZM94.6005 93.4479C92.3727 93.4479 90.5596 91.736 90.5596 89.6325C90.5596 87.529 92.3727 85.8179 94.6005 85.8179C96.8283 85.8179 98.6406 87.529 98.6406 89.6325C98.6406 91.736 96.8283 93.4479 94.6005 93.4479Z" fill="#EDEDED" fill-opacity="0.3"/>
</svg>
